{"glyphs":{"0":{"ha":839,"x_min":89,"x_max":750,"o":"m 407 -16 q 241 28 313 -16 q 129 161 170 72 q 89 382 89 251 q 175 706 89 590 q 436 822 261 822 q 594 778 523 822 q 708 647 666 734 q 750 435 750 560 q 664 101 750 218 q 407 -16 578 -16 m 292 207 q 323 133 302 168 q 375 77 345 98 q 437 56 405 56 q 509 75 490 56 q 554 185 536 104 q 571 355 571 267 q 528 651 571 555 q 474 722 509 694 q 395 750 439 750 q 330 730 347 750 q 299 672 313 713 q 277 575 285 631 q 269 460 269 519 q 292 207 269 289 z "},"1":{"ha":606,"x_min":71,"x_max":525,"o":"m 71 677 l 83 736 l 404 817 l 404 94 l 525 64 l 510 0 l 82 0 l 92 53 l 238 94 l 238 677 l 71 677 z "},"2":{"ha":803,"x_min":81,"x_max":719,"o":"m 113 586 l 112 754 q 213 794 157 779 q 316 816 269 810 q 389 822 363 822 q 543 796 477 822 q 644 722 608 770 q 680 609 680 674 q 622 443 680 529 q 482 281 563 357 q 276 102 401 205 q 239 71 276 102 l 571 101 l 649 222 l 719 210 l 669 0 l 106 0 l 81 62 q 241 231 130 116 q 314 308 254 245 q 406 408 374 371 q 472 506 444 451 q 501 609 501 560 q 486 673 501 645 q 428 722 470 704 q 328 740 385 740 q 247 732 292 740 l 185 572 l 113 586 z "},"3":{"ha":736,"x_min":83,"x_max":659,"o":"m 405 460 q 524 435 470 459 q 609 363 577 410 q 641 249 641 316 q 555 65 641 132 q 351 -26 469 -1 q 110 -54 232 -52 l 99 -1 q 282 52 209 26 q 412 126 356 77 q 468 250 468 175 q 397 370 468 334 q 225 406 326 406 l 240 467 l 509 724 q 193 706 409 712 l 153 599 l 83 611 l 90 812 l 201 805 l 633 809 l 659 739 l 405 460 z "},"4":{"ha":795,"x_min":31,"x_max":728,"o":"m 708 176 l 604 176 l 604 -31 l 444 -71 l 444 176 l 64 176 l 31 235 l 372 822 l 536 773 l 213 269 l 444 280 l 444 431 l 604 473 l 604 288 l 728 294 l 708 176 z "},"5":{"ha":703,"x_min":70,"x_max":614,"o":"m 70 -1 q 240 50 165 22 q 369 126 315 77 q 423 247 423 175 q 363 376 423 336 q 206 416 303 416 q 106 411 151 416 l 132 805 l 614 805 l 562 693 l 265 713 l 257 474 q 345 478 304 478 q 531 421 465 478 q 598 258 598 365 q 517 71 598 140 q 321 -25 437 2 q 82 -54 206 -52 l 70 -1 z "},"6":{"ha":777,"x_min":68,"x_max":695,"o":"m 283 142 q 343 82 307 106 q 422 59 380 59 q 471 66 452 59 q 502 87 490 73 q 522 140 515 104 q 529 227 529 176 q 485 366 529 313 q 338 429 441 420 l 348 469 q 400 485 372 479 q 452 491 428 491 q 580 464 525 491 q 665 386 635 437 q 695 264 695 335 q 653 113 695 177 q 540 16 612 50 q 380 -18 469 -18 q 213 22 283 -18 q 105 138 142 62 q 68 315 68 213 q 126 548 68 439 q 289 735 184 656 q 531 852 394 814 l 577 814 q 328 600 416 714 q 239 340 239 486 q 250 227 239 275 q 283 142 260 179 z "},"7":{"ha":767,"x_min":79,"x_max":713,"o":"m 555 707 l 199 694 l 155 572 l 79 585 l 87 813 l 203 805 l 685 807 l 713 728 l 310 -45 l 147 0 l 555 707 z "},"8":{"ha":760,"x_min":89,"x_max":671,"o":"m 89 189 q 131 312 89 262 q 245 406 173 363 q 144 492 180 445 q 109 614 109 540 q 144 721 109 674 q 240 795 178 768 q 381 822 302 822 q 515 800 454 822 q 612 734 576 778 q 648 627 648 690 q 613 510 648 559 q 516 422 577 462 q 631 328 590 380 q 671 196 671 276 q 635 78 671 126 q 535 6 599 30 q 387 -18 471 -18 q 240 3 308 -18 q 131 70 173 24 q 89 189 89 116 m 453 456 q 498 595 498 534 q 476 676 498 640 q 420 733 455 713 q 345 754 385 754 q 284 737 304 754 q 264 704 271 726 q 258 657 258 682 q 293 561 258 600 q 362 508 313 538 q 453 456 412 477 m 250 224 q 272 138 250 176 q 331 78 294 100 q 411 56 368 56 q 460 60 439 56 q 494 78 480 64 q 513 107 509 89 q 518 152 518 126 q 484 253 518 212 q 404 317 460 281 q 304 374 348 353 q 264 300 279 336 q 250 224 250 264 z "},"9":{"ha":774,"x_min":75,"x_max":692,"o":"m 120 -3 q 357 126 269 51 q 480 291 445 201 q 516 487 516 380 q 498 609 516 546 q 441 711 479 673 q 341 750 401 750 q 269 724 292 750 q 240 601 240 695 q 248 518 240 552 q 276 457 255 484 q 418 401 315 410 l 428 360 q 307 344 382 344 q 208 359 252 344 q 134 404 163 375 q 75 570 75 465 q 110 704 75 648 q 210 791 144 761 q 366 822 276 822 q 544 780 471 822 q 654 661 617 738 q 692 482 692 585 q 660 279 692 370 q 553 114 628 189 q 361 -10 471 33 q 131 -53 250 -53 l 120 -3 z "},"\r":{"ha":260,"x_min":0,"x_max":0,"o":""}," ":{"ha":386,"x_min":0,"x_max":0,"o":""},"A":{"ha":945,"x_min":-23,"x_max":966,"o":"m 966 66 l 949 0 l 551 0 l 561 58 l 670 97 l 602 292 q 268 282 448 282 q 227 161 243 210 q 205 99 210 113 l 336 56 l 325 0 l -23 0 l -12 64 l 96 102 l 400 939 l 528 962 l 861 97 l 966 66 m 569 385 l 429 783 q 392 654 425 758 q 303 385 359 551 l 569 385 z "},"Á":{"ha":945,"x_min":-23,"x_max":966,"o":"m 966 66 l 949 0 l 551 0 l 561 58 l 670 97 l 602 292 q 268 282 448 282 q 227 161 243 210 q 205 99 210 113 l 336 56 l 325 0 l -23 0 l -12 64 l 96 102 l 400 939 l 528 962 l 861 97 l 966 66 m 569 385 l 429 783 q 392 654 425 758 q 303 385 359 551 l 569 385 m 332 1084 l 574 1217 l 644 1217 l 665 1109 l 347 1011 l 332 1084 z "},"Ă":{"ha":945,"x_min":-23,"x_max":966,"o":"m 966 66 l 949 0 l 551 0 l 561 58 l 670 97 l 602 292 q 268 282 448 282 q 227 161 243 210 q 205 99 210 113 l 336 56 l 325 0 l -23 0 l -12 64 l 96 102 l 400 939 l 528 962 l 861 97 l 966 66 m 569 385 l 429 783 q 392 654 425 758 q 303 385 359 551 l 569 385 m 461 1006 q 359 1028 403 1006 q 291 1085 315 1049 q 267 1161 267 1120 q 283 1209 267 1200 l 360 1208 q 395 1124 368 1152 q 461 1097 423 1097 q 525 1125 498 1097 q 559 1209 552 1153 l 638 1209 q 652 1164 652 1197 q 629 1086 652 1122 q 562 1028 606 1050 q 461 1006 518 1006 z "},"Â":{"ha":945,"x_min":-23,"x_max":966,"o":"m 966 66 l 949 0 l 551 0 l 561 58 l 670 97 l 602 292 q 268 282 448 282 q 227 161 243 210 q 205 99 210 113 l 336 56 l 325 0 l -23 0 l -12 64 l 96 102 l 400 939 l 528 962 l 861 97 l 966 66 m 569 385 l 429 783 q 392 654 425 758 q 303 385 359 551 l 569 385 m 239 1061 l 423 1216 l 497 1216 l 682 1061 l 630 1013 l 460 1099 l 291 1013 l 239 1061 z "},"Ä":{"ha":945,"x_min":-23,"x_max":966,"o":"m 966 66 l 949 0 l 551 0 l 561 58 l 670 97 l 602 292 q 268 282 448 282 q 227 161 243 210 q 205 99 210 113 l 336 56 l 325 0 l -23 0 l -12 64 l 96 102 l 400 939 l 528 962 l 861 97 l 966 66 m 569 385 l 429 783 q 392 654 425 758 q 303 385 359 551 l 569 385 m 524 1076 q 524 1084 524 1078 q 532 1122 524 1099 q 554 1165 541 1146 q 578 1188 567 1185 q 586 1190 583 1190 q 624 1180 600 1190 q 666 1158 647 1171 q 690 1135 686 1145 q 690 1127 690 1133 q 682 1089 690 1113 q 660 1046 673 1065 q 635 1022 647 1026 q 629 1021 633 1021 q 591 1030 614 1021 q 548 1053 568 1040 q 524 1076 528 1065 m 230 1076 q 229 1084 229 1080 q 238 1123 229 1099 q 260 1165 247 1146 q 284 1188 273 1184 q 291 1189 286 1189 q 328 1180 304 1189 q 371 1158 351 1171 q 395 1135 391 1145 q 395 1127 395 1133 q 387 1089 395 1112 q 365 1046 378 1065 q 340 1022 352 1026 q 334 1021 338 1021 q 296 1030 319 1021 q 253 1053 273 1040 q 230 1076 234 1065 z "},"À":{"ha":945,"x_min":-23,"x_max":966,"o":"m 966 66 l 949 0 l 551 0 l 561 58 l 670 97 l 602 292 q 268 282 448 282 q 227 161 243 210 q 205 99 210 113 l 336 56 l 325 0 l -23 0 l -12 64 l 96 102 l 400 939 l 528 962 l 861 97 l 966 66 m 569 385 l 429 783 q 392 654 425 758 q 303 385 359 551 l 569 385 m 294 1109 l 314 1217 l 385 1217 l 626 1084 l 612 1011 l 294 1109 z "},"Ā":{"ha":945,"x_min":-23,"x_max":966,"o":"m 966 66 l 949 0 l 551 0 l 561 58 l 670 97 l 602 292 q 268 282 448 282 q 227 161 243 210 q 205 99 210 113 l 336 56 l 325 0 l -23 0 l -12 64 l 96 102 l 400 939 l 528 962 l 861 97 l 966 66 m 569 385 l 429 783 q 392 654 425 758 q 303 385 359 551 l 569 385 m 279 1145 l 660 1145 l 642 1049 q 454 1043 566 1045 q 258 1041 341 1041 l 279 1145 z "},"Ą":{"ha":946,"x_min":-24,"x_max":961,"o":"m 699 -31 q 637 -94 665 -58 q 609 -157 609 -130 q 622 -201 609 -180 q 654 -233 634 -223 q 684 -241 669 -241 q 737 -233 707 -241 q 793 -211 768 -224 l 812 -238 q 631 -330 721 -330 q 555 -314 591 -330 q 499 -267 520 -298 q 477 -192 477 -236 q 492 -128 477 -156 q 530 -79 507 -100 q 591 -29 552 -58 q 645 14 625 -3 q 666 41 659 26 q 674 75 674 57 q 667 105 674 85 l 602 293 q 328 284 509 284 l 269 284 l 205 99 l 336 56 l 324 0 l -24 0 l -10 64 l 96 102 l 400 939 l 528 963 l 861 97 l 961 67 l 943 0 l 800 0 q 745 -7 769 0 q 699 -31 722 -14 m 569 385 l 429 783 q 303 385 368 575 l 569 385 z "},"Å":{"ha":945,"x_min":-23,"x_max":966,"o":"m 966 66 l 949 0 l 551 0 l 561 58 l 670 97 l 602 292 q 268 282 448 282 q 227 161 243 210 q 205 99 210 113 l 336 56 l 325 0 l -23 0 l -12 64 l 96 102 l 391 915 q 345 957 362 930 q 328 1019 328 983 q 345 1086 328 1056 q 392 1133 361 1116 q 463 1150 423 1150 q 526 1135 496 1150 q 573 1092 555 1120 q 591 1029 591 1065 q 578 970 591 997 q 543 925 566 943 l 861 97 l 966 66 m 454 1080 q 421 1065 434 1080 q 409 1030 409 1050 q 423 988 409 1006 q 465 970 437 970 q 497 984 485 970 q 509 1019 509 998 q 494 1062 509 1044 q 454 1080 479 1080 m 569 385 l 429 783 q 392 654 425 758 q 303 385 359 551 l 569 385 z "},"Ã":{"ha":945,"x_min":-23,"x_max":966,"o":"m 966 66 l 949 0 l 551 0 l 561 58 l 670 97 l 602 292 q 268 282 448 282 q 227 161 243 210 q 205 99 210 113 l 336 56 l 325 0 l -23 0 l -12 64 l 96 102 l 400 939 l 528 962 l 861 97 l 966 66 m 569 385 l 429 783 q 392 654 425 758 q 303 385 359 551 l 569 385 m 219 1128 q 273 1183 250 1162 q 322 1217 296 1204 q 378 1231 349 1231 q 438 1216 411 1231 q 498 1173 465 1200 q 529 1150 517 1158 q 551 1142 541 1142 q 609 1163 570 1142 q 686 1216 648 1185 l 700 1131 q 619 1056 655 1082 q 541 1029 583 1029 q 481 1044 508 1029 q 423 1086 455 1059 q 391 1111 402 1103 q 370 1118 380 1118 q 308 1096 348 1118 q 235 1044 267 1075 l 219 1128 z "},"Æ":{"ha":1283,"x_min":-27,"x_max":1253,"o":"m 604 294 q 303 283 515 283 l 205 99 l 330 56 l 316 0 l -27 0 l -14 63 l 89 100 l 486 846 l 374 883 l 385 939 l 1087 939 l 1179 947 l 1204 709 l 1129 694 l 1063 840 q 777 879 924 854 l 777 503 q 875 516 812 510 q 949 523 937 523 l 990 637 l 1048 623 l 1036 310 l 977 320 l 949 429 q 874 434 935 429 q 777 447 814 439 l 777 67 q 887 84 790 71 q 1104 109 984 98 l 1187 238 l 1253 227 l 1200 0 l 473 0 l 484 59 l 604 102 l 604 294 m 604 820 l 576 820 l 355 385 l 604 385 l 604 820 z "},"B":{"ha":888,"x_min":43,"x_max":831,"o":"m 54 58 l 173 101 l 173 838 l 45 884 l 58 939 l 316 939 q 570 925 472 939 q 727 864 667 911 q 787 719 787 816 q 756 613 787 658 q 675 541 726 568 q 566 504 625 514 q 700 466 640 496 q 795 387 760 437 q 831 269 831 336 q 778 104 831 163 q 625 23 725 45 q 369 0 526 0 l 43 0 l 54 58 m 609 713 q 535 836 609 798 q 349 885 462 874 l 349 55 q 499 87 436 67 q 603 151 562 107 q 645 267 645 194 q 583 402 645 353 q 419 477 522 452 l 425 517 q 562 592 514 542 q 609 713 609 643 z "},"C":{"ha":861,"x_min":65,"x_max":832,"o":"m 494 -24 q 270 30 367 -24 q 119 187 173 84 q 65 433 65 290 q 112 686 65 571 q 245 869 158 800 q 534 962 363 962 q 683 946 597 962 l 777 955 l 800 701 l 724 686 l 663 826 q 581 856 623 846 q 484 865 538 865 q 398 853 439 865 q 337 822 358 841 q 273 696 297 783 q 249 494 249 608 q 271 334 249 408 q 332 209 292 261 q 427 128 373 155 q 537 101 481 101 q 668 123 576 101 q 805 159 760 144 l 832 115 q 684 11 766 45 q 494 -24 602 -24 z "},"Ć":{"ha":861,"x_min":65,"x_max":832,"o":"m 494 -24 q 270 30 367 -24 q 119 187 173 84 q 65 433 65 290 q 112 686 65 571 q 245 869 158 800 q 534 962 363 962 q 683 946 597 962 l 777 955 l 800 701 l 724 686 l 663 826 q 581 856 623 846 q 484 865 538 865 q 398 853 439 865 q 337 822 358 841 q 273 696 297 783 q 249 494 249 608 q 271 334 249 408 q 332 209 292 261 q 427 128 373 155 q 537 101 481 101 q 668 123 576 101 q 805 159 760 144 l 832 115 q 684 11 766 45 q 494 -24 602 -24 m 362 1084 l 604 1217 l 675 1217 l 695 1109 l 377 1011 l 362 1084 z "},"Č":{"ha":861,"x_min":65,"x_max":832,"o":"m 494 -24 q 270 30 367 -24 q 119 187 173 84 q 65 433 65 290 q 112 686 65 571 q 245 869 158 800 q 534 962 363 962 q 683 946 597 962 l 777 955 l 800 701 l 724 686 l 663 826 q 581 856 623 846 q 484 865 538 865 q 398 853 439 865 q 337 822 358 841 q 273 696 297 783 q 249 494 249 608 q 271 334 249 408 q 332 209 292 261 q 427 128 373 155 q 537 101 481 101 q 668 123 576 101 q 805 159 760 144 l 832 115 q 684 11 766 45 q 494 -24 602 -24 m 271 1178 l 321 1225 l 490 1139 l 661 1225 l 711 1178 l 530 1027 l 452 1027 l 271 1178 z "},"Ç":{"ha":861,"x_min":65,"x_max":832,"o":"m 832 115 q 693 15 769 49 q 519 -23 616 -20 l 500 -72 q 599 -107 557 -78 q 640 -182 640 -136 q 599 -271 640 -236 q 496 -323 558 -307 q 367 -339 433 -339 l 357 -296 q 490 -235 456 -258 q 523 -195 523 -212 q 484 -158 523 -175 q 375 -126 444 -140 q 441 -21 394 -73 q 243 46 328 -10 q 112 201 158 103 q 65 433 65 300 q 112 686 65 571 q 245 869 158 800 q 534 962 363 962 q 683 946 597 962 l 777 955 l 800 701 l 724 686 l 663 826 q 581 856 623 846 q 484 865 538 865 q 398 853 439 865 q 337 822 358 841 q 273 696 297 783 q 249 494 249 608 q 271 334 249 408 q 332 209 292 261 q 427 128 373 155 q 537 101 481 101 q 668 123 576 101 q 805 159 760 144 l 832 115 z "},"D":{"ha":1006,"x_min":43,"x_max":947,"o":"m 174 101 l 174 838 l 47 883 l 58 939 l 369 939 q 590 923 492 939 q 760 863 688 908 q 902 701 858 800 q 947 476 947 602 q 919 284 947 372 q 833 135 891 197 q 702 48 779 77 q 539 9 625 18 q 342 0 454 0 l 43 0 l 55 58 l 174 101 m 349 64 q 582 126 493 83 q 716 252 671 169 q 761 473 761 335 q 610 794 761 690 q 497 845 567 824 q 349 877 427 867 l 349 64 z "},"Ð":{"ha":1000,"x_min":43,"x_max":947,"o":"m 760 863 q 903 701 859 800 q 947 476 947 602 q 919 284 947 372 q 833 135 891 197 q 702 48 779 77 q 539 9 625 18 q 342 0 454 0 l 43 0 l 55 58 l 174 101 l 174 414 l 45 410 l 68 522 l 174 522 l 174 838 l 47 883 l 59 939 l 370 939 q 591 923 492 939 q 760 863 689 908 m 350 64 q 583 126 494 83 q 716 252 671 169 q 762 473 762 335 q 610 794 762 689 q 497 845 567 824 q 350 877 428 867 l 350 522 l 549 522 l 528 427 l 350 420 l 350 64 z "},"Ď":{"ha":1006,"x_min":43,"x_max":947,"o":"m 174 101 l 174 838 l 47 883 l 58 939 l 369 939 q 590 923 492 939 q 760 863 688 908 q 902 701 858 800 q 947 476 947 602 q 919 284 947 372 q 833 135 891 197 q 702 48 779 77 q 539 9 625 18 q 342 0 454 0 l 43 0 l 55 58 l 174 101 m 349 64 q 582 126 493 83 q 716 252 671 169 q 761 473 761 335 q 610 794 761 690 q 497 845 567 824 q 349 877 427 867 l 349 64 m 237 1178 l 287 1225 l 456 1139 l 627 1225 l 677 1178 l 496 1027 l 418 1027 l 237 1178 z "},"Đ":{"ha":1000,"x_min":43,"x_max":947,"o":"m 760 863 q 903 701 859 800 q 947 476 947 602 q 919 284 947 372 q 833 135 891 197 q 702 48 779 77 q 539 9 625 18 q 342 0 454 0 l 43 0 l 55 58 l 174 101 l 174 414 l 45 410 l 68 522 l 174 522 l 174 838 l 47 883 l 59 939 l 370 939 q 591 923 492 939 q 760 863 689 908 m 350 64 q 583 126 494 83 q 716 252 671 169 q 762 473 762 335 q 610 794 762 689 q 497 845 567 824 q 350 877 428 867 l 350 522 l 549 522 l 528 427 l 350 420 l 350 64 z "},"E":{"ha":881,"x_min":40,"x_max":852,"o":"m 701 109 l 785 239 l 852 226 l 799 0 l 40 0 l 52 59 l 174 102 l 174 840 l 47 884 l 60 939 l 685 939 l 776 947 l 800 709 l 726 693 l 660 840 l 350 879 l 350 503 q 535 523 439 517 l 578 638 l 637 624 l 626 310 l 566 321 l 534 429 q 350 447 425 431 l 350 67 l 701 109 z "},"É":{"ha":881,"x_min":40,"x_max":852,"o":"m 701 109 l 785 239 l 852 226 l 799 0 l 40 0 l 52 59 l 174 102 l 174 840 l 47 884 l 60 939 l 685 939 l 776 947 l 800 709 l 726 693 l 660 840 l 350 879 l 350 503 q 535 523 439 517 l 578 638 l 637 624 l 626 310 l 566 321 l 534 429 q 350 447 425 431 l 350 67 l 701 109 m 311 1084 l 553 1217 l 623 1217 l 644 1109 l 326 1011 l 311 1084 z "},"Ě":{"ha":881,"x_min":40,"x_max":852,"o":"m 701 109 l 785 239 l 852 226 l 799 0 l 40 0 l 52 59 l 174 102 l 174 840 l 47 884 l 60 939 l 685 939 l 776 947 l 800 709 l 726 693 l 660 840 l 350 879 l 350 503 q 535 523 439 517 l 578 638 l 637 624 l 626 310 l 566 321 l 534 429 q 350 447 425 431 l 350 67 l 701 109 m 219 1178 l 269 1225 l 439 1139 l 609 1225 l 659 1178 l 478 1027 l 400 1027 l 219 1178 z "},"Ê":{"ha":881,"x_min":40,"x_max":852,"o":"m 701 109 l 785 239 l 852 226 l 799 0 l 40 0 l 52 59 l 174 102 l 174 840 l 47 884 l 60 939 l 685 939 l 776 947 l 800 709 l 726 693 l 660 840 l 350 879 l 350 503 q 535 523 439 517 l 578 638 l 637 624 l 626 310 l 566 321 l 534 429 q 350 447 425 431 l 350 67 l 701 109 m 218 1061 l 402 1216 l 476 1216 l 661 1061 l 609 1013 l 439 1099 l 270 1013 l 218 1061 z "},"Ë":{"ha":881,"x_min":40,"x_max":852,"o":"m 701 109 l 785 239 l 852 226 l 799 0 l 40 0 l 52 59 l 174 102 l 174 840 l 47 884 l 60 939 l 685 939 l 776 947 l 800 709 l 726 693 l 660 840 l 350 879 l 350 503 q 535 523 439 517 l 578 638 l 637 624 l 626 310 l 566 321 l 534 429 q 350 447 425 431 l 350 67 l 701 109 m 503 1076 q 503 1084 503 1078 q 511 1122 503 1099 q 533 1165 520 1146 q 557 1188 546 1185 q 565 1190 562 1190 q 603 1180 579 1190 q 645 1158 626 1171 q 669 1135 665 1145 q 669 1127 669 1133 q 661 1089 669 1113 q 639 1046 652 1065 q 614 1022 626 1026 q 608 1021 612 1021 q 570 1030 593 1021 q 527 1053 547 1040 q 503 1076 507 1065 m 209 1076 q 208 1084 208 1080 q 217 1123 208 1099 q 239 1165 226 1146 q 263 1188 252 1184 q 270 1189 265 1189 q 307 1180 283 1189 q 350 1158 330 1171 q 374 1135 370 1145 q 374 1127 374 1133 q 366 1089 374 1112 q 344 1046 357 1065 q 319 1022 331 1026 q 313 1021 317 1021 q 275 1030 298 1021 q 232 1053 252 1040 q 209 1076 213 1065 z "},"Ė":{"ha":881,"x_min":40,"x_max":852,"o":"m 701 109 l 785 239 l 852 226 l 799 0 l 40 0 l 52 59 l 174 102 l 174 840 l 47 884 l 60 939 l 685 939 l 776 947 l 800 709 l 726 693 l 660 840 l 350 879 l 350 503 q 535 523 439 517 l 578 638 l 637 624 l 626 310 l 566 321 l 534 429 q 350 447 425 431 l 350 67 l 701 109 m 399 1031 q 374 1070 387 1037 q 361 1128 361 1103 q 364 1144 361 1139 q 404 1169 371 1156 q 461 1182 437 1182 q 476 1179 471 1182 q 502 1140 488 1173 q 515 1082 515 1106 q 512 1067 515 1072 q 472 1041 505 1055 q 414 1028 438 1028 q 399 1031 405 1028 z "},"È":{"ha":881,"x_min":40,"x_max":852,"o":"m 701 109 l 785 239 l 852 226 l 799 0 l 40 0 l 52 59 l 174 102 l 174 840 l 47 884 l 60 939 l 685 939 l 776 947 l 800 709 l 726 693 l 660 840 l 350 879 l 350 503 q 535 523 439 517 l 578 638 l 637 624 l 626 310 l 566 321 l 534 429 q 350 447 425 431 l 350 67 l 701 109 m 273 1109 l 293 1217 l 363 1217 l 605 1084 l 591 1011 l 273 1109 z "},"Ē":{"ha":881,"x_min":40,"x_max":852,"o":"m 701 109 l 785 239 l 852 226 l 799 0 l 40 0 l 52 59 l 174 102 l 174 840 l 47 884 l 60 939 l 685 939 l 776 947 l 800 709 l 726 693 l 660 840 l 350 879 l 350 503 q 535 523 439 517 l 578 638 l 637 624 l 626 310 l 566 321 l 534 429 q 350 447 425 431 l 350 67 l 701 109 m 258 1145 l 639 1145 l 621 1049 q 433 1043 545 1045 q 237 1041 320 1041 l 258 1145 z "},"Ę":{"ha":881,"x_min":40,"x_max":852,"o":"m 690 -241 q 802 -212 726 -241 l 817 -240 q 636 -330 727 -330 q 561 -314 596 -330 q 505 -267 526 -298 q 484 -192 484 -236 q 544 -69 484 -125 q 643 0 578 -37 l 40 0 l 52 59 l 174 102 l 174 840 l 47 884 l 60 939 l 685 939 l 776 947 l 800 709 l 726 693 l 660 840 l 350 879 l 350 503 q 535 523 439 517 l 578 638 l 637 624 l 626 310 l 566 321 l 534 429 q 350 447 425 431 l 350 67 l 701 109 l 785 239 l 852 226 l 799 0 l 739 0 q 644 -92 673 -56 q 615 -157 615 -128 q 629 -204 615 -182 q 666 -236 644 -227 q 690 -241 678 -241 z "},"F":{"ha":829,"x_min":39,"x_max":814,"o":"m 45 883 l 56 939 l 705 939 l 791 947 l 814 707 l 741 694 l 675 840 l 348 877 l 348 503 q 550 523 428 515 l 594 638 l 652 623 l 640 309 l 580 319 l 549 428 q 348 443 433 430 l 348 106 l 535 69 l 511 0 l 39 0 l 51 58 l 172 102 l 172 840 l 45 883 z "},"G":{"ha":983,"x_min":56,"x_max":965,"o":"m 515 395 l 526 452 l 965 452 l 955 391 l 873 342 l 872 143 q 785 57 840 95 q 663 -2 731 19 q 522 -24 594 -24 q 331 2 409 -24 q 182 92 254 27 q 89 241 121 150 q 56 438 56 332 q 100 677 56 564 q 240 869 144 791 q 373 938 296 914 q 534 962 450 962 q 630 957 581 962 q 720 943 679 952 l 817 952 l 845 701 l 768 687 l 711 816 q 620 854 677 840 q 509 868 562 868 q 406 857 454 868 q 336 826 357 846 q 266 697 291 785 q 241 474 241 609 q 267 296 241 379 q 343 164 292 213 q 442 100 390 117 q 553 82 494 82 q 633 91 590 82 q 700 116 677 100 l 700 348 l 515 395 z "},"Ğ":{"ha":983,"x_min":56,"x_max":965,"o":"m 515 395 l 526 452 l 965 452 l 955 391 l 873 342 l 872 143 q 785 57 840 95 q 663 -2 731 19 q 522 -24 594 -24 q 331 2 409 -24 q 182 92 254 27 q 89 241 121 150 q 56 438 56 332 q 100 677 56 564 q 240 869 144 791 q 373 938 296 914 q 534 962 450 962 q 630 957 581 962 q 720 943 679 952 l 817 952 l 845 701 l 768 687 l 711 816 q 620 854 677 840 q 509 868 562 868 q 406 857 454 868 q 336 826 357 846 q 266 697 291 785 q 241 474 241 609 q 267 296 241 379 q 343 164 292 213 q 442 100 390 117 q 553 82 494 82 q 633 91 590 82 q 700 116 677 100 l 700 348 l 515 395 m 522 1006 q 420 1027 464 1006 q 352 1084 376 1048 q 328 1160 328 1120 q 344 1208 328 1200 l 421 1208 q 456 1124 429 1152 q 522 1096 484 1096 q 586 1124 559 1096 q 621 1208 613 1152 l 699 1208 q 713 1163 713 1196 q 690 1085 713 1121 q 623 1027 667 1049 q 522 1006 579 1006 z "},"Ģ":{"ha":983,"x_min":56,"x_max":965,"o":"m 515 395 l 526 452 l 965 452 l 955 391 l 873 342 l 872 143 q 785 57 840 95 q 663 -2 731 19 q 522 -24 594 -24 q 331 2 409 -24 q 182 92 254 27 q 89 241 121 150 q 56 438 56 332 q 100 677 56 564 q 240 869 144 791 q 373 938 296 914 q 534 962 450 962 q 630 957 581 962 q 720 943 679 952 l 817 952 l 845 701 l 768 687 l 711 816 q 620 854 677 840 q 509 868 562 868 q 406 857 454 868 q 336 826 357 846 q 266 697 291 785 q 241 474 241 609 q 267 296 241 379 q 343 164 292 213 q 442 100 390 117 q 553 82 494 82 q 633 91 590 82 q 700 116 677 100 l 700 348 l 515 395 m 469 -67 q 533 -78 503 -68 q 587 -109 564 -89 q 625 -192 625 -144 q 594 -273 625 -239 q 523 -325 564 -307 q 453 -343 482 -343 l 439 -303 q 507 -249 489 -269 q 526 -212 526 -230 q 447 -159 524 -179 l 469 -67 z "},"H":{"ha":1099,"x_min":42,"x_max":1057,"o":"m 488 59 l 474 0 l 42 0 l 52 58 l 174 101 l 174 838 l 47 884 l 59 939 l 484 939 l 471 878 l 348 834 l 348 519 l 751 519 l 751 836 l 620 881 l 633 939 l 1057 939 l 1047 882 l 924 838 l 924 100 l 1053 55 l 1040 0 l 608 0 l 619 60 l 751 103 l 751 429 q 348 414 537 418 l 348 104 l 488 59 z "},"I":{"ha":526,"x_min":42,"x_max":484,"o":"m 174 102 l 174 838 l 47 883 l 58 939 l 484 939 l 473 882 l 350 837 l 350 102 l 480 56 l 467 0 l 42 0 l 54 58 l 174 102 z "},"Í":{"ha":526,"x_min":42,"x_max":484,"o":"m 174 102 l 174 838 l 47 883 l 58 939 l 484 939 l 473 882 l 350 837 l 350 102 l 480 56 l 467 0 l 42 0 l 54 58 l 174 102 m 134 1084 l 376 1217 l 447 1217 l 467 1109 l 149 1011 l 134 1084 z "},"Î":{"ha":526,"x_min":42,"x_max":484,"o":"m 174 102 l 174 838 l 47 883 l 58 939 l 484 939 l 473 882 l 350 837 l 350 102 l 480 56 l 467 0 l 42 0 l 54 58 l 174 102 m 42 1061 l 226 1216 l 300 1216 l 484 1061 l 433 1013 l 263 1099 l 94 1013 l 42 1061 z "},"Ï":{"ha":526,"x_min":31,"x_max":493,"o":"m 174 102 l 174 838 l 47 883 l 58 939 l 484 939 l 473 882 l 350 837 l 350 102 l 480 56 l 467 0 l 42 0 l 54 58 l 174 102 m 327 1076 q 326 1084 326 1078 q 335 1122 326 1099 q 357 1165 344 1146 q 381 1188 370 1185 q 389 1190 385 1190 q 426 1180 403 1190 q 469 1158 450 1171 q 492 1135 488 1145 q 493 1127 493 1133 q 484 1089 493 1113 q 463 1046 475 1065 q 438 1022 450 1026 q 431 1021 436 1021 q 394 1030 417 1021 q 351 1053 370 1040 q 327 1076 331 1065 m 33 1076 q 31 1084 31 1080 q 40 1123 31 1099 q 62 1165 50 1146 q 87 1188 75 1184 q 94 1189 89 1189 q 131 1180 107 1189 q 174 1158 154 1171 q 197 1135 193 1145 q 198 1127 198 1133 q 189 1089 198 1112 q 168 1046 180 1065 q 143 1022 155 1026 q 136 1021 141 1021 q 99 1030 122 1021 q 56 1053 75 1040 q 33 1076 37 1065 z "},"İ":{"ha":526,"x_min":42,"x_max":484,"o":"m 174 102 l 174 838 l 47 883 l 58 939 l 484 939 l 473 882 l 350 837 l 350 102 l 480 56 l 467 0 l 42 0 l 54 58 l 174 102 m 223 1031 q 198 1070 211 1037 q 185 1128 185 1103 q 188 1144 185 1139 q 228 1169 195 1156 q 285 1182 261 1182 q 300 1179 295 1182 q 325 1140 312 1173 q 338 1082 338 1106 q 336 1067 338 1072 q 295 1041 329 1055 q 238 1028 262 1028 q 223 1031 229 1028 z "},"Ì":{"ha":526,"x_min":42,"x_max":484,"o":"m 174 102 l 174 838 l 47 883 l 58 939 l 484 939 l 473 882 l 350 837 l 350 102 l 480 56 l 467 0 l 42 0 l 54 58 l 174 102 m 96 1109 l 117 1217 l 187 1217 l 429 1084 l 414 1011 l 96 1109 z "},"Ī":{"ha":526,"x_min":42,"x_max":484,"o":"m 174 102 l 174 838 l 47 883 l 58 939 l 484 939 l 473 882 l 350 837 l 350 102 l 480 56 l 467 0 l 42 0 l 54 58 l 174 102 m 81 1145 l 463 1145 l 444 1049 q 256 1043 369 1045 q 60 1041 144 1041 l 81 1145 z "},"Į":{"ha":526,"x_min":43,"x_max":484,"o":"m 174 101 l 174 838 l 47 884 l 58 939 l 484 939 l 473 881 l 350 838 l 350 100 l 480 56 l 468 0 q 368 -43 412 -13 q 299 -106 324 -73 q 275 -160 275 -140 q 289 -204 275 -182 q 327 -237 304 -227 q 350 -241 336 -241 q 400 -233 370 -241 q 460 -212 431 -224 l 477 -240 q 422 -286 446 -268 q 366 -317 399 -303 q 296 -330 334 -330 q 221 -315 256 -330 q 164 -268 186 -299 q 143 -192 143 -237 q 168 -111 143 -146 q 230 -51 193 -75 q 319 0 267 -26 l 43 0 l 53 58 l 174 101 z "},"J":{"ha":501,"x_min":27,"x_max":471,"o":"m 27 883 l 39 939 l 471 939 l 460 881 l 347 838 l 347 300 q 327 83 347 165 q 256 -67 308 1 q 100 -224 205 -136 l 56 -193 q 129 -16 87 -126 q 170 119 170 94 l 170 838 l 27 883 z "},"K":{"ha":1008,"x_min":43,"x_max":1007,"o":"m 174 101 l 174 838 l 47 884 l 60 939 l 475 939 l 465 880 l 350 837 l 350 106 l 487 61 l 473 0 l 43 0 l 54 58 l 174 101 m 879 103 l 1007 55 l 995 0 l 677 0 l 688 52 l 396 476 l 698 840 l 584 885 l 597 939 l 994 939 l 981 880 l 865 839 l 577 509 l 879 103 z "},"Ķ":{"ha":1008,"x_min":43,"x_max":1007,"o":"m 174 101 l 174 838 l 47 884 l 60 939 l 475 939 l 465 880 l 350 837 l 350 106 l 487 61 l 473 0 l 43 0 l 54 58 l 174 101 m 879 103 l 1007 55 l 995 0 l 677 0 l 688 52 l 396 476 l 698 840 l 584 885 l 597 939 l 994 939 l 981 880 l 865 839 l 577 509 l 879 103 m 437 -67 q 501 -78 471 -68 q 555 -109 532 -89 q 593 -192 593 -144 q 563 -273 593 -239 q 491 -325 532 -307 q 421 -343 450 -343 l 407 -303 q 475 -249 457 -269 q 494 -212 494 -230 q 415 -159 492 -179 l 437 -67 z "},"L":{"ha":831,"x_min":43,"x_max":831,"o":"m 765 239 l 831 227 l 779 0 l 43 0 l 53 58 l 174 102 l 174 840 l 47 882 l 59 939 l 488 939 l 477 880 l 350 836 l 350 68 l 679 109 l 765 239 z "},"Ĺ":{"ha":831,"x_min":43,"x_max":831,"o":"m 765 239 l 831 227 l 779 0 l 43 0 l 53 58 l 174 102 l 174 840 l 47 882 l 59 939 l 488 939 l 477 880 l 350 836 l 350 68 l 679 109 l 765 239 m 146 1084 l 389 1217 l 459 1217 l 479 1109 l 161 1011 l 146 1084 z "},"Ľ":{"ha":831,"x_min":43,"x_max":831,"o":"m 576 631 q 652 825 626 731 l 588 852 l 600 931 q 760 949 694 948 q 772 916 769 931 q 776 884 776 901 q 733 748 776 824 q 629 616 691 672 l 576 631 m 765 239 l 831 227 l 779 0 l 43 0 l 53 58 l 174 102 l 174 840 l 47 882 l 59 939 l 488 939 l 477 880 l 350 836 l 350 68 l 679 109 l 765 239 z "},"Ļ":{"ha":831,"x_min":43,"x_max":831,"o":"m 765 239 l 831 227 l 779 0 l 43 0 l 53 58 l 174 102 l 174 840 l 47 882 l 59 939 l 488 939 l 477 880 l 350 836 l 350 68 l 679 109 l 765 239 m 351 -67 q 414 -78 384 -68 q 468 -109 445 -89 q 506 -192 506 -144 q 476 -273 506 -239 q 405 -325 446 -307 q 334 -343 363 -343 l 320 -303 q 389 -249 370 -269 q 407 -212 407 -230 q 328 -159 406 -179 l 351 -67 z "},"Ł":{"ha":831,"x_min":14,"x_max":831,"o":"m 831 227 l 779 0 l 43 0 l 53 58 l 174 102 l 174 370 l 37 307 l 14 417 l 174 489 l 174 840 l 47 882 l 59 939 l 488 939 l 477 880 l 350 836 l 350 568 l 667 709 l 692 608 l 350 451 l 350 68 l 679 109 l 765 239 l 831 227 z "},"M":{"ha":1340,"x_min":44,"x_max":1298,"o":"m 49 879 l 62 939 l 359 939 l 679 189 l 975 939 l 1298 939 l 1286 875 l 1165 831 l 1165 100 l 1294 56 l 1282 0 l 861 0 l 871 58 l 991 101 l 991 779 q 865 415 935 602 q 709 17 795 229 l 569 -10 l 260 775 q 278 513 274 667 q 283 125 282 358 l 283 100 l 410 56 l 399 0 l 44 0 l 56 58 l 174 101 l 174 834 l 49 879 z "},"N":{"ha":1054,"x_min":46,"x_max":1022,"o":"m 174 101 l 174 838 l 46 882 l 58 939 l 326 939 l 803 221 q 788 496 791 359 q 785 839 785 633 l 647 882 l 659 939 l 1022 939 l 1012 882 l 897 838 l 897 10 l 753 -17 l 264 727 q 281 449 278 588 q 285 100 285 309 l 425 56 l 412 0 l 47 0 l 58 58 l 174 101 z "},"Ń":{"ha":1054,"x_min":46,"x_max":1022,"o":"m 174 101 l 174 838 l 46 882 l 58 939 l 326 939 l 803 221 q 788 496 791 359 q 785 839 785 633 l 647 882 l 659 939 l 1022 939 l 1012 882 l 897 838 l 897 10 l 753 -17 l 264 727 q 281 449 278 588 q 285 100 285 309 l 425 56 l 412 0 l 47 0 l 58 58 l 174 101 m 395 1084 l 637 1217 l 707 1217 l 728 1109 l 410 1011 l 395 1084 z "},"Ň":{"ha":1054,"x_min":46,"x_max":1022,"o":"m 174 101 l 174 838 l 46 882 l 58 939 l 326 939 l 803 221 q 788 496 791 359 q 785 839 785 633 l 647 882 l 659 939 l 1022 939 l 1012 882 l 897 838 l 897 10 l 753 -17 l 264 727 q 281 449 278 588 q 285 100 285 309 l 425 56 l 412 0 l 47 0 l 58 58 l 174 101 m 302 1178 l 353 1225 l 522 1139 l 692 1225 l 743 1178 l 562 1027 l 484 1027 l 302 1178 z "},"Ņ":{"ha":1054,"x_min":46,"x_max":1022,"o":"m 174 101 l 174 838 l 46 882 l 58 939 l 326 939 l 803 221 q 788 496 791 359 q 785 839 785 633 l 647 882 l 659 939 l 1022 939 l 1012 882 l 897 838 l 897 10 l 753 -17 l 264 727 q 281 449 278 588 q 285 100 285 309 l 425 56 l 412 0 l 47 0 l 58 58 l 174 101 m 462 -67 q 526 -78 495 -68 q 579 -109 556 -89 q 617 -192 617 -144 q 587 -273 617 -239 q 516 -325 557 -307 q 446 -343 475 -343 l 431 -303 q 500 -249 481 -269 q 518 -212 518 -230 q 439 -159 517 -179 l 462 -67 z "},"Ñ":{"ha":1054,"x_min":46,"x_max":1022,"o":"m 174 101 l 174 838 l 46 882 l 58 939 l 326 939 l 803 221 q 788 496 791 359 q 785 839 785 633 l 647 882 l 659 939 l 1022 939 l 1012 882 l 897 838 l 897 10 l 753 -17 l 264 727 q 281 449 278 588 q 285 100 285 309 l 425 56 l 412 0 l 47 0 l 58 58 l 174 101 m 281 1128 q 335 1183 312 1162 q 385 1217 358 1204 q 441 1231 411 1231 q 500 1216 473 1231 q 560 1173 527 1200 q 591 1150 579 1158 q 613 1142 603 1142 q 672 1163 633 1142 q 749 1216 711 1185 l 762 1131 q 682 1056 718 1082 q 603 1029 646 1029 q 544 1044 570 1029 q 486 1086 517 1059 q 453 1111 465 1103 q 432 1118 442 1118 q 370 1096 410 1118 q 298 1044 330 1075 l 281 1128 z "},"O":{"ha":988,"x_min":56,"x_max":933,"o":"m 56 422 q 110 691 56 568 q 269 888 163 814 q 523 962 375 962 q 728 908 635 962 q 878 753 822 854 q 933 517 933 652 q 878 247 933 370 q 718 50 822 123 q 475 -24 614 -24 q 261 30 357 -24 q 111 185 165 84 q 56 422 56 286 m 315 195 q 412 114 354 143 q 536 84 471 84 q 617 97 578 84 q 681 138 656 110 q 730 260 713 175 q 748 418 748 345 q 742 562 748 505 q 716 667 735 618 q 654 765 694 723 q 562 831 614 808 q 454 854 509 854 q 377 844 415 854 q 315 808 340 833 q 273 733 290 783 q 249 625 256 682 q 241 519 241 567 q 256 334 241 414 q 315 195 271 254 z "},"Ó":{"ha":988,"x_min":56,"x_max":933,"o":"m 56 422 q 110 691 56 568 q 269 888 163 814 q 523 962 375 962 q 728 908 635 962 q 878 753 822 854 q 933 517 933 652 q 878 247 933 370 q 718 50 822 123 q 475 -24 614 -24 q 261 30 357 -24 q 111 185 165 84 q 56 422 56 286 m 315 195 q 412 114 354 143 q 536 84 471 84 q 617 97 578 84 q 681 138 656 110 q 730 260 713 175 q 748 418 748 345 q 742 562 748 505 q 716 667 735 618 q 654 765 694 723 q 562 831 614 808 q 454 854 509 854 q 377 844 415 854 q 315 808 340 833 q 273 733 290 783 q 249 625 256 682 q 241 519 241 567 q 256 334 241 414 q 315 195 271 254 m 370 1084 l 612 1217 l 683 1217 l 703 1109 l 385 1011 l 370 1084 z "},"Ô":{"ha":988,"x_min":56,"x_max":933,"o":"m 56 422 q 110 691 56 568 q 269 888 163 814 q 523 962 375 962 q 728 908 635 962 q 878 753 822 854 q 933 517 933 652 q 878 247 933 370 q 718 50 822 123 q 475 -24 614 -24 q 261 30 357 -24 q 111 185 165 84 q 56 422 56 286 m 315 195 q 412 114 354 143 q 536 84 471 84 q 617 97 578 84 q 681 138 656 110 q 730 260 713 175 q 748 418 748 345 q 742 562 748 505 q 716 667 735 618 q 654 765 694 723 q 562 831 614 808 q 454 854 509 854 q 377 844 415 854 q 315 808 340 833 q 273 733 290 783 q 249 625 256 682 q 241 519 241 567 q 256 334 241 414 q 315 195 271 254 m 278 1061 l 462 1216 l 536 1216 l 720 1061 l 669 1013 l 499 1099 l 330 1013 l 278 1061 z "},"Ö":{"ha":988,"x_min":56,"x_max":933,"o":"m 56 422 q 110 691 56 568 q 269 888 163 814 q 523 962 375 962 q 728 908 635 962 q 878 753 822 854 q 933 517 933 652 q 878 247 933 370 q 718 50 822 123 q 475 -24 614 -24 q 261 30 357 -24 q 111 185 165 84 q 56 422 56 286 m 315 195 q 412 114 354 143 q 536 84 471 84 q 617 97 578 84 q 681 138 656 110 q 730 260 713 175 q 748 418 748 345 q 742 562 748 505 q 716 667 735 618 q 654 765 694 723 q 562 831 614 808 q 454 854 509 854 q 377 844 415 854 q 315 808 340 833 q 273 733 290 783 q 249 625 256 682 q 241 519 241 567 q 256 334 241 414 q 315 195 271 254 m 563 1076 q 562 1084 562 1078 q 571 1122 562 1099 q 593 1165 580 1146 q 617 1188 606 1185 q 625 1190 621 1190 q 662 1180 639 1190 q 705 1158 686 1171 q 728 1135 724 1145 q 729 1127 729 1133 q 720 1089 729 1113 q 699 1046 711 1065 q 674 1022 686 1026 q 667 1021 672 1021 q 630 1030 653 1021 q 587 1053 606 1040 q 563 1076 567 1065 m 269 1076 q 267 1084 267 1080 q 276 1123 267 1099 q 298 1165 286 1146 q 323 1188 311 1184 q 330 1189 325 1189 q 367 1180 343 1189 q 410 1158 390 1171 q 433 1135 429 1145 q 434 1127 434 1133 q 425 1089 434 1112 q 404 1046 416 1065 q 379 1022 391 1026 q 372 1021 377 1021 q 335 1030 358 1021 q 292 1053 311 1040 q 269 1076 273 1065 z "},"Ò":{"ha":988,"x_min":56,"x_max":933,"o":"m 56 422 q 110 691 56 568 q 269 888 163 814 q 523 962 375 962 q 728 908 635 962 q 878 753 822 854 q 933 517 933 652 q 878 247 933 370 q 718 50 822 123 q 475 -24 614 -24 q 261 30 357 -24 q 111 185 165 84 q 56 422 56 286 m 315 195 q 412 114 354 143 q 536 84 471 84 q 617 97 578 84 q 681 138 656 110 q 730 260 713 175 q 748 418 748 345 q 742 562 748 505 q 716 667 735 618 q 654 765 694 723 q 562 831 614 808 q 454 854 509 854 q 377 844 415 854 q 315 808 340 833 q 273 733 290 783 q 249 625 256 682 q 241 519 241 567 q 256 334 241 414 q 315 195 271 254 m 332 1109 l 352 1217 l 422 1217 l 664 1084 l 650 1011 l 332 1109 z "},"Ő":{"ha":988,"x_min":56,"x_max":933,"o":"m 56 422 q 110 691 56 568 q 269 888 163 814 q 523 962 375 962 q 728 908 635 962 q 878 753 822 854 q 933 517 933 652 q 878 247 933 370 q 718 50 822 123 q 475 -24 614 -24 q 261 30 357 -24 q 111 185 165 84 q 56 422 56 286 m 315 195 q 412 114 354 143 q 536 84 471 84 q 617 97 578 84 q 681 138 656 110 q 730 260 713 175 q 748 418 748 345 q 742 562 748 505 q 716 667 735 618 q 654 765 694 723 q 562 831 614 808 q 454 854 509 854 q 377 844 415 854 q 315 808 340 833 q 273 733 290 783 q 249 625 256 682 q 241 519 241 567 q 256 334 241 414 q 315 195 271 254 m 436 1226 l 532 1226 l 545 1156 l 351 993 l 314 1087 l 436 1226 m 659 1226 l 754 1226 l 768 1156 l 574 993 l 536 1087 l 659 1226 z "},"Ō":{"ha":988,"x_min":56,"x_max":933,"o":"m 56 422 q 110 691 56 568 q 269 888 163 814 q 523 962 375 962 q 728 908 635 962 q 878 753 822 854 q 933 517 933 652 q 878 247 933 370 q 718 50 822 123 q 475 -24 614 -24 q 261 30 357 -24 q 111 185 165 84 q 56 422 56 286 m 315 195 q 412 114 354 143 q 536 84 471 84 q 617 97 578 84 q 681 138 656 110 q 730 260 713 175 q 748 418 748 345 q 742 562 748 505 q 716 667 735 618 q 654 765 694 723 q 562 831 614 808 q 454 854 509 854 q 377 844 415 854 q 315 808 340 833 q 273 733 290 783 q 249 625 256 682 q 241 519 241 567 q 256 334 241 414 q 315 195 271 254 m 317 1145 l 699 1145 l 680 1049 q 492 1043 605 1045 q 296 1041 380 1041 l 317 1145 z "},"Ø":{"ha":988,"x_min":56,"x_max":933,"o":"m 750 895 q 884 741 835 838 q 933 517 933 644 q 878 247 933 370 q 718 50 822 123 q 475 -24 614 -24 q 375 -13 421 -24 l 334 -113 l 215 -79 l 260 31 q 110 186 165 85 q 56 422 56 287 q 110 691 56 568 q 269 888 163 814 q 523 962 375 962 q 640 946 583 962 l 673 1027 l 791 992 l 750 895 m 307 190 q 320 173 311 184 l 590 827 q 460 858 529 858 q 380 846 420 858 q 315 809 340 834 q 273 733 290 784 q 249 625 256 682 q 241 519 241 567 q 253 328 241 408 q 307 190 266 248 m 681 138 q 730 261 713 176 q 748 418 748 345 q 743 576 748 516 q 720 685 738 637 q 688 744 708 715 l 422 102 q 532 81 475 81 q 615 95 574 81 q 681 138 656 109 z "},"Õ":{"ha":988,"x_min":56,"x_max":933,"o":"m 56 422 q 110 691 56 568 q 269 888 163 814 q 523 962 375 962 q 728 908 635 962 q 878 753 822 854 q 933 517 933 652 q 878 247 933 370 q 718 50 822 123 q 475 -24 614 -24 q 261 30 357 -24 q 111 185 165 84 q 56 422 56 286 m 315 195 q 412 114 354 143 q 536 84 471 84 q 617 97 578 84 q 681 138 656 110 q 730 260 713 175 q 748 418 748 345 q 742 562 748 505 q 716 667 735 618 q 654 765 694 723 q 562 831 614 808 q 454 854 509 854 q 377 844 415 854 q 315 808 340 833 q 273 733 290 783 q 249 625 256 682 q 241 519 241 567 q 256 334 241 414 q 315 195 271 254 m 258 1128 q 311 1183 288 1162 q 361 1217 334 1204 q 417 1231 387 1231 q 476 1216 450 1231 q 536 1173 503 1200 q 567 1150 555 1158 q 589 1142 579 1142 q 648 1163 609 1142 q 725 1216 687 1185 l 739 1131 q 658 1056 694 1082 q 579 1029 622 1029 q 520 1044 547 1029 q 462 1086 494 1059 q 430 1111 441 1103 q 408 1118 418 1118 q 346 1096 387 1118 q 274 1044 306 1075 l 258 1128 z "},"Œ":{"ha":1337,"x_min":56,"x_max":1306,"o":"m 620 0 q 475 -24 549 -24 q 261 30 357 -24 q 111 185 165 84 q 56 422 56 286 q 110 691 56 568 q 269 888 163 814 q 523 962 375 962 q 663 939 595 962 l 1141 939 l 1232 947 l 1256 709 l 1183 693 l 1116 840 l 833 879 l 833 503 q 919 516 869 510 q 1004 523 968 522 l 1046 637 l 1103 623 l 1091 310 l 1033 320 l 1004 429 q 920 434 970 429 q 833 447 869 439 l 833 67 l 1158 109 l 1241 238 l 1306 227 l 1254 0 l 620 0 m 536 84 q 600 92 568 84 q 657 117 632 100 l 657 778 q 564 835 617 815 q 454 854 511 854 q 378 844 415 854 q 315 808 340 833 q 273 733 290 783 q 249 625 256 682 q 241 519 241 567 q 256 334 241 414 q 315 195 271 254 q 413 114 355 143 q 536 84 471 84 z "},"P":{"ha":837,"x_min":41,"x_max":806,"o":"m 174 101 l 174 838 l 47 883 l 58 939 l 366 939 q 501 935 447 939 q 609 918 555 932 q 705 875 663 904 q 779 788 752 842 q 806 661 806 733 q 779 545 806 597 q 703 458 751 493 q 578 405 651 422 q 435 389 505 389 l 443 433 q 552 495 515 467 q 608 563 590 524 q 625 666 625 602 q 549 831 625 779 q 351 884 473 882 l 351 100 l 514 56 l 503 0 l 41 0 l 54 58 l 174 101 z "},"Þ":{"ha":840,"x_min":42,"x_max":806,"o":"m 729 695 q 806 498 806 627 q 779 381 806 434 q 703 296 751 329 q 578 242 650 259 q 434 225 507 225 l 443 271 q 552 332 514 302 q 608 402 591 361 q 625 505 625 442 q 550 667 625 616 q 350 721 474 718 l 350 102 l 508 56 l 495 0 l 42 0 l 54 58 l 174 102 l 174 838 l 47 883 l 58 939 l 484 939 l 473 882 l 350 837 l 350 776 q 515 770 449 775 q 636 747 582 764 q 729 695 690 729 z "},"Q":{"ha":989,"x_min":56,"x_max":933,"o":"m 933 517 q 878 247 933 370 q 722 52 822 123 l 932 -174 l 907 -219 q 800 -192 864 -219 q 669 -118 736 -164 q 549 -18 602 -71 q 475 -24 514 -24 q 261 30 357 -24 q 111 185 165 84 q 56 422 56 286 q 110 691 56 568 q 269 888 163 814 q 523 962 375 962 q 728 908 635 962 q 878 753 822 854 q 933 517 933 652 m 315 195 q 412 114 354 143 q 536 84 471 84 q 617 97 578 84 q 681 138 656 110 q 730 260 713 175 q 748 418 748 345 q 742 562 748 505 q 716 667 735 618 q 654 765 694 723 q 562 831 614 808 q 454 854 509 854 q 377 844 415 854 q 315 808 340 833 q 273 733 290 783 q 249 625 256 682 q 241 519 241 567 q 256 334 241 414 q 315 195 271 254 z "},"R":{"ha":934,"x_min":43,"x_max":941,"o":"m 174 101 l 174 838 l 47 883 l 59 939 l 388 939 q 573 926 493 939 q 716 871 654 913 q 787 794 761 842 q 812 689 812 747 q 762 545 812 603 q 615 456 712 486 l 813 106 l 941 54 l 928 0 l 637 0 l 648 55 l 436 465 q 557 531 514 494 q 615 606 600 567 q 631 693 631 645 q 589 798 631 756 q 484 860 547 840 q 350 884 420 881 l 350 109 l 487 64 l 471 0 l 43 0 l 53 57 l 174 101 z "},"Ŕ":{"ha":934,"x_min":43,"x_max":941,"o":"m 174 101 l 174 838 l 47 883 l 59 939 l 388 939 q 573 926 493 939 q 716 871 654 913 q 787 794 761 842 q 812 689 812 747 q 762 545 812 603 q 615 456 712 486 l 813 106 l 941 54 l 928 0 l 637 0 l 648 55 l 436 465 q 557 531 514 494 q 615 606 600 567 q 631 693 631 645 q 589 798 631 756 q 484 860 547 840 q 350 884 420 881 l 350 109 l 487 64 l 471 0 l 43 0 l 53 57 l 174 101 m 298 1084 l 541 1217 l 611 1217 l 631 1109 l 313 1011 l 298 1084 z "},"Ř":{"ha":934,"x_min":43,"x_max":941,"o":"m 174 101 l 174 838 l 47 883 l 59 939 l 388 939 q 573 926 493 939 q 716 871 654 913 q 787 794 761 842 q 812 689 812 747 q 762 545 812 603 q 615 456 712 486 l 813 106 l 941 54 l 928 0 l 637 0 l 648 55 l 436 465 q 557 531 514 494 q 615 606 600 567 q 631 693 631 645 q 589 798 631 756 q 484 860 547 840 q 350 884 420 881 l 350 109 l 487 64 l 471 0 l 43 0 l 53 57 l 174 101 m 206 1178 l 256 1225 l 426 1139 l 596 1225 l 646 1178 l 465 1027 l 387 1027 l 206 1178 z "},"Ŗ":{"ha":934,"x_min":43,"x_max":941,"o":"m 174 101 l 174 838 l 47 883 l 59 939 l 388 939 q 573 926 493 939 q 716 871 654 913 q 787 794 761 842 q 812 689 812 747 q 762 545 812 603 q 615 456 712 486 l 813 106 l 941 54 l 928 0 l 637 0 l 648 55 l 436 465 q 557 531 514 494 q 615 606 600 567 q 631 693 631 645 q 589 798 631 756 q 484 860 547 840 q 350 884 420 881 l 350 109 l 487 64 l 471 0 l 43 0 l 53 57 l 174 101 m 410 -67 q 473 -78 443 -68 q 527 -109 504 -89 q 565 -192 565 -144 q 535 -273 565 -239 q 464 -325 505 -307 q 393 -343 422 -343 l 379 -303 q 448 -249 429 -269 q 466 -212 466 -230 q 387 -159 465 -179 l 410 -67 z "},"S":{"ha":753,"x_min":41,"x_max":695,"o":"m 507 876 q 488 877 499 877 q 471 876 476 876 q 337 851 394 873 q 260 799 279 828 q 251 771 254 788 q 247 737 247 754 q 269 668 247 697 q 335 614 292 639 q 459 553 378 589 q 584 487 534 519 q 664 404 633 454 q 695 280 695 353 q 649 120 695 189 q 518 14 602 52 q 323 -24 434 -24 q 164 0 239 -24 q 41 57 88 23 l 94 281 l 176 262 l 192 78 l 220 77 q 262 79 234 77 q 395 100 333 82 q 484 149 458 117 q 505 187 498 165 q 511 235 511 210 q 491 306 511 277 q 436 356 471 334 q 331 412 401 377 q 315 419 328 413 q 189 489 238 455 q 111 575 140 524 q 81 703 81 627 q 126 840 81 781 q 250 931 172 899 q 427 962 329 962 q 575 943 490 962 l 648 945 l 671 699 l 595 682 l 507 876 z "},"Ś":{"ha":753,"x_min":41,"x_max":695,"o":"m 507 876 q 488 877 499 877 q 471 876 476 876 q 337 851 394 873 q 260 799 279 828 q 251 771 254 788 q 247 737 247 754 q 269 668 247 697 q 335 614 292 639 q 459 553 378 589 q 584 487 534 519 q 664 404 633 454 q 695 280 695 353 q 649 120 695 189 q 518 14 602 52 q 323 -24 434 -24 q 164 0 239 -24 q 41 57 88 23 l 94 281 l 176 262 l 192 78 l 220 77 q 262 79 234 77 q 395 100 333 82 q 484 149 458 117 q 505 187 498 165 q 511 235 511 210 q 491 306 511 277 q 436 356 471 334 q 331 412 401 377 q 315 419 328 413 q 189 489 238 455 q 111 575 140 524 q 81 703 81 627 q 126 840 81 781 q 250 931 172 899 q 427 962 329 962 q 575 943 490 962 l 648 945 l 671 699 l 595 682 l 507 876 m 248 1084 l 490 1217 l 561 1217 l 581 1109 l 263 1011 l 248 1084 z "},"Š":{"ha":753,"x_min":41,"x_max":695,"o":"m 507 876 q 488 877 499 877 q 471 876 476 876 q 337 851 394 873 q 260 799 279 828 q 251 771 254 788 q 247 737 247 754 q 269 668 247 697 q 335 614 292 639 q 459 553 378 589 q 584 487 534 519 q 664 404 633 454 q 695 280 695 353 q 649 120 695 189 q 518 14 602 52 q 323 -24 434 -24 q 164 0 239 -24 q 41 57 88 23 l 94 281 l 176 262 l 192 78 l 220 77 q 262 79 234 77 q 395 100 333 82 q 484 149 458 117 q 505 187 498 165 q 511 235 511 210 q 491 306 511 277 q 436 356 471 334 q 331 412 401 377 q 315 419 328 413 q 189 489 238 455 q 111 575 140 524 q 81 703 81 627 q 126 840 81 781 q 250 931 172 899 q 427 962 329 962 q 575 943 490 962 l 648 945 l 671 699 l 595 682 l 507 876 m 156 1178 l 206 1225 l 376 1139 l 546 1225 l 596 1178 l 415 1027 l 337 1027 l 156 1178 z "},"Ş":{"ha":753,"x_min":41,"x_max":695,"o":"m 695 280 q 659 136 695 199 q 555 33 623 73 q 398 -19 488 -7 l 377 -72 q 476 -107 435 -78 q 517 -182 517 -136 q 476 -271 517 -236 q 373 -323 435 -307 q 244 -339 311 -339 l 234 -296 q 367 -235 334 -258 q 400 -195 400 -212 q 361 -158 400 -175 q 252 -126 321 -140 q 316 -24 271 -73 q 160 1 234 -22 q 41 57 87 24 l 94 281 l 176 262 l 192 78 l 220 77 q 262 79 234 77 q 395 100 333 82 q 484 149 458 117 q 505 187 498 165 q 511 235 511 210 q 491 306 511 277 q 436 356 471 334 q 331 412 401 377 q 315 419 328 413 q 189 489 238 455 q 111 575 140 524 q 81 703 81 627 q 126 840 81 781 q 250 931 172 899 q 427 962 329 962 q 575 943 490 962 l 648 945 l 671 699 l 595 682 l 507 876 q 488 877 499 877 q 471 876 476 876 q 337 851 394 873 q 260 799 279 828 q 251 771 254 788 q 247 737 247 754 q 269 668 247 697 q 335 614 292 639 q 459 553 378 589 q 584 487 534 519 q 664 404 633 454 q 695 280 695 353 z "},"Ș":{"ha":753,"x_min":41,"x_max":695,"o":"m 507 876 q 488 877 499 877 q 471 876 476 876 q 337 851 394 873 q 260 799 279 828 q 251 771 254 788 q 247 737 247 754 q 269 668 247 697 q 335 614 292 639 q 459 553 378 589 q 584 487 534 519 q 664 404 633 454 q 695 280 695 353 q 649 120 695 189 q 518 14 602 52 q 323 -24 434 -24 q 164 0 239 -24 q 41 57 88 23 l 94 281 l 176 262 l 192 78 l 220 77 q 262 79 234 77 q 395 100 333 82 q 484 149 458 117 q 505 187 498 165 q 511 235 511 210 q 491 306 511 277 q 436 356 471 334 q 331 412 401 377 q 315 419 328 413 q 189 489 238 455 q 111 575 140 524 q 81 703 81 627 q 126 840 81 781 q 250 931 172 899 q 427 962 329 962 q 575 943 490 962 l 648 945 l 671 699 l 595 682 l 507 876 m 310 -67 q 374 -78 343 -68 q 427 -109 404 -89 q 465 -192 465 -144 q 435 -273 465 -239 q 364 -325 405 -307 q 294 -343 323 -343 l 279 -303 q 348 -249 330 -269 q 366 -212 366 -230 q 288 -159 365 -179 l 310 -67 z "},"T":{"ha":946,"x_min":5,"x_max":932,"o":"m 384 104 l 384 873 l 174 846 l 81 675 l 5 690 l 61 945 l 151 939 l 817 939 l 903 947 l 932 688 l 856 671 l 776 845 l 557 874 l 557 104 l 711 61 l 699 0 l 237 0 l 250 61 l 384 104 z "},"Ť":{"ha":946,"x_min":5,"x_max":932,"o":"m 384 104 l 384 873 l 174 846 l 81 675 l 5 690 l 61 945 l 151 939 l 817 939 l 903 947 l 932 688 l 856 671 l 776 845 l 557 874 l 557 104 l 711 61 l 699 0 l 237 0 l 250 61 l 384 104 m 254 1178 l 304 1225 l 473 1139 l 644 1225 l 694 1178 l 513 1027 l 435 1027 l 254 1178 z "},"Ț":{"ha":946,"x_min":5,"x_max":932,"o":"m 384 104 l 384 873 l 174 846 l 81 675 l 5 690 l 61 945 l 151 939 l 817 939 l 903 947 l 932 688 l 856 671 l 776 845 l 557 874 l 557 104 l 711 61 l 699 0 l 237 0 l 250 61 l 384 104 m 404 -67 q 468 -78 437 -68 q 522 -109 498 -89 q 559 -192 559 -144 q 529 -273 559 -239 q 458 -325 499 -307 q 388 -343 417 -343 l 374 -303 q 442 -249 424 -269 q 460 -212 460 -230 q 382 -159 459 -179 l 404 -67 z "},"U":{"ha":1029,"x_min":31,"x_max":1004,"o":"m 320 363 q 352 219 320 283 q 441 120 383 156 q 578 84 500 84 q 654 96 620 84 q 713 133 689 109 q 773 323 773 194 l 773 837 l 640 883 l 651 939 l 1004 939 l 994 881 l 890 836 l 890 335 q 845 142 890 222 q 715 19 801 62 q 506 -24 629 -24 q 237 66 327 -24 q 146 318 146 156 l 146 838 l 31 884 l 42 939 l 465 939 l 450 869 l 320 831 l 320 363 z "},"Ú":{"ha":1029,"x_min":31,"x_max":1004,"o":"m 320 363 q 352 219 320 283 q 441 120 383 156 q 578 84 500 84 q 654 96 620 84 q 713 133 689 109 q 773 323 773 194 l 773 837 l 640 883 l 651 939 l 1004 939 l 994 881 l 890 836 l 890 335 q 845 142 890 222 q 715 19 801 62 q 506 -24 629 -24 q 237 66 327 -24 q 146 318 146 156 l 146 838 l 31 884 l 42 939 l 465 939 l 450 869 l 320 831 l 320 363 m 417 1084 l 659 1217 l 730 1217 l 750 1109 l 432 1011 l 417 1084 z "},"Û":{"ha":1029,"x_min":31,"x_max":1004,"o":"m 320 363 q 352 219 320 283 q 441 120 383 156 q 578 84 500 84 q 654 96 620 84 q 713 133 689 109 q 773 323 773 194 l 773 837 l 640 883 l 651 939 l 1004 939 l 994 881 l 890 836 l 890 335 q 845 142 890 222 q 715 19 801 62 q 506 -24 629 -24 q 237 66 327 -24 q 146 318 146 156 l 146 838 l 31 884 l 42 939 l 465 939 l 450 869 l 320 831 l 320 363 m 325 1061 l 509 1216 l 583 1216 l 767 1061 l 715 1013 l 546 1099 l 376 1013 l 325 1061 z "},"Ü":{"ha":1029,"x_min":31,"x_max":1004,"o":"m 320 363 q 352 219 320 283 q 441 120 383 156 q 578 84 500 84 q 654 96 620 84 q 713 133 689 109 q 773 323 773 194 l 773 837 l 640 883 l 651 939 l 1004 939 l 994 881 l 890 836 l 890 335 q 845 142 890 222 q 715 19 801 62 q 506 -24 629 -24 q 237 66 327 -24 q 146 318 146 156 l 146 838 l 31 884 l 42 939 l 465 939 l 450 869 l 320 831 l 320 363 m 610 1076 q 609 1084 609 1078 q 618 1122 609 1099 q 640 1165 627 1146 q 664 1188 652 1185 q 671 1190 668 1190 q 709 1180 686 1190 q 752 1158 732 1171 q 775 1135 771 1145 q 776 1127 776 1133 q 767 1089 776 1113 q 745 1046 758 1065 q 721 1022 732 1026 q 714 1021 719 1021 q 676 1030 700 1021 q 633 1053 653 1040 q 610 1076 614 1065 m 315 1076 q 314 1084 314 1080 q 323 1123 314 1099 q 345 1165 332 1146 q 370 1188 358 1184 q 376 1189 372 1189 q 413 1180 390 1189 q 456 1158 437 1171 q 480 1135 476 1145 q 481 1127 481 1133 q 472 1089 481 1112 q 450 1046 463 1065 q 426 1022 437 1026 q 419 1021 424 1021 q 381 1030 405 1021 q 339 1053 358 1040 q 315 1076 319 1065 z "},"Ù":{"ha":1029,"x_min":31,"x_max":1004,"o":"m 320 363 q 352 219 320 283 q 441 120 383 156 q 578 84 500 84 q 654 96 620 84 q 713 133 689 109 q 773 323 773 194 l 773 837 l 640 883 l 651 939 l 1004 939 l 994 881 l 890 836 l 890 335 q 845 142 890 222 q 715 19 801 62 q 506 -24 629 -24 q 237 66 327 -24 q 146 318 146 156 l 146 838 l 31 884 l 42 939 l 465 939 l 450 869 l 320 831 l 320 363 m 378 1109 l 399 1217 l 469 1217 l 711 1084 l 696 1011 l 378 1109 z "},"Ű":{"ha":1029,"x_min":31,"x_max":1004,"o":"m 320 363 q 352 219 320 283 q 441 120 383 156 q 578 84 500 84 q 654 96 620 84 q 713 133 689 109 q 773 323 773 194 l 773 837 l 640 883 l 651 939 l 1004 939 l 994 881 l 890 836 l 890 335 q 845 142 890 222 q 715 19 801 62 q 506 -24 629 -24 q 237 66 327 -24 q 146 318 146 156 l 146 838 l 31 884 l 42 939 l 465 939 l 450 869 l 320 831 l 320 363 m 483 1226 l 578 1226 l 592 1156 l 397 993 l 361 1087 l 483 1226 m 705 1226 l 801 1226 l 814 1156 l 621 993 l 583 1087 l 705 1226 z "},"Ū":{"ha":1029,"x_min":31,"x_max":1004,"o":"m 320 363 q 352 219 320 283 q 441 120 383 156 q 578 84 500 84 q 654 96 620 84 q 713 133 689 109 q 773 323 773 194 l 773 837 l 640 883 l 651 939 l 1004 939 l 994 881 l 890 836 l 890 335 q 845 142 890 222 q 715 19 801 62 q 506 -24 629 -24 q 237 66 327 -24 q 146 318 146 156 l 146 838 l 31 884 l 42 939 l 465 939 l 450 869 l 320 831 l 320 363 m 364 1145 l 745 1145 l 727 1049 q 539 1043 652 1045 q 343 1041 427 1041 l 364 1145 z "},"Ų":{"ha":1029,"x_min":27,"x_max":1005,"o":"m 321 363 q 352 219 321 283 q 442 120 384 156 q 578 84 500 84 q 725 146 677 84 q 773 323 773 209 l 773 837 l 639 883 l 652 939 l 1005 939 l 992 881 l 890 836 l 890 335 q 850 149 890 221 q 732 22 810 77 q 619 -73 663 -28 q 576 -157 576 -119 q 590 -204 576 -182 q 627 -236 604 -227 q 650 -241 637 -241 q 703 -232 671 -241 q 761 -210 734 -224 l 778 -239 q 597 -330 688 -330 q 522 -314 556 -330 q 466 -267 487 -298 q 444 -192 444 -236 q 501 -73 444 -127 q 576 -19 529 -45 q 506 -24 547 -24 q 236 66 327 -24 q 144 318 144 157 l 144 838 l 27 884 l 40 939 l 465 939 l 450 869 l 321 831 l 321 363 z "},"Ů":{"ha":1029,"x_min":31,"x_max":1004,"o":"m 320 363 q 352 219 320 283 q 441 120 383 156 q 578 84 500 84 q 654 96 620 84 q 713 133 689 109 q 773 323 773 194 l 773 837 l 640 883 l 651 939 l 1004 939 l 994 881 l 890 836 l 890 335 q 845 142 890 222 q 715 19 801 62 q 506 -24 629 -24 q 237 66 327 -24 q 146 318 146 156 l 146 838 l 31 884 l 42 939 l 465 939 l 450 869 l 320 831 l 320 363 m 541 998 q 476 1013 506 998 q 429 1055 446 1027 q 411 1118 411 1082 q 428 1185 411 1155 q 475 1232 444 1215 q 546 1249 506 1249 q 609 1234 579 1249 q 656 1191 638 1219 q 674 1128 674 1164 q 657 1061 674 1090 q 610 1014 640 1031 q 541 998 580 998 m 547 1069 q 580 1083 568 1069 q 592 1118 592 1097 q 577 1161 592 1143 q 536 1179 562 1179 q 504 1164 517 1179 q 492 1129 492 1149 q 506 1087 492 1105 q 547 1069 520 1069 z "},"V":{"ha":941,"x_min":-22,"x_max":961,"o":"m 744 843 l 623 876 l 635 939 l 961 939 l 949 876 l 859 841 l 562 0 l 401 -24 l 73 841 l -22 875 l -10 939 l 397 939 l 386 877 l 275 840 l 526 137 l 744 843 z "},"W":{"ha":1428,"x_min":-8,"x_max":1447,"o":"m 1447 939 l 1436 874 l 1347 841 l 1072 0 l 913 -24 l 715 595 l 516 0 l 355 -24 l 90 841 l -8 874 l 4 939 l 401 939 l 390 876 l 285 840 l 477 151 l 672 731 l 637 842 l 540 878 l 551 939 l 964 939 l 953 875 l 823 840 l 1036 151 l 1234 842 l 1099 875 l 1112 939 l 1447 939 z "},"X":{"ha":950,"x_min":14,"x_max":937,"o":"m 937 60 l 926 0 l 513 0 l 524 58 l 621 99 l 433 380 l 252 98 l 361 56 l 349 0 l 14 0 l 24 63 l 123 99 l 382 456 l 118 841 l 18 871 l 30 939 l 439 939 l 429 880 l 332 840 l 519 554 l 696 840 l 589 884 l 600 939 l 936 939 l 923 873 l 825 841 l 570 478 l 836 96 l 937 60 z "},"Y":{"ha":849,"x_min":-23,"x_max":865,"o":"m 342 100 l 342 378 l 68 841 l -23 875 l -12 939 l 376 939 l 365 879 l 259 839 l 475 462 q 542 619 503 533 q 637 817 582 705 l 648 838 l 524 883 l 535 939 l 865 939 l 854 874 l 763 841 l 515 380 l 515 100 l 652 56 l 641 0 l 214 0 l 224 56 l 342 100 z "},"Ý":{"ha":849,"x_min":-23,"x_max":865,"o":"m 342 100 l 342 378 l 68 841 l -23 875 l -12 939 l 376 939 l 365 879 l 259 839 l 475 462 q 542 619 503 533 q 637 817 582 705 l 648 838 l 524 883 l 535 939 l 865 939 l 854 874 l 763 841 l 515 380 l 515 100 l 652 56 l 641 0 l 214 0 l 224 56 l 342 100 m 307 1084 l 549 1217 l 619 1217 l 640 1109 l 321 1011 l 307 1084 z "},"Ÿ":{"ha":849,"x_min":-23,"x_max":865,"o":"m 342 100 l 342 378 l 68 841 l -23 875 l -12 939 l 376 939 l 365 879 l 259 839 l 475 462 q 542 619 503 533 q 637 817 582 705 l 648 838 l 524 883 l 535 939 l 865 939 l 854 874 l 763 841 l 515 380 l 515 100 l 652 56 l 641 0 l 214 0 l 224 56 l 342 100 m 499 1076 q 498 1084 498 1078 q 507 1122 498 1099 q 529 1165 516 1146 q 553 1188 542 1185 q 561 1190 557 1190 q 598 1180 575 1190 q 641 1158 622 1171 q 665 1135 661 1145 q 665 1127 665 1133 q 656 1089 665 1113 q 635 1046 648 1065 q 610 1022 622 1026 q 604 1021 608 1021 q 566 1030 589 1021 q 523 1053 543 1040 q 499 1076 503 1065 m 205 1076 q 203 1084 203 1080 q 213 1123 203 1099 q 235 1165 222 1146 q 259 1188 248 1184 q 266 1189 261 1189 q 303 1180 279 1189 q 346 1158 326 1171 q 370 1135 366 1145 q 370 1127 370 1133 q 361 1089 370 1112 q 340 1046 353 1065 q 315 1022 327 1026 q 309 1021 313 1021 q 271 1030 294 1021 q 228 1053 248 1040 q 205 1076 209 1065 z "},"Z":{"ha":860,"x_min":39,"x_max":815,"o":"m 743 258 l 815 244 l 760 0 l 78 0 l 39 102 l 611 869 l 214 836 l 144 687 l 65 702 l 98 945 l 216 939 l 780 939 l 808 855 l 233 79 l 658 112 l 743 258 z "},"Ź":{"ha":860,"x_min":39,"x_max":815,"o":"m 743 258 l 815 244 l 760 0 l 78 0 l 39 102 l 611 869 l 214 836 l 144 687 l 65 702 l 98 945 l 216 939 l 780 939 l 808 855 l 233 79 l 658 112 l 743 258 m 311 1084 l 553 1217 l 623 1217 l 644 1109 l 326 1011 l 311 1084 z "},"Ž":{"ha":860,"x_min":39,"x_max":815,"o":"m 743 258 l 815 244 l 760 0 l 78 0 l 39 102 l 611 869 l 214 836 l 144 687 l 65 702 l 98 945 l 216 939 l 780 939 l 808 855 l 233 79 l 658 112 l 743 258 m 219 1178 l 269 1225 l 439 1139 l 609 1225 l 659 1178 l 478 1027 l 400 1027 l 219 1178 z "},"Ż":{"ha":860,"x_min":39,"x_max":815,"o":"m 743 258 l 815 244 l 760 0 l 78 0 l 39 102 l 611 869 l 214 836 l 144 687 l 65 702 l 98 945 l 216 939 l 780 939 l 808 855 l 233 79 l 658 112 l 743 258 m 399 1031 q 374 1070 387 1037 q 361 1128 361 1103 q 364 1144 361 1139 q 404 1169 371 1156 q 461 1182 437 1182 q 476 1179 471 1182 q 502 1140 488 1173 q 515 1082 515 1106 q 512 1067 515 1072 q 472 1041 505 1055 q 414 1028 438 1028 q 399 1031 405 1028 z "},"a":{"ha":703,"x_min":42,"x_max":703,"o":"m 42 163 q 66 269 42 229 q 144 331 90 308 q 232 354 180 347 q 333 361 283 361 q 421 356 379 361 l 421 393 q 409 505 421 454 q 362 577 397 555 q 329 589 349 585 q 286 593 308 593 q 245 589 266 593 l 224 469 q 195 450 212 458 q 168 442 179 442 q 126 458 151 442 q 83 497 101 474 q 65 541 65 520 q 88 576 65 558 q 142 608 111 593 q 275 647 198 632 q 393 661 352 661 q 540 607 494 661 q 585 457 585 552 l 585 133 q 703 63 625 83 l 694 24 q 519 -17 612 -15 q 485 42 503 16 q 439 90 467 68 q 387 39 420 63 q 313 -1 354 14 q 228 -17 271 -17 q 121 10 163 -17 q 61 79 79 37 q 42 163 42 120 m 260 86 q 281 79 267 79 q 352 90 309 79 q 421 112 395 100 l 421 312 q 318 294 362 305 q 249 270 274 282 q 216 248 224 257 q 205 204 205 234 q 222 135 205 172 q 260 86 238 98 z "},"á":{"ha":703,"x_min":42,"x_max":703,"o":"m 42 163 q 66 269 42 229 q 144 331 90 308 q 232 354 180 347 q 333 361 283 361 q 421 356 379 361 l 421 393 q 409 505 421 454 q 362 577 397 555 q 329 589 349 585 q 286 593 308 593 q 245 589 266 593 l 224 469 q 195 450 212 458 q 168 442 179 442 q 126 458 151 442 q 83 497 101 474 q 65 541 65 520 q 88 576 65 558 q 142 608 111 593 q 275 647 198 632 q 393 661 352 661 q 540 607 494 661 q 585 457 585 552 l 585 133 q 703 63 625 83 l 694 24 q 519 -17 612 -15 q 485 42 503 16 q 439 90 467 68 q 387 39 420 63 q 313 -1 354 14 q 228 -17 271 -17 q 121 10 163 -17 q 61 79 79 37 q 42 163 42 120 m 260 86 q 281 79 267 79 q 352 90 309 79 q 421 112 395 100 l 421 312 q 318 294 362 305 q 249 270 274 282 q 216 248 224 257 q 205 204 205 234 q 222 135 205 172 q 260 86 238 98 m 406 988 l 475 988 l 497 875 l 226 715 l 209 808 l 406 988 z "},"ă":{"ha":703,"x_min":42,"x_max":703,"o":"m 42 163 q 66 269 42 229 q 144 331 90 308 q 232 354 180 347 q 333 361 283 361 q 421 356 379 361 l 421 393 q 409 505 421 454 q 362 577 397 555 q 329 589 349 585 q 286 593 308 593 q 245 589 266 593 l 224 469 q 195 450 212 458 q 168 442 179 442 q 126 458 151 442 q 83 497 101 474 q 65 541 65 520 q 88 576 65 558 q 142 608 111 593 q 275 647 198 632 q 393 661 352 661 q 540 607 494 661 q 585 457 585 552 l 585 133 q 703 63 625 83 l 694 24 q 519 -17 612 -15 q 485 42 503 16 q 439 90 467 68 q 387 39 420 63 q 313 -1 354 14 q 228 -17 271 -17 q 121 10 163 -17 q 61 79 79 37 q 42 163 42 120 m 260 86 q 281 79 267 79 q 352 90 309 79 q 421 112 395 100 l 421 312 q 318 294 362 305 q 249 270 274 282 q 216 248 224 257 q 205 204 205 234 q 222 135 205 172 q 260 86 238 98 m 333 724 q 234 746 279 724 q 161 803 188 767 q 134 880 134 839 q 142 925 134 900 l 230 924 q 269 841 239 867 q 333 814 299 814 q 396 841 367 814 q 435 925 425 867 l 522 925 q 530 881 530 899 q 503 803 530 839 q 432 746 477 767 q 333 724 387 724 z "},"â":{"ha":703,"x_min":42,"x_max":703,"o":"m 42 163 q 66 269 42 229 q 144 331 90 308 q 232 354 180 347 q 333 361 283 361 q 421 356 379 361 l 421 393 q 409 505 421 454 q 362 577 397 555 q 329 589 349 585 q 286 593 308 593 q 245 589 266 593 l 224 469 q 195 450 212 458 q 168 442 179 442 q 126 458 151 442 q 83 497 101 474 q 65 541 65 520 q 88 576 65 558 q 142 608 111 593 q 275 647 198 632 q 393 661 352 661 q 540 607 494 661 q 585 457 585 552 l 585 133 q 703 63 625 83 l 694 24 q 519 -17 612 -15 q 485 42 503 16 q 439 90 467 68 q 387 39 420 63 q 313 -1 354 14 q 228 -17 271 -17 q 121 10 163 -17 q 61 79 79 37 q 42 163 42 120 m 260 86 q 281 79 267 79 q 352 90 309 79 q 421 112 395 100 l 421 312 q 318 294 362 305 q 249 270 274 282 q 216 248 224 257 q 205 204 205 234 q 222 135 205 172 q 260 86 238 98 m 169 733 l 104 773 l 285 949 l 380 949 l 560 773 l 496 733 l 332 830 l 169 733 z "},"ä":{"ha":703,"x_min":42,"x_max":703,"o":"m 42 163 q 66 269 42 229 q 144 331 90 308 q 232 354 180 347 q 333 361 283 361 q 421 356 379 361 l 421 393 q 409 505 421 454 q 362 577 397 555 q 329 589 349 585 q 286 593 308 593 q 245 589 266 593 l 224 469 q 195 450 212 458 q 168 442 179 442 q 126 458 151 442 q 83 497 101 474 q 65 541 65 520 q 88 576 65 558 q 142 608 111 593 q 275 647 198 632 q 393 661 352 661 q 540 607 494 661 q 585 457 585 552 l 585 133 q 703 63 625 83 l 694 24 q 519 -17 612 -15 q 485 42 503 16 q 439 90 467 68 q 387 39 420 63 q 313 -1 354 14 q 228 -17 271 -17 q 121 10 163 -17 q 61 79 79 37 q 42 163 42 120 m 260 86 q 281 79 267 79 q 352 90 309 79 q 421 112 395 100 l 421 312 q 318 294 362 305 q 249 270 274 282 q 216 248 224 257 q 205 204 205 234 q 222 135 205 172 q 260 86 238 98 m 101 833 q 100 844 100 836 q 110 887 100 861 q 136 936 121 914 q 163 962 151 958 q 172 964 168 964 q 213 953 188 964 q 259 927 238 942 q 286 900 281 911 q 287 890 287 895 q 277 846 287 873 q 254 798 268 819 q 228 771 240 776 q 220 770 224 770 q 176 781 203 770 q 127 807 149 791 q 101 833 105 822 m 378 833 q 377 844 377 839 q 387 888 377 862 q 410 936 396 915 q 435 962 423 958 q 444 964 441 964 q 487 953 460 964 q 536 927 514 942 q 564 900 559 912 q 565 890 565 895 q 554 847 565 874 q 529 798 544 820 q 500 771 513 776 q 492 770 495 770 q 451 781 476 770 q 405 807 426 791 q 378 833 383 822 z "},"à":{"ha":703,"x_min":42,"x_max":703,"o":"m 42 163 q 66 269 42 229 q 144 331 90 308 q 232 354 180 347 q 333 361 283 361 q 421 356 379 361 l 421 393 q 409 505 421 454 q 362 577 397 555 q 329 589 349 585 q 286 593 308 593 q 245 589 266 593 l 224 469 q 195 450 212 458 q 168 442 179 442 q 126 458 151 442 q 83 497 101 474 q 65 541 65 520 q 88 576 65 558 q 142 608 111 593 q 275 647 198 632 q 393 661 352 661 q 540 607 494 661 q 585 457 585 552 l 585 133 q 703 63 625 83 l 694 24 q 519 -17 612 -15 q 485 42 503 16 q 439 90 467 68 q 387 39 420 63 q 313 -1 354 14 q 228 -17 271 -17 q 121 10 163 -17 q 61 79 79 37 q 42 163 42 120 m 260 86 q 281 79 267 79 q 352 90 309 79 q 421 112 395 100 l 421 312 q 318 294 362 305 q 249 270 274 282 q 216 248 224 257 q 205 204 205 234 q 222 135 205 172 q 260 86 238 98 m 175 875 l 197 988 l 267 988 l 464 807 l 448 715 l 175 875 z "},"ā":{"ha":703,"x_min":42,"x_max":703,"o":"m 42 163 q 66 269 42 229 q 144 331 90 308 q 232 354 180 347 q 333 361 283 361 q 421 356 379 361 l 421 393 q 409 505 421 454 q 362 577 397 555 q 329 589 349 585 q 286 593 308 593 q 245 589 266 593 l 224 469 q 195 450 212 458 q 168 442 179 442 q 126 458 151 442 q 83 497 101 474 q 65 541 65 520 q 88 576 65 558 q 142 608 111 593 q 275 647 198 632 q 393 661 352 661 q 540 607 494 661 q 585 457 585 552 l 585 133 q 703 63 625 83 l 694 24 q 519 -17 612 -15 q 485 42 503 16 q 439 90 467 68 q 387 39 420 63 q 313 -1 354 14 q 228 -17 271 -17 q 121 10 163 -17 q 61 79 79 37 q 42 163 42 120 m 260 86 q 281 79 267 79 q 352 90 309 79 q 421 112 395 100 l 421 312 q 318 294 362 305 q 249 270 274 282 q 216 248 224 257 q 205 204 205 234 q 222 135 205 172 q 260 86 238 98 m 163 884 l 524 884 l 504 780 q 140 772 349 772 l 163 884 z "},"ą":{"ha":704,"x_min":42,"x_max":703,"o":"m 42 163 q 66 269 42 229 q 144 331 90 308 q 232 354 180 347 q 331 361 283 361 q 421 356 379 361 l 421 393 q 409 505 421 454 q 362 577 397 555 q 329 589 349 585 q 286 593 308 593 q 245 589 266 593 l 224 469 q 195 450 212 458 q 168 442 179 442 q 126 458 151 442 q 83 497 101 474 q 65 541 65 520 q 88 576 65 558 q 142 608 111 593 q 275 647 198 632 q 393 661 352 661 q 540 607 494 661 q 585 457 585 552 l 585 137 q 630 93 600 111 q 703 64 659 75 l 693 22 q 512 -57 574 -12 q 450 -158 450 -103 q 463 -201 450 -180 q 494 -233 475 -223 q 526 -241 511 -241 q 577 -233 547 -241 q 636 -212 608 -224 l 652 -240 q 471 -330 562 -330 q 396 -315 431 -330 q 340 -268 361 -299 q 319 -193 319 -237 q 372 -75 319 -125 q 505 7 426 -26 q 439 90 467 74 q 350 15 408 47 q 222 -17 291 -17 q 120 11 161 -17 q 61 79 80 38 q 42 163 42 121 m 260 86 q 281 79 267 79 q 352 90 309 79 q 421 112 395 100 l 421 312 q 318 294 362 305 q 249 270 274 282 q 216 248 224 257 q 205 200 205 234 q 222 134 205 168 q 260 86 238 99 z "},"å":{"ha":703,"x_min":42,"x_max":703,"o":"m 42 163 q 66 269 42 229 q 144 331 90 308 q 232 354 180 347 q 333 361 283 361 q 421 356 379 361 l 421 393 q 409 505 421 454 q 362 577 397 555 q 329 589 349 585 q 286 593 308 593 q 245 589 266 593 l 224 469 q 195 450 212 458 q 168 442 179 442 q 126 458 151 442 q 83 497 101 474 q 65 541 65 520 q 88 576 65 558 q 142 608 111 593 q 275 647 198 632 q 393 661 352 661 q 540 607 494 661 q 585 457 585 552 l 585 133 q 703 63 625 83 l 694 24 q 519 -17 612 -15 q 485 42 503 16 q 439 90 467 68 q 387 39 420 63 q 313 -1 354 14 q 228 -17 271 -17 q 121 10 163 -17 q 61 79 79 37 q 42 163 42 120 m 260 86 q 281 79 267 79 q 352 90 309 79 q 421 112 395 100 l 421 312 q 318 294 362 305 q 249 270 274 282 q 216 248 224 257 q 205 204 205 234 q 222 135 205 172 q 260 86 238 98 m 331 714 q 259 731 292 714 q 209 778 227 747 q 190 848 190 808 q 208 922 190 888 q 259 976 227 956 q 336 996 292 996 q 405 979 373 996 q 456 931 437 962 q 475 861 475 901 q 456 787 475 821 q 405 734 437 753 q 331 714 372 714 m 338 791 q 376 808 361 791 q 391 848 391 825 q 372 899 391 877 q 326 920 353 920 q 288 903 302 920 q 273 862 273 886 q 290 812 273 833 q 338 791 308 791 z "},"ã":{"ha":703,"x_min":42,"x_max":703,"o":"m 42 163 q 66 269 42 229 q 144 331 90 308 q 232 354 180 347 q 333 361 283 361 q 421 356 379 361 l 421 393 q 409 505 421 454 q 362 577 397 555 q 329 589 349 585 q 286 593 308 593 q 245 589 266 593 l 224 469 q 195 450 212 458 q 168 442 179 442 q 126 458 151 442 q 83 497 101 474 q 65 541 65 520 q 88 576 65 558 q 142 608 111 593 q 275 647 198 632 q 393 661 352 661 q 540 607 494 661 q 585 457 585 552 l 585 133 q 703 63 625 83 l 694 24 q 519 -17 612 -15 q 485 42 503 16 q 439 90 467 68 q 387 39 420 63 q 313 -1 354 14 q 228 -17 271 -17 q 121 10 163 -17 q 61 79 79 37 q 42 163 42 120 m 260 86 q 281 79 267 79 q 352 90 309 79 q 421 112 395 100 l 421 312 q 318 294 362 305 q 249 270 274 282 q 216 248 224 257 q 205 204 205 234 q 222 135 205 172 q 260 86 238 98 m 94 863 q 175 937 140 911 q 250 962 210 962 q 309 947 281 962 q 368 907 336 932 q 402 883 391 890 q 422 876 412 876 q 482 896 441 876 q 556 943 522 916 l 571 854 q 518 803 541 823 q 469 769 496 783 q 414 755 442 755 q 356 770 382 755 q 297 811 330 785 q 263 835 274 828 q 243 842 253 842 q 180 822 222 842 q 109 773 139 802 l 94 863 z "},"æ":{"ha":991,"x_min":42,"x_max":949,"o":"m 42 163 q 66 269 42 231 q 146 329 90 306 q 236 351 184 343 q 337 359 289 359 q 418 356 367 359 l 418 390 q 355 577 418 540 q 281 593 329 593 q 242 589 261 593 l 220 469 q 191 450 208 458 q 163 442 175 442 q 122 458 146 442 q 79 497 97 474 q 60 541 60 520 q 83 576 60 558 q 138 608 106 593 q 270 647 195 633 q 386 661 345 661 q 540 595 492 661 q 728 661 618 661 q 847 632 798 661 q 923 554 897 603 q 949 446 949 505 q 928 355 949 401 q 915 337 924 343 q 890 332 906 332 l 561 332 q 588 213 562 270 q 657 122 614 157 q 751 87 701 87 q 840 101 791 87 q 917 129 890 116 l 932 105 q 872 45 909 73 q 791 0 836 18 q 701 -17 747 -17 q 568 10 629 -17 q 465 93 507 37 q 359 15 425 46 q 219 -17 294 -17 q 119 11 159 -17 q 61 79 79 38 q 42 163 42 121 m 798 409 q 780 502 798 463 q 731 562 762 541 q 661 583 700 583 q 606 566 621 583 q 577 497 591 546 q 561 382 564 448 l 798 409 m 260 86 q 281 79 267 79 q 353 90 313 79 q 418 117 394 101 l 418 311 q 316 292 359 304 q 249 267 273 279 q 216 245 224 255 q 208 225 210 237 q 205 200 205 214 q 222 134 205 168 q 260 86 238 99 z "},"b":{"ha":770,"x_min":9,"x_max":718,"o":"m 78 -17 l 47 23 l 109 138 l 109 869 l 9 926 l 15 958 l 273 998 l 273 562 q 381 632 322 603 q 494 661 440 661 q 623 616 572 661 q 695 498 673 570 q 718 344 718 427 q 695 198 718 267 q 629 79 672 129 q 435 -17 546 -17 q 336 3 378 -17 q 254 69 294 23 l 78 -17 m 273 141 q 353 100 305 113 q 448 87 400 87 q 490 91 473 87 q 515 107 506 96 q 546 181 534 124 q 557 294 557 239 q 537 429 557 366 q 480 530 517 492 q 432 551 463 551 q 356 541 407 551 q 273 519 306 531 l 273 141 z "},"c":{"ha":616,"x_min":44,"x_max":591,"o":"m 398 603 q 267 538 316 595 q 222 455 237 502 q 208 359 208 408 q 262 170 208 248 q 325 110 289 132 q 404 88 360 88 q 499 102 441 88 q 577 124 557 115 l 591 102 q 533 47 569 75 q 451 1 498 20 q 353 -17 404 -17 q 185 24 255 -17 q 80 140 116 66 q 44 309 44 214 q 91 498 44 419 q 218 619 138 578 q 395 660 298 660 q 520 637 467 660 q 563 608 545 626 q 581 572 581 590 q 563 527 581 551 q 520 484 545 502 q 479 467 496 467 q 449 475 465 467 q 420 494 432 484 l 398 603 z "},"ć":{"ha":616,"x_min":44,"x_max":591,"o":"m 398 603 q 267 538 316 595 q 222 455 237 502 q 208 359 208 408 q 262 170 208 248 q 325 110 289 132 q 404 88 360 88 q 499 102 441 88 q 577 124 557 115 l 591 102 q 533 47 569 75 q 451 1 498 20 q 353 -17 404 -17 q 185 24 255 -17 q 80 140 116 66 q 44 309 44 214 q 91 498 44 419 q 218 619 138 578 q 395 660 298 660 q 520 637 467 660 q 563 608 545 626 q 581 572 581 590 q 563 527 581 551 q 520 484 545 502 q 479 467 496 467 q 449 475 465 467 q 420 494 432 484 l 398 603 m 414 988 l 483 988 l 505 875 l 233 715 l 216 808 l 414 988 z "},"č":{"ha":616,"x_min":44,"x_max":591,"o":"m 398 603 q 267 538 316 595 q 222 455 237 502 q 208 359 208 408 q 262 170 208 248 q 325 110 289 132 q 404 88 360 88 q 499 102 441 88 q 577 124 557 115 l 591 102 q 533 47 569 75 q 451 1 498 20 q 353 -17 404 -17 q 185 24 255 -17 q 80 140 116 66 q 44 309 44 214 q 91 498 44 419 q 218 619 138 578 q 395 660 298 660 q 520 637 467 660 q 563 608 545 626 q 581 572 581 590 q 563 527 581 551 q 520 484 545 502 q 479 467 496 467 q 449 475 465 467 q 420 494 432 484 l 398 603 m 505 951 l 568 913 l 391 734 l 289 734 l 112 913 l 174 951 l 340 849 l 505 951 z "},"ç":{"ha":616,"x_min":44,"x_max":591,"o":"m 591 102 q 505 28 560 62 q 385 -15 450 -7 l 366 -57 q 457 -99 428 -72 q 487 -173 487 -125 q 446 -258 487 -224 q 347 -307 406 -292 q 236 -322 289 -322 l 222 -279 q 342 -221 313 -245 q 372 -178 372 -197 q 341 -143 372 -157 q 249 -117 311 -129 q 267 -69 250 -99 q 304 -14 284 -39 q 163 39 222 -4 q 74 152 104 83 q 44 309 44 222 q 91 498 44 419 q 218 619 138 578 q 395 660 298 660 q 520 637 467 660 q 563 608 545 626 q 581 572 581 590 q 563 527 581 551 q 520 484 545 502 q 479 467 496 467 q 449 475 465 467 q 420 494 432 484 l 398 603 q 267 538 316 595 q 222 455 237 502 q 208 359 208 408 q 262 170 208 248 q 325 110 289 132 q 404 88 360 88 q 499 102 441 88 q 577 124 557 115 l 591 102 z "},"d":{"ha":788,"x_min":46,"x_max":781,"o":"m 663 132 q 715 89 678 107 q 781 64 752 70 l 772 23 q 693 -2 750 12 q 603 -17 637 -17 q 523 89 569 52 q 432 12 486 41 q 315 -17 377 -17 q 183 16 244 -17 q 84 118 123 48 q 46 296 46 189 q 84 481 46 397 q 189 613 121 564 q 342 661 256 661 q 424 646 384 661 q 499 603 464 631 l 499 869 l 399 926 l 405 957 l 663 998 l 663 132 m 309 114 q 361 88 336 88 q 432 96 394 88 q 499 116 471 104 l 499 477 q 424 539 472 517 q 323 562 375 562 q 275 556 295 562 q 244 530 255 549 q 210 363 210 473 q 239 215 210 281 q 309 114 268 150 z "},"ð":{"ha":755,"x_min":47,"x_max":691,"o":"m 493 877 q 691 365 691 690 q 654 181 691 269 q 543 38 616 94 q 368 -17 470 -17 q 204 18 276 -17 q 90 125 132 53 q 47 304 47 197 q 83 475 47 395 q 186 605 118 555 q 349 654 255 654 q 513 598 446 654 q 372 807 470 720 l 205 702 l 163 795 l 295 866 q 72 970 202 927 l 148 1017 q 273 995 197 1017 q 412 936 349 972 l 559 1029 l 604 937 l 493 877 m 481 96 q 515 174 503 118 q 528 283 528 230 q 504 433 528 368 q 434 534 479 498 q 328 570 389 570 q 249 550 275 570 q 214 481 226 532 q 203 374 203 430 q 224 227 203 294 q 289 117 245 159 q 400 76 334 76 q 448 80 427 76 q 481 96 469 84 z "},"ď":{"ha":892,"x_min":46,"x_max":900,"o":"m 663 132 q 715 89 678 107 q 781 64 752 70 l 772 23 q 693 -2 750 12 q 603 -17 637 -17 q 523 89 569 52 q 432 12 486 41 q 315 -17 377 -17 q 183 16 244 -17 q 84 118 123 48 q 46 296 46 189 q 84 481 46 397 q 189 613 121 564 q 342 661 256 661 q 424 646 384 661 q 499 603 464 631 l 499 869 l 399 926 l 405 957 l 663 998 l 663 132 m 701 673 q 777 867 751 775 l 712 895 l 724 974 q 884 991 820 991 q 897 959 893 974 q 900 927 900 944 q 858 791 900 867 q 753 659 815 715 l 701 673 m 309 114 q 361 88 336 88 q 432 96 394 88 q 499 116 471 104 l 499 477 q 424 539 472 517 q 323 562 375 562 q 275 556 295 562 q 244 530 255 549 q 210 363 210 473 q 239 215 210 281 q 309 114 268 150 z "},"đ":{"ha":785,"x_min":43,"x_max":782,"o":"m 661 132 q 712 89 675 107 q 779 64 749 70 l 770 23 q 691 -2 747 12 q 600 -17 634 -17 q 520 89 565 53 q 429 12 484 41 q 312 -17 374 -17 q 181 16 241 -17 q 82 118 120 48 q 43 296 43 189 q 81 481 43 397 q 186 613 119 564 q 340 661 254 661 q 421 646 381 661 q 496 603 461 631 l 496 734 l 336 733 l 356 821 l 496 819 l 496 869 l 396 926 l 402 957 l 661 998 l 661 819 l 782 821 l 764 736 l 661 736 l 661 132 m 359 88 q 430 96 392 88 q 496 116 468 104 l 496 478 q 421 540 469 517 q 321 562 372 562 q 272 556 292 562 q 241 530 252 549 q 208 363 208 473 q 236 215 208 281 q 307 114 265 150 q 333 95 320 101 q 359 88 345 88 z "},"e":{"ha":659,"x_min":44,"x_max":615,"o":"m 599 343 q 586 325 594 331 q 564 319 578 319 l 204 319 q 236 207 210 260 q 304 122 262 154 q 395 90 345 90 q 497 104 437 90 q 583 127 558 118 l 596 104 q 531 45 571 73 q 441 0 490 18 q 342 -17 391 -17 q 194 17 262 -17 q 85 125 127 52 q 44 310 44 199 q 85 486 44 406 q 201 614 126 566 q 374 661 277 661 q 503 631 448 661 q 586 550 557 602 q 615 436 615 499 q 599 343 615 385 m 471 401 q 446 495 468 456 q 387 554 423 534 q 307 574 350 574 q 250 559 264 574 q 219 489 233 537 q 203 374 205 441 l 471 401 z "},"é":{"ha":659,"x_min":44,"x_max":615,"o":"m 599 343 q 586 325 594 331 q 564 319 578 319 l 204 319 q 236 207 210 260 q 304 122 262 154 q 395 90 345 90 q 497 104 437 90 q 583 127 558 118 l 596 104 q 531 45 571 73 q 441 0 490 18 q 342 -17 391 -17 q 194 17 262 -17 q 85 125 127 52 q 44 310 44 199 q 85 486 44 406 q 201 614 126 566 q 374 661 277 661 q 503 631 448 661 q 586 550 557 602 q 615 436 615 499 q 599 343 615 385 m 471 401 q 446 495 468 456 q 387 554 423 534 q 307 574 350 574 q 250 559 264 574 q 219 489 233 537 q 203 374 205 441 l 471 401 m 416 988 l 486 988 l 507 875 l 236 715 l 219 808 l 416 988 z "},"ě":{"ha":659,"x_min":44,"x_max":615,"o":"m 599 343 q 586 325 594 331 q 564 319 578 319 l 204 319 q 236 207 210 260 q 304 122 262 154 q 395 90 345 90 q 497 104 437 90 q 583 127 558 118 l 596 104 q 531 45 571 73 q 441 0 490 18 q 342 -17 391 -17 q 194 17 262 -17 q 85 125 127 52 q 44 310 44 199 q 85 486 44 406 q 201 614 126 566 q 374 661 277 661 q 503 631 448 661 q 586 550 557 602 q 615 436 615 499 q 599 343 615 385 m 471 401 q 446 495 468 456 q 387 554 423 534 q 307 574 350 574 q 250 559 264 574 q 219 489 233 537 q 203 374 205 441 l 471 401 m 508 951 l 570 913 l 394 734 l 292 734 l 115 913 l 177 951 l 342 849 l 508 951 z "},"ê":{"ha":659,"x_min":44,"x_max":615,"o":"m 599 343 q 586 325 594 331 q 564 319 578 319 l 204 319 q 236 207 210 260 q 304 122 262 154 q 395 90 345 90 q 497 104 437 90 q 583 127 558 118 l 596 104 q 531 45 571 73 q 441 0 490 18 q 342 -17 391 -17 q 194 17 262 -17 q 85 125 127 52 q 44 310 44 199 q 85 486 44 406 q 201 614 126 566 q 374 661 277 661 q 503 631 448 661 q 586 550 557 602 q 615 436 615 499 q 599 343 615 385 m 471 401 q 446 495 468 456 q 387 554 423 534 q 307 574 350 574 q 250 559 264 574 q 219 489 233 537 q 203 374 205 441 l 471 401 m 180 733 l 115 773 l 296 949 l 391 949 l 571 773 l 507 733 l 343 830 l 180 733 z "},"ë":{"ha":659,"x_min":44,"x_max":615,"o":"m 599 343 q 586 325 594 331 q 564 319 578 319 l 204 319 q 236 207 210 260 q 304 122 262 154 q 395 90 345 90 q 497 104 437 90 q 583 127 558 118 l 596 104 q 531 45 571 73 q 441 0 490 18 q 342 -17 391 -17 q 194 17 262 -17 q 85 125 127 52 q 44 310 44 199 q 85 486 44 406 q 201 614 126 566 q 374 661 277 661 q 503 631 448 661 q 586 550 557 602 q 615 436 615 499 q 599 343 615 385 m 471 401 q 446 495 468 456 q 387 554 423 534 q 307 574 350 574 q 250 559 264 574 q 219 489 233 537 q 203 374 205 441 l 471 401 m 112 833 q 111 844 111 836 q 121 887 111 861 q 146 936 132 914 q 174 962 161 958 q 183 964 178 964 q 224 953 199 964 q 270 927 249 942 q 296 900 292 911 q 298 890 298 895 q 288 846 298 873 q 265 798 279 819 q 239 771 251 776 q 231 770 235 770 q 187 781 214 770 q 138 807 160 791 q 112 833 116 822 m 389 833 q 388 844 388 839 q 397 888 388 862 q 420 936 407 915 q 446 962 434 958 q 455 964 452 964 q 498 953 471 964 q 547 927 525 942 q 574 900 570 912 q 576 890 576 895 q 565 847 576 874 q 539 798 555 820 q 511 771 524 776 q 503 770 506 770 q 462 781 487 770 q 415 807 437 791 q 389 833 394 822 z "},"ė":{"ha":659,"x_min":44,"x_max":615,"o":"m 599 343 q 586 325 594 331 q 564 319 578 319 l 204 319 q 236 207 210 260 q 304 122 262 154 q 395 90 345 90 q 497 104 437 90 q 583 127 558 118 l 596 104 q 531 45 571 73 q 441 0 490 18 q 342 -17 391 -17 q 194 17 262 -17 q 85 125 127 52 q 44 310 44 199 q 85 486 44 406 q 201 614 126 566 q 374 661 277 661 q 503 631 448 661 q 586 550 557 602 q 615 436 615 499 q 599 343 615 385 m 471 401 q 446 495 468 456 q 387 554 423 534 q 307 574 350 574 q 250 559 264 574 q 219 489 233 537 q 203 374 205 441 l 471 401 m 300 780 q 279 805 290 785 q 261 850 269 825 q 254 893 254 876 q 256 910 254 905 q 280 930 261 920 q 325 948 300 941 q 368 956 349 956 q 386 952 378 956 q 406 928 395 948 q 424 883 416 908 q 431 841 431 859 q 428 824 431 831 q 403 803 423 814 q 357 785 382 792 q 315 778 332 778 q 300 780 305 778 z "},"è":{"ha":659,"x_min":44,"x_max":615,"o":"m 599 343 q 586 325 594 331 q 564 319 578 319 l 204 319 q 236 207 210 260 q 304 122 262 154 q 395 90 345 90 q 497 104 437 90 q 583 127 558 118 l 596 104 q 531 45 571 73 q 441 0 490 18 q 342 -17 391 -17 q 194 17 262 -17 q 85 125 127 52 q 44 310 44 199 q 85 486 44 406 q 201 614 126 566 q 374 661 277 661 q 503 631 448 661 q 586 550 557 602 q 615 436 615 499 q 599 343 615 385 m 471 401 q 446 495 468 456 q 387 554 423 534 q 307 574 350 574 q 250 559 264 574 q 219 489 233 537 q 203 374 205 441 l 471 401 m 185 875 l 207 988 l 277 988 l 474 807 l 458 715 l 185 875 z "},"ē":{"ha":659,"x_min":44,"x_max":615,"o":"m 599 343 q 586 325 594 331 q 564 319 578 319 l 204 319 q 236 207 210 260 q 304 122 262 154 q 395 90 345 90 q 497 104 437 90 q 583 127 558 118 l 596 104 q 531 45 571 73 q 441 0 490 18 q 342 -17 391 -17 q 194 17 262 -17 q 85 125 127 52 q 44 310 44 199 q 85 486 44 406 q 201 614 126 566 q 374 661 277 661 q 503 631 448 661 q 586 550 557 602 q 615 436 615 499 q 599 343 615 385 m 471 401 q 446 495 468 456 q 387 554 423 534 q 307 574 350 574 q 250 559 264 574 q 219 489 233 537 q 203 374 205 441 l 471 401 m 173 884 l 534 884 l 514 780 q 151 772 359 772 l 173 884 z "},"ę":{"ha":659,"x_min":45,"x_max":615,"o":"m 205 319 q 235 209 210 262 q 302 123 260 156 q 395 90 344 90 q 498 103 441 90 q 583 127 556 117 l 597 104 q 552 62 574 78 q 494 22 530 45 q 461 1 471 9 q 368 -84 399 -45 q 337 -157 337 -123 q 351 -204 337 -181 q 388 -236 366 -227 q 413 -241 400 -241 q 522 -212 452 -241 l 540 -239 q 359 -330 451 -330 q 284 -314 319 -330 q 228 -267 249 -298 q 206 -192 206 -236 q 256 -79 206 -131 q 333 -14 283 -49 q 301 -12 315 -14 q 171 33 229 -3 q 79 138 113 69 q 45 309 45 208 q 86 485 45 404 q 202 614 127 566 q 375 661 277 661 q 503 631 449 661 q 586 550 557 602 q 615 436 615 499 q 600 343 615 386 q 587 325 595 331 q 564 319 578 319 l 205 319 m 471 401 q 446 495 469 456 q 387 554 423 534 q 307 574 351 574 q 251 559 264 574 q 219 489 233 536 q 203 374 205 441 l 471 401 z "},"f":{"ha":525,"x_min":37,"x_max":631,"o":"m 145 96 l 145 543 l 37 585 l 49 644 l 145 644 q 175 846 145 768 q 270 961 205 924 q 438 998 334 998 q 517 992 484 998 q 576 974 549 987 q 615 945 599 963 q 631 910 631 928 q 613 866 631 891 q 571 824 595 842 q 529 806 547 806 q 500 814 516 806 q 470 833 484 823 l 446 951 q 358 897 389 939 q 318 792 328 854 q 309 644 309 731 l 522 644 l 512 591 l 309 544 l 309 89 l 484 50 l 473 0 l 39 0 l 50 56 l 145 96 z "},"g":{"ha":724,"x_min":13,"x_max":725,"o":"m 498 85 q 648 51 602 85 q 694 -53 694 17 q 647 -194 694 -128 q 508 -299 600 -259 q 290 -339 416 -339 q 160 -325 226 -339 q 59 -284 95 -310 q 13 -187 13 -248 q 48 -100 13 -140 q 140 -26 84 -60 q 77 17 100 -12 q 54 83 54 46 q 94 164 54 130 q 187 215 134 197 q 102 286 133 240 q 71 397 71 331 q 103 531 71 471 q 202 626 135 591 q 370 661 269 661 q 453 651 412 661 q 526 620 493 640 q 621 653 570 642 q 712 664 671 664 l 725 636 l 608 528 q 625 444 625 488 q 589 308 625 367 q 488 218 553 250 q 336 186 422 186 q 233 199 284 186 q 198 121 198 142 q 204 106 198 113 q 218 96 210 99 q 291 87 237 89 q 498 85 345 85 m 246 563 q 229 522 235 547 q 222 469 222 497 q 243 371 222 418 q 302 296 264 325 q 389 268 340 268 q 452 288 433 268 q 470 332 464 299 q 476 407 476 364 q 458 497 476 457 q 404 560 440 536 q 316 583 368 583 q 273 578 294 583 q 246 563 253 573 m 520 -210 q 544 -172 532 -200 q 556 -111 556 -144 q 552 -77 556 -90 q 532 -56 547 -64 q 486 -47 517 -47 q 300 -46 368 -47 q 187 -37 233 -44 q 159 -101 172 -67 q 146 -157 146 -134 q 153 -181 146 -173 q 230 -223 170 -206 q 362 -241 289 -241 q 454 -234 410 -241 q 520 -210 498 -227 z "},"ğ":{"ha":724,"x_min":13,"x_max":725,"o":"m 498 85 q 648 51 602 85 q 694 -53 694 17 q 647 -194 694 -128 q 508 -299 600 -259 q 290 -339 416 -339 q 160 -325 226 -339 q 59 -284 95 -310 q 13 -187 13 -248 q 48 -100 13 -140 q 140 -26 84 -60 q 77 17 100 -12 q 54 83 54 46 q 94 164 54 130 q 187 215 134 197 q 102 286 133 240 q 71 397 71 331 q 103 531 71 471 q 202 626 135 591 q 370 661 269 661 q 453 651 412 661 q 526 620 493 640 q 621 653 570 642 q 712 664 671 664 l 725 636 l 608 528 q 625 444 625 488 q 589 308 625 367 q 488 218 553 250 q 336 186 422 186 q 233 199 284 186 q 198 121 198 142 q 204 106 198 113 q 218 96 210 99 q 291 87 237 89 q 498 85 345 85 m 246 563 q 229 522 235 547 q 222 469 222 497 q 243 371 222 418 q 302 296 264 325 q 389 268 340 268 q 452 288 433 268 q 470 332 464 299 q 476 407 476 364 q 458 497 476 457 q 404 560 440 536 q 316 583 368 583 q 273 578 294 583 q 246 563 253 573 m 520 -210 q 544 -172 532 -200 q 556 -111 556 -144 q 552 -77 556 -90 q 532 -56 547 -64 q 486 -47 517 -47 q 300 -46 368 -47 q 187 -37 233 -44 q 159 -101 172 -67 q 146 -157 146 -134 q 153 -181 146 -173 q 230 -223 170 -206 q 362 -241 289 -241 q 454 -234 410 -241 q 520 -210 498 -227 m 354 724 q 255 746 300 724 q 182 803 209 767 q 155 880 155 839 q 163 925 155 900 l 251 924 q 290 841 260 867 q 354 814 320 814 q 417 841 388 814 q 456 925 446 867 l 543 925 q 551 881 551 899 q 524 803 551 839 q 453 746 498 767 q 354 724 408 724 z "},"ģ":{"ha":724,"x_min":13,"x_max":725,"o":"m 285 753 q 247 836 247 788 q 277 917 247 883 q 348 969 307 951 q 419 987 389 987 l 433 947 q 364 893 382 913 q 347 856 346 874 q 425 804 347 823 l 403 711 q 338 723 369 712 q 285 753 308 733 m 498 85 q 648 51 602 85 q 694 -53 694 17 q 647 -194 694 -128 q 508 -299 600 -259 q 290 -339 416 -339 q 160 -325 226 -339 q 59 -284 95 -310 q 13 -187 13 -248 q 48 -100 13 -140 q 140 -26 84 -60 q 77 17 100 -12 q 54 83 54 46 q 94 164 54 130 q 187 215 134 197 q 102 286 133 240 q 71 397 71 331 q 103 531 71 471 q 202 626 135 591 q 370 661 269 661 q 453 651 412 661 q 526 620 493 640 q 621 653 570 642 q 712 664 671 664 l 725 636 l 608 528 q 625 444 625 488 q 589 308 625 367 q 488 218 553 250 q 336 186 422 186 q 233 199 284 186 q 198 121 198 142 q 204 106 198 113 q 218 96 210 99 q 291 87 237 89 q 498 85 345 85 m 246 563 q 229 522 235 547 q 222 469 222 497 q 243 371 222 418 q 302 296 264 325 q 389 268 340 268 q 452 288 433 268 q 470 332 464 299 q 476 407 476 364 q 458 497 476 457 q 404 560 440 536 q 316 583 368 583 q 273 578 294 583 q 246 563 253 573 m 520 -210 q 544 -172 532 -200 q 556 -111 556 -144 q 552 -77 556 -90 q 532 -56 547 -64 q 486 -47 517 -47 q 300 -46 368 -47 q 187 -37 233 -44 q 159 -101 172 -67 q 146 -157 146 -134 q 153 -181 146 -173 q 230 -223 170 -206 q 362 -241 289 -241 q 454 -234 410 -241 q 520 -210 498 -227 z "},"h":{"ha":842,"x_min":23,"x_max":833,"o":"m 833 50 l 821 0 l 484 0 l 495 54 l 559 94 l 559 374 q 544 480 559 439 q 509 539 530 522 q 484 548 498 548 q 392 536 453 548 q 292 511 330 524 l 292 89 l 393 50 l 382 0 l 23 0 l 34 54 l 127 92 l 127 869 l 27 926 l 33 958 l 292 998 l 292 555 q 420 632 355 603 q 538 661 484 661 q 669 605 616 661 q 723 420 723 550 l 723 89 l 833 50 z "},"i":{"ha":428,"x_min":33,"x_max":406,"o":"m 250 771 q 241 770 248 770 q 198 781 225 770 q 149 806 172 791 q 122 833 127 821 q 121 843 121 839 q 132 887 121 860 q 158 936 143 914 q 185 962 174 958 q 195 964 191 964 q 239 952 213 964 q 288 926 266 941 q 313 900 309 911 q 315 891 315 895 q 303 847 315 874 q 277 798 292 820 q 250 771 261 775 m 139 92 l 139 524 l 39 581 l 45 612 l 303 654 l 303 89 l 406 50 l 395 0 l 33 0 l 43 54 l 139 92 z "},"ı":{"ha":428,"x_min":33,"x_max":406,"o":"m 139 92 l 139 524 l 39 581 l 45 612 l 303 653 l 303 89 l 406 50 l 395 0 l 33 0 l 43 54 l 139 92 z "},"í":{"ha":428,"x_min":33,"x_max":406,"o":"m 139 92 l 139 524 l 39 581 l 45 612 l 303 653 l 303 89 l 406 50 l 395 0 l 33 0 l 43 54 l 139 92 m 281 988 l 351 988 l 372 875 l 101 715 l 84 808 l 281 988 z "},"î":{"ha":428,"x_min":-20,"x_max":435,"o":"m 139 92 l 139 524 l 39 581 l 45 612 l 303 653 l 303 89 l 406 50 l 395 0 l 33 0 l 43 54 l 139 92 m 44 733 l -20 773 l 160 949 l 256 949 l 435 773 l 372 733 l 208 830 l 44 733 z "},"ï":{"ha":428,"x_min":-24,"x_max":441,"o":"m 139 92 l 139 524 l 39 581 l 45 612 l 303 653 l 303 89 l 406 50 l 395 0 l 33 0 l 43 54 l 139 92 m -23 833 q -24 844 -24 836 q -14 887 -24 861 q 12 936 -3 914 q 39 962 26 958 q 48 964 43 964 q 89 953 64 964 q 135 927 114 942 q 161 900 157 911 q 163 890 163 895 q 153 846 163 873 q 130 798 144 819 q 104 771 116 776 q 96 770 100 770 q 52 781 79 770 q 3 807 25 791 q -23 833 -19 822 m 254 833 q 253 844 253 839 q 262 888 253 862 q 286 936 272 915 q 311 962 299 958 q 320 964 317 964 q 363 953 336 964 q 412 927 390 942 q 439 900 435 912 q 441 890 441 895 q 430 847 441 874 q 405 798 420 820 q 376 771 389 776 q 368 770 371 770 q 327 781 352 770 q 280 807 302 791 q 254 833 259 822 z "},"ì":{"ha":428,"x_min":33,"x_max":406,"o":"m 139 92 l 139 524 l 39 581 l 45 612 l 303 653 l 303 89 l 406 50 l 395 0 l 33 0 l 43 54 l 139 92 m 50 875 l 72 988 l 142 988 l 339 807 l 323 715 l 50 875 z "},"ī":{"ha":428,"x_min":16,"x_max":406,"o":"m 139 92 l 139 524 l 39 581 l 45 612 l 303 653 l 303 89 l 406 50 l 395 0 l 33 0 l 43 54 l 139 92 m 38 884 l 399 884 l 379 780 q 16 772 224 772 l 38 884 z "},"į":{"ha":429,"x_min":33,"x_max":407,"o":"m 248 771 q 240 770 246 770 q 197 781 224 770 q 148 806 170 791 q 121 833 126 821 q 120 844 120 836 q 131 888 120 861 q 157 937 142 915 q 184 962 173 958 q 195 964 190 964 q 239 952 212 964 q 287 926 265 941 q 312 900 308 911 q 313 890 313 895 q 302 846 313 873 q 275 797 291 819 q 248 771 260 775 m 84 -193 q 113 -114 84 -149 q 181 -55 141 -79 q 283 0 221 -31 l 33 0 l 43 54 l 139 92 l 139 525 l 39 581 l 45 612 l 303 654 l 303 89 l 407 50 l 395 1 q 256 -94 297 -58 q 215 -158 215 -130 q 229 -204 215 -182 q 264 -237 243 -227 q 288 -241 277 -241 q 387 -212 325 -241 l 405 -240 q 325 -307 367 -283 q 234 -330 283 -330 q 162 -315 196 -330 q 106 -269 127 -300 q 84 -193 84 -238 z "},"j":{"ha":383,"x_min":-140,"x_max":293,"o":"m 228 771 q 220 770 226 770 q 177 781 203 770 q 128 806 150 791 q 101 833 106 821 q 100 844 100 836 q 110 888 100 861 q 136 937 121 915 q 163 962 151 958 q 174 964 166 964 q 218 952 192 964 q 266 926 245 941 q 292 900 288 910 q 293 890 293 895 q 281 846 293 873 q 254 797 270 819 q 228 771 239 775 m 22 581 l 27 612 l 286 654 l 286 19 q 231 -238 286 -138 q 24 -339 176 -339 q -51 -328 -12 -339 q -114 -296 -89 -316 q -140 -250 -140 -275 q -121 -205 -140 -231 q -77 -161 -102 -180 q -35 -142 -52 -142 q 23 -169 -14 -142 l 53 -298 q 99 -225 84 -262 q 118 -139 113 -188 q 122 0 122 -90 l 122 524 l 22 581 z "},"k":{"ha":817,"x_min":23,"x_max":818,"o":"m 25 926 l 31 958 l 290 998 l 290 89 l 395 50 l 384 0 l 23 0 l 34 54 l 125 92 l 125 869 l 25 926 m 722 84 l 818 47 l 807 0 l 532 0 l 540 45 l 317 373 l 530 567 l 450 597 l 460 644 l 764 644 l 753 592 l 660 563 l 483 408 l 722 84 z "},"ķ":{"ha":817,"x_min":23,"x_max":818,"o":"m 25 926 l 31 958 l 290 998 l 290 89 l 395 50 l 384 0 l 23 0 l 34 54 l 125 92 l 125 869 l 25 926 m 722 84 l 818 47 l 807 0 l 532 0 l 540 45 l 317 373 l 530 567 l 450 597 l 460 644 l 764 644 l 753 592 l 660 563 l 483 408 l 722 84 m 357 -67 q 421 -78 391 -68 q 475 -109 452 -89 q 513 -192 513 -144 q 483 -273 513 -239 q 411 -325 452 -307 q 341 -343 370 -343 l 327 -303 q 395 -249 377 -269 q 414 -212 414 -230 q 335 -159 412 -179 l 357 -67 z "},"l":{"ha":416,"x_min":23,"x_max":395,"o":"m 25 926 l 31 958 l 290 998 l 290 89 l 395 50 l 384 0 l 23 0 l 34 54 l 125 92 l 125 869 l 25 926 z "},"ĺ":{"ha":416,"x_min":23,"x_max":401,"o":"m 25 926 l 31 958 l 290 998 l 290 89 l 395 50 l 384 0 l 23 0 l 34 54 l 125 92 l 125 869 l 25 926 m 68 1089 l 310 1223 l 380 1223 l 401 1115 l 83 1017 l 68 1089 z "},"ľ":{"ha":416,"x_min":23,"x_max":529,"o":"m 25 926 l 31 958 l 290 998 l 290 89 l 395 50 l 384 0 l 23 0 l 34 54 l 125 92 l 125 869 l 25 926 m 329 673 q 406 867 379 774 l 341 895 l 353 974 q 513 991 448 991 q 526 959 522 974 q 529 927 529 944 q 487 791 529 867 q 382 659 444 715 l 329 673 z "},"ļ":{"ha":416,"x_min":23,"x_max":395,"o":"m 25 926 l 31 958 l 290 998 l 290 89 l 395 50 l 384 0 l 23 0 l 34 54 l 125 92 l 125 869 l 25 926 m 151 -67 q 215 -78 184 -68 q 269 -109 245 -89 q 307 -192 307 -144 q 276 -273 307 -239 q 205 -325 246 -307 q 135 -343 164 -343 l 121 -303 q 189 -249 171 -269 q 208 -212 208 -230 q 129 -159 206 -179 l 151 -67 z "},"ł":{"ha":414,"x_min":-18,"x_max":444,"o":"m 290 89 l 395 50 l 385 0 l 24 0 l 34 54 l 126 92 l 126 456 l 4 398 l -18 481 l 126 551 l 126 869 l 26 926 l 32 958 l 290 998 l 290 631 l 421 695 l 444 609 l 290 535 l 290 89 z "},"m":{"ha":1259,"x_min":35,"x_max":1250,"o":"m 39 581 l 45 612 l 258 651 l 290 545 q 419 629 353 597 q 543 661 486 661 q 635 634 592 661 q 702 546 679 607 q 832 629 763 597 q 952 661 902 661 q 1059 632 1017 661 q 1120 538 1100 604 q 1141 360 1141 472 l 1141 89 l 1250 51 l 1239 0 l 901 0 l 912 54 l 977 94 l 977 332 q 963 472 977 423 q 928 536 950 520 q 917 546 922 543 q 903 548 911 548 q 818 537 880 548 q 713 511 756 527 q 721 442 720 486 q 723 323 723 398 l 723 89 l 825 50 l 813 0 l 484 0 l 494 54 l 559 94 l 559 339 q 506 542 559 500 q 488 548 499 548 q 404 537 461 548 q 300 512 347 527 q 304 466 304 492 l 303 89 l 406 50 l 396 0 l 35 0 l 45 55 l 139 96 l 139 524 l 39 581 z "},"n":{"ha":852,"x_min":35,"x_max":844,"o":"m 39 581 l 45 612 l 258 654 l 290 545 q 425 629 356 597 q 549 661 493 661 q 681 605 627 661 q 734 420 734 550 l 734 89 l 844 50 l 833 0 l 495 0 l 506 54 l 570 94 l 570 374 q 556 480 570 439 q 521 539 541 522 q 495 548 509 548 q 400 536 463 548 q 299 510 337 524 q 301 495 300 507 q 303 473 303 483 l 304 89 l 407 50 l 395 0 l 35 0 l 46 56 l 139 96 l 139 524 l 39 581 z "},"ń":{"ha":852,"x_min":35,"x_max":844,"o":"m 39 581 l 45 612 l 258 654 l 290 545 q 425 629 356 597 q 549 661 493 661 q 681 605 627 661 q 734 420 734 550 l 734 89 l 844 50 l 833 0 l 495 0 l 506 54 l 570 94 l 570 374 q 556 480 570 439 q 521 539 541 522 q 495 548 509 548 q 400 536 463 548 q 299 510 337 524 q 301 495 300 507 q 303 473 303 483 l 304 89 l 407 50 l 395 0 l 35 0 l 46 56 l 139 96 l 139 524 l 39 581 m 512 988 l 581 988 l 603 875 l 332 715 l 315 808 l 512 988 z "},"ň":{"ha":852,"x_min":35,"x_max":844,"o":"m 39 581 l 45 612 l 258 654 l 290 545 q 425 629 356 597 q 549 661 493 661 q 681 605 627 661 q 734 420 734 550 l 734 89 l 844 50 l 833 0 l 495 0 l 506 54 l 570 94 l 570 374 q 556 480 570 439 q 521 539 541 522 q 495 548 509 548 q 400 536 463 548 q 299 510 337 524 q 301 495 300 507 q 303 473 303 483 l 304 89 l 407 50 l 395 0 l 35 0 l 46 56 l 139 96 l 139 524 l 39 581 m 604 951 l 666 913 l 490 734 l 387 734 l 210 913 l 273 951 l 438 849 l 604 951 z "},"ņ":{"ha":852,"x_min":35,"x_max":844,"o":"m 39 581 l 45 612 l 258 654 l 290 545 q 425 629 356 597 q 549 661 493 661 q 681 605 627 661 q 734 420 734 550 l 734 89 l 844 50 l 833 0 l 495 0 l 506 54 l 570 94 l 570 374 q 556 480 570 439 q 521 539 541 522 q 495 548 509 548 q 400 536 463 548 q 299 510 337 524 q 301 495 300 507 q 303 473 303 483 l 304 89 l 407 50 l 395 0 l 35 0 l 46 56 l 139 96 l 139 524 l 39 581 m 371 -67 q 435 -78 404 -68 q 488 -109 465 -89 q 526 -192 526 -144 q 496 -273 526 -239 q 425 -325 466 -307 q 355 -343 384 -343 l 340 -303 q 409 -249 391 -269 q 427 -212 427 -230 q 349 -159 426 -179 l 371 -67 z "},"ñ":{"ha":852,"x_min":35,"x_max":844,"o":"m 39 581 l 45 612 l 258 654 l 290 545 q 425 629 356 597 q 549 661 493 661 q 681 605 627 661 q 734 420 734 550 l 734 89 l 844 50 l 833 0 l 495 0 l 506 54 l 570 94 l 570 374 q 556 480 570 439 q 521 539 541 522 q 495 548 509 548 q 400 536 463 548 q 299 510 337 524 q 301 495 300 507 q 303 473 303 483 l 304 89 l 407 50 l 395 0 l 35 0 l 46 56 l 139 96 l 139 524 l 39 581 m 199 863 q 281 937 245 911 q 356 962 316 962 q 415 947 387 962 q 474 907 442 932 q 508 883 497 890 q 528 876 518 876 q 588 896 547 876 q 662 943 628 916 l 677 854 q 624 803 646 823 q 575 769 602 783 q 519 755 548 755 q 462 770 488 755 q 403 811 435 785 q 369 835 380 828 q 349 842 359 842 q 286 822 328 842 q 215 773 245 802 l 199 863 z "},"o":{"ha":724,"x_min":44,"x_max":680,"o":"m 44 303 q 85 478 44 396 q 199 611 125 561 q 364 661 272 661 q 525 626 454 661 q 638 519 596 591 q 680 340 680 448 q 639 165 680 248 q 525 33 597 83 q 364 -17 452 -17 q 200 18 273 -17 q 86 124 128 52 q 44 303 44 195 m 405 77 q 454 84 431 77 q 489 105 476 91 q 511 168 503 123 q 519 256 519 213 q 493 421 519 350 q 420 530 467 492 q 315 568 374 568 q 235 540 260 568 q 213 478 222 523 q 205 387 205 433 q 228 233 205 303 q 296 119 250 162 q 405 77 341 77 z "},"ó":{"ha":724,"x_min":44,"x_max":680,"o":"m 44 303 q 85 478 44 396 q 199 611 125 561 q 364 661 272 661 q 525 626 454 661 q 638 519 596 591 q 680 340 680 448 q 639 165 680 248 q 525 33 597 83 q 364 -17 452 -17 q 200 18 273 -17 q 86 124 128 52 q 44 303 44 195 m 405 77 q 454 84 431 77 q 489 105 476 91 q 511 168 503 123 q 519 256 519 213 q 493 421 519 350 q 420 530 467 492 q 315 568 374 568 q 235 540 260 568 q 213 478 222 523 q 205 387 205 433 q 228 233 205 303 q 296 119 250 162 q 405 77 341 77 m 436 988 l 505 988 l 527 875 l 256 715 l 239 808 l 436 988 z "},"ô":{"ha":724,"x_min":44,"x_max":680,"o":"m 44 303 q 85 478 44 396 q 199 611 125 561 q 364 661 272 661 q 525 626 454 661 q 638 519 596 591 q 680 340 680 448 q 639 165 680 248 q 525 33 597 83 q 364 -17 452 -17 q 200 18 273 -17 q 86 124 128 52 q 44 303 44 195 m 405 77 q 454 84 431 77 q 489 105 476 91 q 511 168 503 123 q 519 256 519 213 q 493 421 519 350 q 420 530 467 492 q 315 568 374 568 q 235 540 260 568 q 213 478 222 523 q 205 387 205 433 q 228 233 205 303 q 296 119 250 162 q 405 77 341 77 m 199 733 l 134 773 l 315 949 l 410 949 l 590 773 l 526 733 l 362 830 l 199 733 z "},"ö":{"ha":724,"x_min":44,"x_max":680,"o":"m 44 303 q 85 478 44 396 q 199 611 125 561 q 364 661 272 661 q 525 626 454 661 q 638 519 596 591 q 680 340 680 448 q 639 165 680 248 q 525 33 597 83 q 364 -17 452 -17 q 200 18 273 -17 q 86 124 128 52 q 44 303 44 195 m 405 77 q 454 84 431 77 q 489 105 476 91 q 511 168 503 123 q 519 256 519 213 q 493 421 519 350 q 420 530 467 492 q 315 568 374 568 q 235 540 260 568 q 213 478 222 523 q 205 387 205 433 q 228 233 205 303 q 296 119 250 162 q 405 77 341 77 m 131 833 q 130 844 130 836 q 140 887 130 861 q 165 936 151 914 q 193 962 180 958 q 202 964 197 964 q 243 953 218 964 q 289 927 268 942 q 315 900 311 911 q 317 890 317 895 q 307 846 317 873 q 284 798 298 819 q 258 771 270 776 q 250 770 254 770 q 206 781 233 770 q 157 807 179 791 q 131 833 135 822 m 408 833 q 407 844 407 839 q 416 888 407 862 q 439 936 426 915 q 465 962 453 958 q 474 964 471 964 q 517 953 490 964 q 566 927 544 942 q 593 900 589 912 q 595 890 595 895 q 584 847 595 874 q 558 798 574 820 q 530 771 543 776 q 522 770 525 770 q 481 781 506 770 q 434 807 456 791 q 408 833 413 822 z "},"ò":{"ha":724,"x_min":44,"x_max":680,"o":"m 44 303 q 85 478 44 396 q 199 611 125 561 q 364 661 272 661 q 525 626 454 661 q 638 519 596 591 q 680 340 680 448 q 639 165 680 248 q 525 33 597 83 q 364 -17 452 -17 q 200 18 273 -17 q 86 124 128 52 q 44 303 44 195 m 405 77 q 454 84 431 77 q 489 105 476 91 q 511 168 503 123 q 519 256 519 213 q 493 421 519 350 q 420 530 467 492 q 315 568 374 568 q 235 540 260 568 q 213 478 222 523 q 205 387 205 433 q 228 233 205 303 q 296 119 250 162 q 405 77 341 77 m 205 875 l 227 988 l 297 988 l 494 807 l 477 715 l 205 875 z "},"ő":{"ha":724,"x_min":44,"x_max":680,"o":"m 44 303 q 85 478 44 396 q 199 611 125 561 q 364 661 272 661 q 525 626 454 661 q 638 519 596 591 q 680 340 680 448 q 639 165 680 248 q 525 33 597 83 q 364 -17 452 -17 q 200 18 273 -17 q 86 124 128 52 q 44 303 44 195 m 405 77 q 454 84 431 77 q 489 105 476 91 q 511 168 503 123 q 519 256 519 213 q 493 421 519 350 q 420 530 467 492 q 315 568 374 568 q 235 540 260 568 q 213 478 222 523 q 205 387 205 433 q 228 233 205 303 q 296 119 250 162 q 405 77 341 77 m 285 993 l 372 993 l 385 909 l 213 710 l 189 820 l 285 993 m 497 993 l 585 993 l 597 910 l 425 710 l 402 823 l 497 993 z "},"ō":{"ha":724,"x_min":44,"x_max":680,"o":"m 44 303 q 85 478 44 396 q 199 611 125 561 q 364 661 272 661 q 525 626 454 661 q 638 519 596 591 q 680 340 680 448 q 639 165 680 248 q 525 33 597 83 q 364 -17 452 -17 q 200 18 273 -17 q 86 124 128 52 q 44 303 44 195 m 405 77 q 454 84 431 77 q 489 105 476 91 q 511 168 503 123 q 519 256 519 213 q 493 421 519 350 q 420 530 467 492 q 315 568 374 568 q 235 540 260 568 q 213 478 222 523 q 205 387 205 433 q 228 233 205 303 q 296 119 250 162 q 405 77 341 77 m 193 884 l 554 884 l 534 780 q 170 772 379 772 l 193 884 z "},"ø":{"ha":729,"x_min":44,"x_max":685,"o":"m 533 624 q 645 516 604 587 q 685 342 685 446 q 643 165 685 248 q 529 33 601 83 q 370 -17 456 -17 q 280 -7 324 -17 l 239 -111 l 136 -79 l 181 31 q 80 138 116 69 q 44 304 44 206 q 85 479 44 397 q 200 611 126 561 q 367 661 274 661 q 434 656 399 661 l 470 747 l 570 713 l 533 624 m 202 382 q 237 168 202 238 l 321 370 l 396 561 q 309 574 360 574 q 244 553 263 574 q 214 483 227 533 q 202 382 202 432 m 487 97 q 517 170 506 117 q 528 266 528 223 q 480 494 528 420 l 383 258 l 318 90 q 415 73 359 73 q 487 97 465 73 z "},"õ":{"ha":724,"x_min":44,"x_max":680,"o":"m 44 303 q 85 478 44 396 q 199 611 125 561 q 364 661 272 661 q 525 626 454 661 q 638 519 596 591 q 680 340 680 448 q 639 165 680 248 q 525 33 597 83 q 364 -17 452 -17 q 200 18 273 -17 q 86 124 128 52 q 44 303 44 195 m 405 77 q 454 84 431 77 q 489 105 476 91 q 511 168 503 123 q 519 256 519 213 q 493 421 519 350 q 420 530 467 492 q 315 568 374 568 q 235 540 260 568 q 213 478 222 523 q 205 387 205 433 q 228 233 205 303 q 296 119 250 162 q 405 77 341 77 m 123 863 q 205 937 170 911 q 280 962 240 962 q 339 947 311 962 q 398 907 366 932 q 432 883 421 890 q 452 876 442 876 q 512 896 471 876 q 586 943 552 916 l 601 854 q 548 803 570 823 q 499 769 526 783 q 444 755 472 755 q 386 770 412 755 q 327 811 359 785 q 293 835 304 828 q 273 842 283 842 q 210 822 252 842 q 139 773 169 802 l 123 863 z "},"œ":{"ha":1082,"x_min":44,"x_max":1038,"o":"m 828 86 q 898 94 860 86 q 968 112 937 102 q 1010 126 1000 121 l 1025 105 q 966 49 1003 77 q 884 1 930 20 q 793 -18 839 -18 q 662 7 722 -18 q 561 83 602 33 q 467 9 519 35 q 355 -18 414 -18 q 196 16 267 -18 q 85 120 125 50 q 44 295 44 190 q 84 474 44 389 q 195 609 123 558 q 356 661 267 661 q 487 636 427 661 q 587 564 547 612 q 688 635 630 610 q 813 661 745 661 q 934 631 883 661 q 1011 553 985 602 q 1038 445 1038 504 q 1017 355 1038 401 q 1004 337 1013 342 q 979 331 996 331 l 648 331 q 678 213 652 270 q 745 121 705 157 q 828 86 785 86 m 694 565 q 664 496 678 545 q 648 382 650 448 l 881 408 q 862 503 881 464 q 812 562 844 542 q 742 582 781 582 q 694 565 705 582 m 465 101 q 491 171 482 120 q 500 262 500 221 q 476 427 500 357 q 408 536 451 498 q 313 574 366 574 q 269 567 285 574 q 241 547 252 560 q 215 480 225 528 q 204 385 204 431 q 224 236 204 307 q 284 118 243 164 q 386 72 326 72 q 465 101 441 72 z "},"p":{"ha":781,"x_min":17,"x_max":731,"o":"m 462 -273 l 452 -322 l 17 -322 l 27 -267 l 121 -227 l 121 524 l 22 581 l 28 612 l 240 651 l 275 560 q 392 633 339 606 q 501 661 446 661 q 624 623 572 661 q 704 513 676 585 q 731 342 731 441 q 694 166 731 249 q 595 34 658 83 q 528 -3 564 10 q 452 -17 491 -17 q 356 0 400 -17 q 286 53 312 18 l 286 -233 l 462 -273 m 284 519 q 286 471 286 504 l 286 141 q 366 99 318 112 q 463 87 414 87 q 502 91 487 87 q 526 106 517 95 q 556 174 543 124 q 569 283 569 224 q 547 426 569 362 q 487 529 526 489 q 464 547 475 542 q 437 551 452 551 q 363 542 410 551 q 284 519 316 532 z "},"þ":{"ha":776,"x_min":9,"x_max":726,"o":"m 450 -269 l 439 -322 l 9 -322 l 20 -262 l 118 -231 l 118 869 l 18 926 l 24 958 l 282 998 l 282 564 q 395 635 345 610 q 498 661 444 661 q 620 622 569 661 q 699 510 671 583 q 726 338 726 437 q 690 164 726 246 q 590 34 653 83 q 523 -4 560 10 q 448 -18 486 -18 q 352 0 396 -18 q 282 54 309 18 l 282 -237 l 450 -269 m 282 142 q 365 100 312 113 q 467 87 418 87 q 517 100 498 87 q 539 134 528 107 q 557 202 550 161 q 564 289 564 243 q 541 437 564 372 q 481 534 517 503 q 433 551 461 551 q 360 542 400 551 q 282 518 321 533 l 282 142 z "},"q":{"ha":772,"x_min":46,"x_max":772,"o":"m 497 66 q 414 7 463 31 q 307 -17 365 -17 q 179 17 238 -17 q 83 123 120 50 q 46 305 46 195 q 72 452 46 382 q 146 575 98 523 q 233 638 183 616 q 337 661 283 661 q 443 640 395 661 q 528 573 490 619 l 692 654 l 722 610 l 661 498 l 661 -229 l 772 -271 l 761 -322 l 330 -322 l 341 -270 l 497 -231 l 497 66 m 497 477 q 424 538 472 513 q 323 562 375 562 q 274 555 292 562 q 243 529 255 549 q 218 458 226 501 q 210 363 210 414 q 233 224 210 290 q 305 116 256 159 q 332 96 317 103 q 363 88 348 88 q 433 96 395 88 q 497 116 470 103 l 497 477 z "},"r":{"ha":598,"x_min":34,"x_max":590,"o":"m 40 580 l 46 613 l 258 651 l 296 526 q 378 629 338 599 q 467 659 418 659 q 504 653 484 659 q 543 635 524 646 q 577 606 564 623 q 590 572 590 589 q 572 525 590 552 q 529 479 554 498 q 486 460 505 460 q 456 467 473 460 q 429 483 439 474 l 415 554 q 358 524 391 545 q 304 484 326 503 l 304 89 l 484 50 l 473 0 l 34 0 l 45 56 l 140 96 l 140 524 l 40 580 z "},"ŕ":{"ha":598,"x_min":34,"x_max":590,"o":"m 40 580 l 46 613 l 258 651 l 296 526 q 378 629 338 599 q 467 659 418 659 q 504 653 484 659 q 543 635 524 646 q 577 606 564 623 q 590 572 590 589 q 572 525 590 552 q 529 479 554 498 q 486 460 505 460 q 456 467 473 460 q 429 483 439 474 l 415 554 q 358 524 391 545 q 304 484 326 503 l 304 89 l 484 50 l 473 0 l 34 0 l 45 56 l 140 96 l 140 524 l 40 580 m 377 988 l 446 988 l 468 875 l 197 715 l 180 808 l 377 988 z "},"ř":{"ha":598,"x_min":34,"x_max":590,"o":"m 40 580 l 46 613 l 258 651 l 296 526 q 378 629 338 599 q 467 659 418 659 q 504 653 484 659 q 543 635 524 646 q 577 606 564 623 q 590 572 590 589 q 572 525 590 552 q 529 479 554 498 q 486 460 505 460 q 456 467 473 460 q 429 483 439 474 l 415 554 q 358 524 391 545 q 304 484 326 503 l 304 89 l 484 50 l 473 0 l 34 0 l 45 56 l 140 96 l 140 524 l 40 580 m 469 951 l 531 913 l 355 734 l 252 734 l 75 913 l 138 951 l 303 849 l 469 951 z "},"ŗ":{"ha":598,"x_min":34,"x_max":590,"o":"m 40 580 l 46 613 l 258 651 l 296 526 q 378 629 338 599 q 467 659 418 659 q 504 653 484 659 q 543 635 524 646 q 577 606 564 623 q 590 572 590 589 q 572 525 590 552 q 529 479 554 498 q 486 460 505 460 q 456 467 473 460 q 429 483 439 474 l 415 554 q 358 524 391 545 q 304 484 326 503 l 304 89 l 484 50 l 473 0 l 34 0 l 45 56 l 140 96 l 140 524 l 40 580 m 161 -67 q 225 -78 195 -68 q 279 -109 256 -89 q 317 -192 317 -144 q 287 -273 317 -239 q 215 -325 256 -307 q 145 -343 174 -343 l 131 -303 q 199 -249 181 -269 q 218 -212 218 -230 q 139 -159 216 -179 l 161 -67 z "},"s":{"ha":599,"x_min":39,"x_max":553,"o":"m 370 601 q 288 577 332 595 q 218 536 244 559 q 200 495 200 520 q 217 455 200 473 q 264 422 233 437 q 353 388 295 407 q 422 363 393 374 q 474 337 450 352 q 532 280 510 315 q 553 197 553 245 q 515 76 553 124 q 413 5 476 28 q 275 -17 350 -17 q 143 0 198 -17 q 39 51 89 18 l 72 214 l 147 198 l 178 62 q 290 74 229 62 q 381 109 350 87 q 403 151 403 123 q 391 188 403 171 q 351 219 378 204 q 269 254 327 233 q 242 264 264 256 q 201 281 220 273 q 168 297 182 289 q 64 467 64 357 q 102 575 64 532 q 202 640 140 619 q 334 661 264 661 q 481 632 425 661 q 524 602 505 619 q 543 566 543 585 q 526 520 543 545 q 485 479 509 496 q 447 462 462 462 q 418 470 434 462 q 391 489 402 479 l 370 601 z "},"ś":{"ha":599,"x_min":39,"x_max":553,"o":"m 370 601 q 288 577 332 595 q 218 536 244 559 q 200 495 200 520 q 217 455 200 473 q 264 422 233 437 q 353 388 295 407 q 422 363 393 374 q 474 337 450 352 q 532 280 510 315 q 553 197 553 245 q 515 76 553 124 q 413 5 476 28 q 275 -17 350 -17 q 143 0 198 -17 q 39 51 89 18 l 72 214 l 147 198 l 178 62 q 290 74 229 62 q 381 109 350 87 q 403 151 403 123 q 391 188 403 171 q 351 219 378 204 q 269 254 327 233 q 242 264 264 256 q 201 281 220 273 q 168 297 182 289 q 64 467 64 357 q 102 575 64 532 q 202 640 140 619 q 334 661 264 661 q 481 632 425 661 q 524 602 505 619 q 543 566 543 585 q 526 520 543 545 q 485 479 509 496 q 447 462 462 462 q 418 470 434 462 q 391 489 402 479 l 370 601 m 385 988 l 454 988 l 475 875 l 204 715 l 187 808 l 385 988 z "},"š":{"ha":599,"x_min":39,"x_max":553,"o":"m 370 601 q 288 577 332 595 q 218 536 244 559 q 200 495 200 520 q 217 455 200 473 q 264 422 233 437 q 353 388 295 407 q 422 363 393 374 q 474 337 450 352 q 532 280 510 315 q 553 197 553 245 q 515 76 553 124 q 413 5 476 28 q 275 -17 350 -17 q 143 0 198 -17 q 39 51 89 18 l 72 214 l 147 198 l 178 62 q 290 74 229 62 q 381 109 350 87 q 403 151 403 123 q 391 188 403 171 q 351 219 378 204 q 269 254 327 233 q 242 264 264 256 q 201 281 220 273 q 168 297 182 289 q 64 467 64 357 q 102 575 64 532 q 202 640 140 619 q 334 661 264 661 q 481 632 425 661 q 524 602 505 619 q 543 566 543 585 q 526 520 543 545 q 485 479 509 496 q 447 462 462 462 q 418 470 434 462 q 391 489 402 479 l 370 601 m 476 951 l 538 913 l 362 734 l 260 734 l 83 913 l 145 951 l 311 849 l 476 951 z "},"ş":{"ha":599,"x_min":39,"x_max":553,"o":"m 553 197 q 490 51 553 103 q 330 -14 427 -2 l 310 -57 q 402 -99 372 -72 q 431 -173 431 -125 q 391 -258 431 -224 q 292 -307 350 -292 q 180 -322 233 -322 l 167 -279 q 287 -221 257 -245 q 317 -178 317 -197 q 286 -143 317 -157 q 193 -117 255 -129 q 211 -70 194 -100 q 248 -16 227 -40 q 133 3 182 -14 q 39 51 84 20 l 72 214 l 147 198 l 178 62 q 290 74 229 62 q 381 109 350 87 q 403 151 403 123 q 391 188 403 171 q 351 219 378 204 q 269 254 327 233 q 242 264 264 256 q 201 281 220 273 q 168 297 182 289 q 64 467 64 357 q 102 575 64 532 q 202 640 140 619 q 334 661 264 661 q 481 632 425 661 q 524 602 505 619 q 543 566 543 585 q 526 520 543 545 q 485 479 509 496 q 447 462 462 462 q 418 470 434 462 q 391 489 402 479 l 370 601 q 288 577 332 595 q 218 536 244 559 q 200 495 200 520 q 217 455 200 473 q 264 422 233 437 q 353 388 295 407 q 422 363 393 374 q 474 337 450 352 q 532 280 510 315 q 553 197 553 245 z "},"ș":{"ha":599,"x_min":39,"x_max":553,"o":"m 370 601 q 288 577 332 595 q 218 536 244 559 q 200 495 200 520 q 217 455 200 473 q 264 422 233 437 q 353 388 295 407 q 422 363 393 374 q 474 337 450 352 q 532 280 510 315 q 553 197 553 245 q 515 76 553 124 q 413 5 476 28 q 275 -17 350 -17 q 143 0 198 -17 q 39 51 89 18 l 72 214 l 147 198 l 178 62 q 290 74 229 62 q 381 109 350 87 q 403 151 403 123 q 391 188 403 171 q 351 219 378 204 q 269 254 327 233 q 242 264 264 256 q 201 281 220 273 q 168 297 182 289 q 64 467 64 357 q 102 575 64 532 q 202 640 140 619 q 334 661 264 661 q 481 632 425 661 q 524 602 505 619 q 543 566 543 585 q 526 520 543 545 q 485 479 509 496 q 447 462 462 462 q 418 470 434 462 q 391 489 402 479 l 370 601 m 227 -67 q 291 -78 260 -68 q 345 -109 321 -89 q 382 -192 382 -144 q 352 -273 382 -239 q 281 -325 322 -307 q 211 -343 240 -343 l 197 -303 q 265 -249 247 -269 q 283 -212 283 -230 q 205 -159 282 -179 l 227 -67 z "},"ß":{"ha":884,"x_min":35,"x_max":863,"o":"m 143 96 l 143 543 l 35 584 l 47 644 l 143 644 l 143 675 q 164 808 143 747 q 226 911 186 869 q 333 981 266 958 q 487 1004 399 1004 q 629 979 567 1004 q 727 909 692 955 q 762 804 762 864 q 748 736 762 765 q 713 688 734 707 q 659 645 692 669 q 614 609 631 624 q 586 573 597 593 q 574 526 574 552 q 587 483 574 502 q 625 445 600 464 q 703 392 650 425 q 822 293 781 343 q 863 171 863 242 q 800 30 863 77 q 634 -17 738 -17 q 509 -2 566 -17 q 402 50 452 14 l 432 212 l 506 197 l 534 62 q 630 74 584 63 q 690 96 675 84 q 709 146 709 111 q 694 200 709 176 q 654 242 679 224 q 583 292 630 261 q 500 354 530 328 q 451 417 469 380 q 432 504 432 453 q 455 588 432 551 q 508 651 478 626 q 579 705 537 676 q 616 731 606 722 q 625 748 623 737 q 627 773 627 759 q 600 857 627 823 q 531 908 574 891 q 437 924 488 924 q 376 918 400 924 q 344 903 353 911 q 314 838 321 876 q 307 724 307 800 l 307 85 l 323 0 l 38 0 l 48 56 l 143 96 z "},"t":{"ha":522,"x_min":9,"x_max":524,"o":"m 22 644 l 121 644 l 142 789 l 285 847 l 285 644 l 498 644 l 487 585 l 285 543 l 285 249 q 299 151 285 195 q 338 90 313 106 q 370 82 350 82 q 498 101 405 82 q 513 104 513 104 l 524 76 q 425 12 484 41 q 312 -17 366 -17 q 172 39 222 -17 q 121 214 121 96 l 121 543 l 9 584 l 22 644 z "},"ť":{"ha":517,"x_min":9,"x_max":541,"o":"m 355 728 q 418 901 402 836 l 352 928 l 364 1007 l 526 1028 q 541 961 541 1003 q 505 837 541 904 q 414 711 470 770 l 355 728 m 22 644 l 121 644 l 142 789 l 285 847 l 285 644 l 498 644 l 487 585 l 285 543 l 285 249 q 299 151 285 195 q 338 90 313 106 q 370 82 350 82 q 498 101 405 82 q 513 104 513 104 l 524 76 q 425 12 484 41 q 312 -17 366 -17 q 172 39 222 -17 q 121 214 121 96 l 121 543 l 9 584 l 22 644 z "},"ț":{"ha":522,"x_min":9,"x_max":524,"o":"m 22 644 l 121 644 l 142 789 l 285 847 l 285 644 l 498 644 l 487 585 l 285 543 l 285 249 q 299 151 285 195 q 338 90 313 106 q 370 82 350 82 q 498 101 405 82 q 513 104 513 104 l 524 76 q 425 12 484 41 q 312 -17 366 -17 q 172 39 222 -17 q 121 214 121 96 l 121 543 l 9 584 l 22 644 m 237 -67 q 300 -78 270 -68 q 354 -109 331 -89 q 392 -192 392 -144 q 362 -273 392 -239 q 291 -325 332 -307 q 220 -343 250 -343 l 206 -303 q 275 -249 256 -269 q 293 -212 293 -230 q 214 -159 292 -179 l 237 -67 z "},"u":{"ha":827,"x_min":15,"x_max":812,"o":"m 15 588 l 27 644 l 283 644 l 283 267 q 331 102 283 143 q 347 92 339 95 q 366 90 355 90 q 452 97 404 90 q 531 117 499 105 l 531 534 l 423 587 l 434 644 l 694 644 l 694 132 q 747 87 710 106 q 812 64 785 69 l 803 23 q 725 -4 775 9 q 633 -17 675 -17 q 601 41 625 5 q 553 92 577 77 q 447 15 510 46 q 320 -17 385 -17 q 174 39 230 -17 q 119 225 119 96 l 119 534 l 15 588 z "},"ú":{"ha":827,"x_min":15,"x_max":812,"o":"m 15 588 l 27 644 l 283 644 l 283 267 q 331 102 283 143 q 347 92 339 95 q 366 90 355 90 q 452 97 404 90 q 531 117 499 105 l 531 534 l 423 587 l 434 644 l 694 644 l 694 132 q 747 87 710 106 q 812 64 785 69 l 803 23 q 725 -4 775 9 q 633 -17 675 -17 q 601 41 625 5 q 553 92 577 77 q 447 15 510 46 q 320 -17 385 -17 q 174 39 230 -17 q 119 225 119 96 l 119 534 l 15 588 m 468 988 l 537 988 l 559 875 l 288 715 l 271 808 l 468 988 z "},"û":{"ha":827,"x_min":15,"x_max":812,"o":"m 15 588 l 27 644 l 283 644 l 283 267 q 331 102 283 143 q 347 92 339 95 q 366 90 355 90 q 452 97 404 90 q 531 117 499 105 l 531 534 l 423 587 l 434 644 l 694 644 l 694 132 q 747 87 710 106 q 812 64 785 69 l 803 23 q 725 -4 775 9 q 633 -17 675 -17 q 601 41 625 5 q 553 92 577 77 q 447 15 510 46 q 320 -17 385 -17 q 174 39 230 -17 q 119 225 119 96 l 119 534 l 15 588 m 231 733 l 167 773 l 347 949 l 443 949 l 623 773 l 559 733 l 395 830 l 231 733 z "},"ü":{"ha":827,"x_min":15,"x_max":812,"o":"m 15 588 l 27 644 l 283 644 l 283 267 q 331 102 283 143 q 347 92 339 95 q 366 90 355 90 q 452 97 404 90 q 531 117 499 105 l 531 534 l 423 587 l 434 644 l 694 644 l 694 132 q 747 87 710 106 q 812 64 785 69 l 803 23 q 725 -4 775 9 q 633 -17 675 -17 q 601 41 625 5 q 553 92 577 77 q 447 15 510 46 q 320 -17 385 -17 q 174 39 230 -17 q 119 225 119 96 l 119 534 l 15 588 m 163 833 q 162 844 162 836 q 173 887 162 861 q 198 936 183 914 q 226 962 213 958 q 235 964 230 964 q 275 953 250 964 q 322 927 300 942 q 348 900 343 911 q 349 890 349 895 q 340 846 349 873 q 316 798 330 819 q 290 771 302 776 q 282 770 286 770 q 239 781 266 770 q 190 807 212 791 q 163 833 168 822 m 441 833 q 439 844 439 839 q 449 888 439 862 q 472 936 458 915 q 498 962 486 958 q 507 964 503 964 q 550 953 523 964 q 599 927 576 942 q 626 900 621 912 q 627 890 627 895 q 617 847 627 874 q 591 798 606 820 q 563 771 576 776 q 555 770 557 770 q 513 781 538 770 q 467 807 488 791 q 441 833 446 822 z "},"ù":{"ha":827,"x_min":15,"x_max":812,"o":"m 15 588 l 27 644 l 283 644 l 283 267 q 331 102 283 143 q 347 92 339 95 q 366 90 355 90 q 452 97 404 90 q 531 117 499 105 l 531 534 l 423 587 l 434 644 l 694 644 l 694 132 q 747 87 710 106 q 812 64 785 69 l 803 23 q 725 -4 775 9 q 633 -17 675 -17 q 601 41 625 5 q 553 92 577 77 q 447 15 510 46 q 320 -17 385 -17 q 174 39 230 -17 q 119 225 119 96 l 119 534 l 15 588 m 237 875 l 258 988 l 329 988 l 526 807 l 509 715 l 237 875 z "},"ű":{"ha":827,"x_min":15,"x_max":812,"o":"m 15 588 l 27 644 l 283 644 l 283 267 q 331 102 283 143 q 347 92 339 95 q 366 90 355 90 q 452 97 404 90 q 531 117 499 105 l 531 534 l 423 587 l 434 644 l 694 644 l 694 132 q 747 87 710 106 q 812 64 785 69 l 803 23 q 725 -4 775 9 q 633 -17 675 -17 q 601 41 625 5 q 553 92 577 77 q 447 15 510 46 q 320 -17 385 -17 q 174 39 230 -17 q 119 225 119 96 l 119 534 l 15 588 m 317 993 l 404 993 l 417 909 l 245 710 l 221 820 l 317 993 m 529 993 l 616 993 l 629 910 l 457 710 l 434 823 l 529 993 z "},"ū":{"ha":827,"x_min":15,"x_max":812,"o":"m 15 588 l 27 644 l 283 644 l 283 267 q 331 102 283 143 q 347 92 339 95 q 366 90 355 90 q 452 97 404 90 q 531 117 499 105 l 531 534 l 423 587 l 434 644 l 694 644 l 694 132 q 747 87 710 106 q 812 64 785 69 l 803 23 q 725 -4 775 9 q 633 -17 675 -17 q 601 41 625 5 q 553 92 577 77 q 447 15 510 46 q 320 -17 385 -17 q 174 39 230 -17 q 119 225 119 96 l 119 534 l 15 588 m 224 884 l 586 884 l 566 780 q 202 772 411 772 l 224 884 z "},"ų":{"ha":827,"x_min":16,"x_max":811,"o":"m 422 587 l 435 644 l 694 644 l 694 135 q 738 93 707 111 q 811 64 769 75 l 802 22 q 688 -19 738 3 q 602 -76 638 -41 q 565 -158 565 -111 q 579 -205 565 -182 q 616 -237 594 -228 q 640 -241 629 -241 q 691 -233 661 -241 q 751 -212 722 -224 l 767 -239 q 586 -330 680 -330 q 511 -315 545 -330 q 455 -268 476 -299 q 433 -193 433 -237 q 487 -76 433 -125 q 622 3 541 -27 q 588 55 604 33 q 553 92 572 77 q 447 15 510 46 q 320 -17 385 -17 q 174 39 230 -17 q 119 225 119 96 l 119 534 l 16 587 l 27 644 l 283 644 l 283 267 q 331 102 283 143 q 347 92 339 95 q 366 90 355 90 q 452 97 404 90 q 531 117 499 105 l 531 534 l 422 587 z "},"ů":{"ha":827,"x_min":15,"x_max":812,"o":"m 15 588 l 27 644 l 283 644 l 283 267 q 331 102 283 143 q 347 92 339 95 q 366 90 355 90 q 452 97 404 90 q 531 117 499 105 l 531 534 l 423 587 l 434 644 l 694 644 l 694 132 q 747 87 710 106 q 812 64 785 69 l 803 23 q 725 -4 775 9 q 633 -17 675 -17 q 601 41 625 5 q 553 92 577 77 q 447 15 510 46 q 320 -17 385 -17 q 174 39 230 -17 q 119 225 119 96 l 119 534 l 15 588 m 393 714 q 321 731 353 714 q 270 778 289 747 q 252 848 252 808 q 270 922 252 888 q 321 976 288 956 q 397 996 354 996 q 467 979 435 996 q 517 931 498 962 q 536 861 536 901 q 518 787 536 821 q 466 734 499 753 q 393 714 433 714 m 399 791 q 438 808 423 791 q 452 848 452 825 q 433 899 452 877 q 387 920 414 920 q 349 903 364 920 q 334 862 334 886 q 352 812 334 833 q 399 791 370 791 z "},"v":{"ha":730,"x_min":-19,"x_max":741,"o":"m 741 644 l 733 599 l 655 556 l 433 0 l 307 -15 l 78 557 l -19 597 l -11 644 l 336 644 l 326 595 l 252 560 l 411 142 l 557 559 l 471 597 l 480 644 l 741 644 z "},"w":{"ha":1059,"x_min":-12,"x_max":1062,"o":"m 1062 644 l 1053 600 l 974 557 l 809 0 l 672 -17 l 523 392 l 394 0 l 261 -17 l 86 557 l -12 597 l -3 644 l 340 644 l 330 595 l 254 559 l 366 138 l 520 644 l 591 644 l 781 138 l 884 559 l 774 595 l 783 644 l 1062 644 z "},"x":{"ha":800,"x_min":20,"x_max":785,"o":"m 785 50 l 777 0 l 409 0 l 419 52 l 489 79 l 361 248 l 233 78 l 312 48 l 302 0 l 20 0 l 30 52 l 120 85 l 311 313 l 115 566 l 21 594 l 31 644 l 391 644 l 380 593 l 315 566 l 437 393 l 567 565 l 487 596 l 496 644 l 774 644 l 763 589 l 682 562 l 486 328 l 686 80 l 785 50 z "},"y":{"ha":744,"x_min":-23,"x_max":749,"o":"m 749 644 l 740 596 l 663 558 l 496 110 q 404 -117 443 -31 q 323 -257 364 -204 q 235 -328 283 -310 q 172 -339 208 -339 q 95 -328 134 -339 q 30 -295 56 -316 q 4 -246 4 -274 q 22 -202 4 -228 q 65 -157 41 -176 q 108 -138 90 -138 q 139 -148 121 -138 q 170 -168 158 -157 l 193 -284 q 237 -234 208 -276 q 299 -133 267 -193 q 359 -14 332 -73 l 313 -19 l 73 557 l -23 596 l -14 644 l 339 644 l 329 595 l 250 560 l 412 140 l 551 559 l 465 597 l 473 644 l 749 644 z "},"ý":{"ha":744,"x_min":-23,"x_max":749,"o":"m 749 644 l 740 596 l 663 558 l 496 110 q 404 -117 443 -31 q 323 -257 364 -204 q 235 -328 283 -310 q 172 -339 208 -339 q 95 -328 134 -339 q 30 -295 56 -316 q 4 -246 4 -274 q 22 -202 4 -228 q 65 -157 41 -176 q 108 -138 90 -138 q 139 -148 121 -138 q 170 -168 158 -157 l 193 -284 q 237 -234 208 -276 q 299 -133 267 -193 q 359 -14 332 -73 l 313 -19 l 73 557 l -23 596 l -14 644 l 339 644 l 329 595 l 250 560 l 412 140 l 551 559 l 465 597 l 473 644 l 749 644 m 454 988 l 524 988 l 545 875 l 274 715 l 257 808 l 454 988 z "},"ÿ":{"ha":744,"x_min":-23,"x_max":749,"o":"m 749 644 l 740 596 l 663 558 l 496 110 q 404 -117 443 -31 q 323 -257 364 -204 q 235 -328 283 -310 q 172 -339 208 -339 q 95 -328 134 -339 q 30 -295 56 -316 q 4 -246 4 -274 q 22 -202 4 -228 q 65 -157 41 -176 q 108 -138 90 -138 q 139 -148 121 -138 q 170 -168 158 -157 l 193 -284 q 237 -234 208 -276 q 299 -133 267 -193 q 359 -14 332 -73 l 313 -19 l 73 557 l -23 596 l -14 644 l 339 644 l 329 595 l 250 560 l 412 140 l 551 559 l 465 597 l 473 644 l 749 644 m 150 833 q 149 844 149 836 q 159 887 149 861 q 184 936 170 914 q 212 962 199 958 q 221 964 216 964 q 262 953 237 964 q 308 927 287 942 q 334 900 330 911 q 336 890 336 895 q 326 846 336 873 q 303 798 317 819 q 277 771 289 776 q 269 770 273 770 q 225 781 252 770 q 176 807 198 791 q 150 833 154 822 m 427 833 q 426 844 426 839 q 435 888 426 862 q 458 936 445 915 q 484 962 472 958 q 493 964 490 964 q 536 953 509 964 q 585 927 563 942 q 612 900 608 912 q 614 890 614 895 q 603 847 614 874 q 577 798 593 820 q 549 771 562 776 q 541 770 544 770 q 500 781 525 770 q 453 807 475 791 q 427 833 432 822 z "},"z":{"ha":654,"x_min":35,"x_max":606,"o":"m 519 203 l 593 208 l 594 0 l 66 0 l 35 68 l 435 581 l 189 565 l 142 455 l 67 450 l 67 644 l 575 644 l 606 562 l 226 64 l 472 84 l 519 203 z "},"ź":{"ha":654,"x_min":35,"x_max":606,"o":"m 519 203 l 593 208 l 594 0 l 66 0 l 35 68 l 435 581 l 189 565 l 142 455 l 67 450 l 67 644 l 575 644 l 606 562 l 226 64 l 472 84 l 519 203 m 401 988 l 471 988 l 492 875 l 221 715 l 204 808 l 401 988 z "},"ž":{"ha":654,"x_min":35,"x_max":606,"o":"m 519 203 l 593 208 l 594 0 l 66 0 l 35 68 l 435 581 l 189 565 l 142 455 l 67 450 l 67 644 l 575 644 l 606 562 l 226 64 l 472 84 l 519 203 m 494 951 l 556 913 l 380 734 l 277 734 l 100 913 l 163 951 l 328 849 l 494 951 z "},"ż":{"ha":654,"x_min":35,"x_max":606,"o":"m 519 203 l 593 208 l 594 0 l 66 0 l 35 68 l 435 581 l 189 565 l 142 455 l 67 450 l 67 644 l 575 644 l 606 562 l 226 64 l 472 84 l 519 203 m 285 780 q 264 805 275 785 q 246 850 254 825 q 239 893 239 876 q 241 910 239 905 q 266 930 246 920 q 310 948 285 941 q 353 956 334 956 q 371 952 363 956 q 391 928 380 948 q 409 883 401 908 q 416 841 416 859 q 413 824 416 831 q 388 803 408 814 q 342 785 368 792 q 300 778 317 778 q 285 780 290 778 z "},"ﬁ":{"ha":905,"x_min":35,"x_max":892,"o":"m 144 96 l 144 543 l 35 584 l 47 644 l 144 644 q 182 832 145 754 q 298 953 220 910 q 398 988 345 977 q 526 998 452 998 q 623 986 573 998 q 708 958 672 975 q 761 922 740 943 q 783 878 783 901 q 764 833 783 859 q 719 788 745 807 q 672 770 692 770 q 637 782 656 770 q 603 808 618 794 l 574 921 q 538 923 562 923 q 368 850 425 920 q 307 644 311 781 l 783 652 l 783 89 l 892 48 l 881 0 l 513 0 l 522 54 l 618 92 l 618 518 q 582 549 604 535 q 538 569 560 562 l 307 544 l 307 89 l 433 56 l 422 0 l 37 0 l 49 56 l 144 96 z "},"ﬂ":{"ha":901,"x_min":35,"x_max":882,"o":"m 882 50 l 870 0 l 511 0 l 521 54 l 612 92 l 612 807 l 583 921 q 544 923 569 923 q 364 844 418 921 q 307 644 310 767 l 520 644 l 511 591 l 307 544 l 307 89 l 433 50 l 422 0 l 38 0 l 48 56 l 144 96 l 144 543 l 35 585 l 48 644 l 144 644 q 241 912 144 826 q 514 999 339 999 q 575 996 543 999 q 629 984 607 992 l 775 998 l 775 89 l 882 50 z "},"ª":{"ha":703,"x_min":94,"x_max":634,"o":"m 250 423 q 163 446 198 423 q 111 504 127 469 q 94 573 94 538 q 114 655 94 626 q 180 703 134 684 q 270 723 216 718 q 369 728 323 728 q 389 727 378 728 q 406 724 400 726 q 397 834 406 794 q 362 890 388 874 q 294 903 344 903 q 269 900 280 903 l 254 817 q 223 795 237 804 q 197 787 208 787 q 163 802 184 787 q 128 837 143 817 q 113 871 113 857 q 132 898 113 884 q 176 922 151 912 q 277 952 222 942 q 376 963 331 963 q 501 921 462 963 q 540 807 540 879 l 540 539 q 629 489 562 502 l 621 457 q 554 434 596 446 q 479 423 511 423 q 453 473 468 448 q 424 508 438 497 q 385 470 413 490 q 321 437 357 450 q 250 423 284 423 m 277 517 q 292 515 285 515 q 352 523 317 515 q 406 540 387 531 l 406 677 q 296 661 337 672 q 245 639 256 650 q 237 605 237 629 q 249 553 237 581 q 277 517 261 526 m 114 350 l 634 350 l 614 267 q 349 257 496 260 q 95 253 201 253 l 114 350 z "},"º":{"ha":671,"x_min":91,"x_max":585,"o":"m 91 675 q 122 815 91 749 q 210 922 153 882 q 336 962 266 962 q 460 935 405 962 q 547 850 515 907 q 579 710 579 793 q 547 569 579 635 q 460 463 515 503 q 340 423 405 423 q 212 450 268 423 q 123 534 156 477 q 91 675 91 591 m 375 511 q 406 515 391 511 q 429 528 420 519 q 454 579 445 543 q 463 650 463 616 q 443 762 463 710 q 386 845 424 814 q 294 876 347 876 q 261 871 275 876 q 241 859 248 867 q 217 808 226 843 q 208 736 208 772 q 225 629 208 681 q 281 544 243 578 q 375 511 319 511 m 114 350 l 585 350 l 565 267 q 95 253 325 253 l 114 350 z "},"π":{"ha":955,"x_min":46,"x_max":898,"o":"m 690 528 l 690 139 q 703 94 690 109 q 749 74 716 79 q 848 68 781 68 l 842 26 q 715 -6 766 4 q 625 -17 664 -17 q 526 123 526 -17 q 549 528 526 160 l 353 528 l 328 12 l 146 -14 l 210 528 l 46 528 l 85 644 l 898 644 l 863 528 l 690 528 z "},"ऄ":{"ha":1023,"x_min":14,"x_max":1059,"o":"m 1059 700 l 910 700 l 910 -66 l 769 -27 l 769 334 q 680 313 732 313 q 584 334 638 313 q 630 214 630 280 q 597 102 630 149 q 510 30 565 55 q 389 5 455 5 q 177 85 271 5 q 14 322 83 165 l 82 356 q 216 182 153 236 q 351 129 279 129 q 426 146 393 129 q 477 192 458 163 q 495 258 495 222 q 431 393 495 335 q 318 357 382 370 l 245 478 q 419 555 363 511 q 476 659 475 598 q 473 686 476 673 q 465 705 470 699 q 412 716 454 716 q 313 682 368 716 q 210 591 257 648 l 112 700 q 221 785 159 754 q 345 816 282 816 q 456 784 404 816 q 537 701 507 751 q 568 597 568 650 q 490 429 568 493 q 600 403 542 403 q 694 425 648 403 q 769 484 740 447 l 769 700 l 668 700 l 633 805 l 811 805 q 776 860 795 838 q 724 899 756 882 q 674 916 703 910 q 594 927 646 921 q 503 940 538 933 q 441 961 468 947 q 352 1052 379 994 q 324 1176 326 1110 l 376 1208 q 427 1125 404 1150 q 484 1086 449 1099 q 533 1071 506 1076 q 609 1059 561 1065 q 696 1044 663 1051 q 758 1025 729 1038 q 851 941 818 999 q 886 805 884 884 l 1025 805 l 1059 700 z "},"ॲ":{"ha":1023,"x_min":14,"x_max":1059,"o":"m 1059 700 l 910 700 l 910 -66 l 769 -27 l 769 334 q 680 313 732 313 q 584 334 638 313 q 630 214 630 280 q 597 102 630 149 q 510 30 565 55 q 389 5 455 5 q 177 85 271 5 q 14 322 83 165 l 82 356 q 216 182 153 236 q 351 129 279 129 q 426 146 393 129 q 477 192 458 163 q 495 258 495 222 q 431 393 495 335 q 318 357 382 370 l 245 478 q 419 555 363 511 q 476 659 475 598 q 473 686 476 673 q 465 705 470 699 q 412 716 454 716 q 313 682 368 716 q 210 591 257 648 l 112 700 q 221 785 159 754 q 345 816 282 816 q 456 784 404 816 q 537 701 507 751 q 568 597 568 650 q 490 429 568 493 q 600 403 542 403 q 694 425 648 403 q 769 484 740 447 l 769 700 l 668 700 l 633 805 l 1025 805 l 1059 700 m 477 1097 q 533 1028 507 1053 q 585 996 560 1004 q 638 987 609 987 q 721 1020 682 988 q 797 1109 760 1051 l 886 1022 q 791 916 844 949 q 673 883 739 883 q 536 931 602 883 q 427 1067 470 979 l 477 1097 z "},"अ":{"ha":1023,"x_min":14,"x_max":1059,"o":"m 1059 700 l 910 700 l 910 -66 l 769 -27 l 769 334 q 680 313 732 313 q 584 334 638 313 q 630 214 630 280 q 597 102 630 149 q 510 30 565 55 q 389 5 455 5 q 177 85 271 5 q 14 322 83 165 l 82 356 q 216 182 153 236 q 351 129 279 129 q 426 146 393 129 q 477 192 458 163 q 495 258 495 222 q 431 393 495 335 q 318 357 382 370 l 245 478 q 419 555 363 511 q 476 659 475 598 q 473 686 476 673 q 465 705 470 699 q 412 716 454 716 q 313 682 368 716 q 210 591 257 648 l 112 700 q 221 785 159 754 q 345 816 282 816 q 456 784 404 816 q 537 701 507 751 q 568 597 568 650 q 490 429 568 493 q 600 403 542 403 q 694 425 648 403 q 769 484 740 447 l 769 700 l 668 700 l 633 805 l 1025 805 l 1059 700 z "},"आ":{"ha":1345,"x_min":14,"x_max":1391,"o":"m 1391 700 l 1248 700 l 1248 -66 l 1107 -28 l 1107 700 l 910 700 l 910 -66 l 769 -27 l 769 334 q 680 313 732 313 q 584 334 638 313 q 630 214 630 280 q 597 102 630 149 q 510 30 565 55 q 389 5 455 5 q 177 85 271 5 q 14 322 83 165 l 82 356 q 216 182 153 236 q 351 129 279 129 q 426 146 393 129 q 477 192 458 163 q 495 258 495 222 q 431 393 495 335 q 318 357 382 370 l 245 478 q 419 555 363 511 q 476 659 475 598 q 473 686 476 673 q 465 705 470 699 q 412 716 454 716 q 313 682 368 716 q 210 591 257 648 l 112 700 q 221 785 159 754 q 345 816 282 816 q 456 784 404 816 q 537 701 507 751 q 568 597 568 650 q 490 429 568 493 q 600 403 542 403 q 694 425 648 403 q 769 484 740 447 l 769 700 l 668 700 l 633 805 l 1358 805 l 1391 700 z "},"इ":{"ha":699,"x_min":-43,"x_max":734,"o":"m 498 393 q 573 362 538 393 q 629 288 608 332 q 650 211 650 245 q 559 42 650 92 q 317 -9 469 -9 l 298 -9 q 357 -82 326 -60 q 433 -104 388 -104 q 466 -99 451 -104 q 503 -83 481 -94 l 557 -190 q 446 -226 505 -226 q 355 -199 395 -226 q 282 -124 315 -172 q 213 1 250 -76 q 98 38 144 13 q 51 94 52 64 q 68 149 51 120 q 113 198 86 178 q 163 218 139 218 q 203 190 180 218 q 252 117 227 161 q 315 111 288 111 q 342 113 324 111 q 435 131 390 117 q 509 172 479 146 q 538 234 538 198 q 536 261 538 246 q 530 277 533 277 q 460 264 511 277 q 385 249 418 254 q 316 243 352 243 q 189 282 244 243 q 103 374 134 321 q 73 465 73 427 q 124 568 73 540 q 247 595 176 595 l 417 595 q 420 635 420 610 q 416 700 420 673 l -8 700 l -43 805 l 702 805 l 734 700 l 545 700 q 562 551 562 622 q 559 488 562 528 l 298 488 q 230 470 246 488 q 214 421 214 451 q 218 389 214 405 q 229 363 222 374 q 239 356 233 357 q 258 355 245 355 q 306 361 277 356 q 363 372 334 366 q 440 387 408 382 q 498 393 471 393 z "},"ई":{"ha":699,"x_min":-43,"x_max":734,"o":"m 498 393 q 573 362 538 393 q 629 288 608 332 q 650 211 650 245 q 559 42 650 92 q 317 -9 469 -9 l 298 -9 q 357 -82 326 -60 q 433 -104 388 -104 q 466 -99 451 -104 q 503 -83 481 -94 l 557 -190 q 446 -226 505 -226 q 355 -199 395 -226 q 282 -124 315 -172 q 213 1 250 -76 q 98 38 144 13 q 51 94 52 64 q 68 149 51 120 q 113 198 86 178 q 163 218 139 218 q 203 190 180 218 q 252 117 227 161 q 315 111 288 111 q 342 113 324 111 q 435 131 390 117 q 509 172 479 146 q 538 234 538 198 q 536 261 538 246 q 530 277 533 277 q 460 264 511 277 q 385 249 418 254 q 316 243 352 243 q 189 282 244 243 q 103 374 134 321 q 73 465 73 427 q 124 568 73 540 q 247 595 176 595 l 417 595 q 420 635 420 610 q 416 700 420 673 l -8 700 l -43 805 l 702 805 l 734 700 l 545 700 q 562 551 562 622 q 559 488 562 528 l 298 488 q 230 470 246 488 q 214 421 214 451 q 218 389 214 405 q 229 363 222 374 q 239 356 233 357 q 258 355 245 355 q 306 361 277 356 q 363 372 334 366 q 440 387 408 382 q 498 393 471 393 m 476 751 q 352 867 400 802 q 304 1000 304 931 q 328 1082 304 1046 q 392 1140 351 1119 q 482 1160 432 1160 q 560 1149 524 1160 q 631 1109 595 1138 l 660 1008 q 595 1045 629 1032 q 532 1057 562 1057 q 464 1032 490 1057 q 437 958 437 1006 q 459 869 437 917 q 524 774 481 821 l 476 751 z "},"उ":{"ha":730,"x_min":-35,"x_max":765,"o":"m 519 419 q 638 320 595 373 q 682 203 682 267 q 650 91 682 138 q 564 20 618 44 q 445 -7 510 -5 q 202 69 307 -7 q 20 297 97 144 l 84 336 q 224 169 149 223 q 394 114 300 114 q 469 131 435 114 q 522 178 503 148 q 542 245 542 208 q 523 318 542 281 q 471 384 503 355 q 392 351 435 363 q 301 339 348 340 l 242 459 q 401 503 342 473 q 460 597 460 534 q 453 650 460 623 q 430 700 445 677 l -1 700 l -35 805 l 732 805 l 765 700 l 529 700 q 568 631 554 669 q 581 557 581 593 q 565 482 581 517 q 519 419 549 448 z "},"ऊ":{"ha":975,"x_min":-35,"x_max":1010,"o":"m 734 486 q 834 455 785 486 q 914 376 884 425 q 945 277 945 327 q 925 170 945 221 q 853 69 905 119 l 739 156 q 823 260 800 217 q 847 356 846 303 q 843 385 847 372 q 836 401 840 399 q 802 407 825 407 q 721 381 758 407 q 647 307 685 355 q 683 203 683 257 q 651 91 683 138 q 564 20 618 44 q 445 -7 510 -5 q 203 69 309 -7 q 20 296 97 144 l 84 336 q 223 175 142 236 q 394 114 304 114 q 469 131 435 114 q 523 178 503 148 q 543 245 543 208 q 523 318 543 281 q 471 385 503 355 q 302 339 399 345 l 239 458 q 404 504 346 472 q 462 598 462 536 q 454 649 462 622 q 429 700 446 676 l 0 700 l -35 805 l 977 805 l 1010 700 l 526 700 q 567 630 552 668 q 582 557 582 592 q 565 481 582 516 q 518 419 549 446 q 551 396 528 413 q 641 464 597 442 q 734 486 685 486 z "},"ऋ":{"ha":1114,"x_min":-35,"x_max":1149,"o":"m 479 359 q 369 446 407 421 q 300 470 330 470 q 228 452 264 470 q 133 379 191 435 l 35 499 q 141 569 87 546 q 247 593 195 593 q 317 579 284 593 q 386 539 350 566 q 484 459 422 512 l 484 700 l 1 700 l -35 805 l 1115 805 l 1149 700 l 625 700 l 625 389 q 728 411 684 394 q 808 453 772 427 q 777 545 777 506 q 794 592 777 576 q 844 609 812 609 q 931 581 887 609 q 1010 508 975 553 q 1019 488 1019 497 q 1015 475 1019 481 q 943 406 992 444 q 1002 326 980 358 q 1039 257 1024 294 q 1055 182 1055 220 q 1014 82 1055 127 q 881 9 972 36 q 857 4 874 7 l 797 146 q 951 243 951 174 q 933 303 951 271 q 884 372 916 336 q 757 321 822 335 q 625 304 692 307 l 625 -67 l 484 -26 l 484 237 l 171 -7 l 79 122 l 479 359 z "},"ॠ":{"ha":1145,"x_min":-35,"x_max":1202,"o":"m 470 365 q 361 443 401 419 q 289 466 321 466 q 222 446 258 466 q 128 376 185 425 l 33 499 q 141 569 84 545 q 250 593 199 593 q 315 581 283 593 q 384 542 347 569 q 475 467 421 515 l 475 700 l 1 700 l -35 805 l 1147 805 l 1180 700 l 617 700 l 617 434 q 669 441 637 433 q 720 463 700 450 q 755 538 728 505 q 821 591 782 572 q 903 610 860 610 q 933 590 916 610 q 965 547 951 571 q 979 511 979 523 q 956 474 979 498 q 895 427 933 450 q 814 394 857 404 q 801 363 802 383 q 869 325 801 325 q 932 338 901 325 q 1010 382 964 351 l 1082 269 q 991 214 1021 234 q 948 176 962 195 q 933 136 933 158 q 994 100 933 102 q 1058 113 1026 100 q 1128 157 1089 125 l 1202 47 q 1040 -19 1129 -19 q 950 11 991 -19 q 884 84 909 40 q 860 171 860 129 q 863 198 860 184 q 871 220 866 212 q 790 266 829 230 q 732 352 750 302 q 617 343 680 341 l 617 -66 l 475 -26 l 475 245 l 174 -7 l 77 118 l 470 365 z "},"ऌ":{"ha":1018,"x_min":-35,"x_max":1059,"o":"m 1059 -21 q 971 -92 1017 -68 q 873 -116 926 -116 q 765 -85 824 -116 q 665 -6 705 -54 q 624 87 624 41 q 643 155 624 123 q 701 235 662 188 l 729 271 q 779 345 761 313 q 797 405 796 377 q 796 433 798 418 q 790 452 794 448 q 761 470 783 462 q 710 479 739 479 q 600 430 652 479 q 520 256 548 382 l 384 294 q 436 445 399 383 q 334 467 383 467 q 244 430 279 467 q 210 323 210 393 q 270 155 210 241 q 441 -3 329 70 l 404 -66 q 147 127 239 18 q 55 354 55 237 q 84 467 55 420 q 163 537 113 513 q 272 561 212 561 q 367 543 319 561 q 467 487 415 526 q 532 536 494 516 q 612 563 570 555 q 626 645 626 603 q 625 700 627 669 l 0 700 l -35 805 l 1019 805 l 1052 700 l 719 700 q 743 589 741 637 q 741 551 743 564 q 828 497 789 533 q 889 416 867 461 q 911 326 911 371 q 899 266 911 296 q 868 209 886 236 q 819 142 850 182 l 807 128 q 767 69 779 92 q 755 22 755 46 q 761 -4 755 2 q 772 -9 763 -7 q 790 -12 781 -12 q 866 11 827 -12 q 960 88 905 33 l 1059 -21 z "},"ॡ":{"ha":1059,"x_min":-35,"x_max":1122,"o":"m 1122 -216 q 1035 -284 1075 -266 q 942 -302 994 -302 q 904 -297 926 -302 q 866 -284 883 -292 q 800 -242 831 -270 q 749 -179 768 -214 q 730 -111 730 -144 q 739 -60 730 -89 q 648 14 684 -29 q 612 101 612 58 q 630 157 612 127 q 687 233 649 186 l 715 269 q 768 346 750 313 q 787 405 787 378 q 786 433 788 418 q 780 452 784 448 q 751 470 773 462 q 701 479 729 479 q 511 256 564 479 l 375 293 q 425 445 386 385 q 330 467 374 467 q 236 432 271 467 q 201 333 201 397 q 255 162 201 245 q 432 -4 309 80 l 395 -66 q 213 54 292 -15 q 90 201 134 123 q 45 357 45 279 q 75 469 45 422 q 153 538 104 515 q 262 561 203 561 q 458 487 357 561 q 523 536 486 517 q 602 563 560 555 q 616 667 616 607 q 615 700 616 677 l 1 700 l -35 805 l 1063 805 l 1096 700 l 709 700 q 733 589 731 634 q 732 551 733 564 q 818 497 779 533 q 879 416 857 461 q 901 326 901 371 q 889 274 901 300 q 860 224 878 248 q 812 163 843 201 l 798 146 q 758 89 770 113 q 745 41 745 65 q 751 14 745 22 q 762 9 753 12 q 781 7 771 7 q 857 28 820 7 q 949 107 894 50 l 1046 -1 q 960 -74 1002 -50 q 864 -98 918 -98 q 850 -97 854 -98 q 836 -125 841 -110 q 831 -153 831 -140 q 834 -171 831 -163 q 841 -184 837 -180 q 860 -192 845 -188 q 894 -195 876 -195 q 962 -178 928 -195 q 1038 -118 996 -161 l 1122 -216 z "},"ऍ":{"ha":788,"x_min":-35,"x_max":819,"o":"m 221 1097 q 277 1028 250 1053 q 328 996 304 1004 q 382 987 353 987 q 465 1020 426 988 q 541 1109 503 1051 l 630 1022 q 535 916 588 949 q 417 883 482 883 q 279 931 345 883 q 170 1067 214 979 l 221 1097 m 1 700 l -35 805 l 786 805 l 819 700 l 700 700 l 700 452 q 689 338 700 381 q 652 266 678 295 q 575 211 625 237 l 467 304 q 522 340 503 323 q 548 377 541 357 q 555 427 555 397 l 555 700 l 250 700 l 250 357 q 257 312 250 326 q 283 284 263 298 q 562 104 368 227 q 626 45 608 75 q 643 -36 643 15 q 621 -118 643 -78 q 546 -218 600 -159 l 425 -126 q 486 -60 470 -84 q 503 -12 503 -36 q 495 22 503 7 q 467 49 487 36 q 214 209 353 123 q 144 261 168 237 q 113 313 121 285 q 104 387 104 342 l 104 700 l 1 700 z "},"ऎ":{"ha":784,"x_min":-35,"x_max":819,"o":"m 819 700 l 700 700 l 700 452 q 689 338 700 381 q 652 266 678 295 q 575 211 625 237 l 467 304 q 522 340 503 323 q 548 377 541 357 q 555 427 555 397 l 555 700 l 250 700 l 250 357 q 257 312 250 326 q 283 284 263 298 q 562 104 368 227 q 626 45 608 75 q 643 -36 643 15 q 621 -118 643 -78 q 546 -218 600 -159 l 425 -126 q 486 -60 470 -84 q 503 -12 503 -36 q 495 22 503 7 q 467 49 487 36 q 214 209 353 123 q 144 261 168 237 q 113 313 121 285 q 104 387 104 342 l 104 700 l 1 700 l -35 805 l 583 805 q 547 860 567 838 q 495 899 528 882 q 446 916 475 910 q 366 927 417 921 q 274 940 309 933 q 212 961 239 947 q 124 1052 151 994 q 96 1176 97 1110 l 147 1208 q 198 1125 176 1150 q 255 1086 220 1099 q 305 1071 277 1076 q 380 1059 332 1065 q 467 1044 434 1051 q 529 1025 500 1038 q 622 941 589 999 q 658 805 655 884 l 786 805 l 819 700 z "},"ए":{"ha":784,"x_min":-35,"x_max":819,"o":"m 1 700 l -35 805 l 786 805 l 819 700 l 700 700 l 700 452 q 689 338 700 381 q 652 266 678 295 q 575 211 625 237 l 467 304 q 522 340 503 323 q 548 377 541 357 q 555 427 555 397 l 555 700 l 250 700 l 250 357 q 257 312 250 326 q 283 284 263 298 q 562 104 368 227 q 626 45 608 75 q 643 -36 643 15 q 621 -118 643 -78 q 546 -218 600 -159 l 425 -126 q 486 -60 470 -84 q 503 -12 503 -36 q 495 22 503 7 q 467 49 487 36 q 214 209 353 123 q 144 261 168 237 q 113 313 121 285 q 104 387 104 342 l 104 700 l 1 700 z "},"ऐ":{"ha":784,"x_min":-35,"x_max":819,"o":"m 819 700 l 700 700 l 700 452 q 689 338 700 381 q 652 266 678 295 q 575 211 625 237 l 467 304 q 522 340 503 323 q 548 377 541 357 q 555 427 555 397 l 555 700 l 250 700 l 250 357 q 257 312 250 326 q 283 284 263 298 q 562 104 368 227 q 626 45 608 75 q 643 -36 643 15 q 621 -118 643 -78 q 546 -218 600 -159 l 425 -126 q 486 -60 470 -84 q 503 -12 503 -36 q 495 22 503 7 q 467 49 487 36 q 214 209 353 123 q 144 261 168 237 q 113 313 121 285 q 104 387 104 342 l 104 700 l 1 700 l -35 805 l 568 805 q 509 900 543 855 q 443 976 475 945 q 393 1017 412 1007 q 322 1025 370 1025 q 210 1007 276 1025 l 167 1137 q 232 1156 199 1152 q 302 1161 266 1161 q 386 1146 347 1160 q 454 1110 425 1132 q 572 978 515 1062 q 659 805 628 894 l 786 805 l 819 700 z "},"ऑ":{"ha":1358,"x_min":14,"x_max":1391,"o":"m 1391 700 l 1248 700 l 1248 -66 l 1107 -28 l 1107 700 l 910 700 l 910 -66 l 769 -27 l 769 334 q 680 313 732 313 q 584 334 638 313 q 630 214 630 280 q 597 102 630 149 q 510 30 565 55 q 389 5 455 5 q 177 85 271 5 q 14 322 83 165 l 82 356 q 216 182 153 236 q 351 129 279 129 q 426 146 393 129 q 477 192 458 163 q 495 258 495 222 q 431 393 495 335 q 318 357 382 370 l 245 478 q 419 555 363 511 q 476 659 475 598 q 473 686 476 673 q 465 705 470 699 q 412 716 454 716 q 313 682 368 716 q 210 591 257 648 l 112 700 q 221 785 159 754 q 345 816 282 816 q 456 784 404 816 q 537 701 507 751 q 568 597 568 650 q 490 429 568 493 q 600 403 542 403 q 694 425 648 403 q 769 484 740 447 l 769 700 l 668 700 l 633 805 l 1358 805 l 1391 700 m 825 1097 q 881 1028 854 1053 q 932 996 907 1004 q 985 987 956 987 q 1068 1020 1029 988 q 1144 1109 1107 1051 l 1234 1022 q 1139 916 1192 949 q 1021 883 1086 883 q 883 931 949 883 q 774 1067 817 979 l 825 1097 z "},"ऒ":{"ha":1365,"x_min":14,"x_max":1391,"o":"m 1391 700 l 1248 700 l 1248 -66 l 1107 -28 l 1107 700 l 910 700 l 910 -66 l 769 -27 l 769 334 q 680 313 732 313 q 584 334 638 313 q 630 214 630 280 q 597 102 630 149 q 510 30 565 55 q 389 5 455 5 q 177 85 271 5 q 14 322 83 165 l 82 356 q 216 182 153 236 q 351 129 279 129 q 426 146 393 129 q 477 192 458 163 q 495 258 495 222 q 431 393 495 335 q 318 357 382 370 l 245 478 q 419 555 363 511 q 476 659 475 598 q 473 686 476 673 q 465 705 470 699 q 412 716 454 716 q 313 682 368 716 q 210 591 257 648 l 112 700 q 221 785 159 754 q 345 816 282 816 q 456 784 404 816 q 537 701 507 751 q 568 597 568 650 q 490 429 568 493 q 600 403 542 403 q 694 425 648 403 q 769 484 740 447 l 769 700 l 668 700 l 633 805 l 1155 805 q 1120 860 1139 838 q 1067 899 1100 882 q 1018 916 1047 910 q 938 927 989 921 q 847 940 882 933 q 785 961 812 947 q 696 1052 723 994 q 668 1176 669 1110 l 720 1208 q 770 1125 748 1150 q 827 1086 793 1099 q 877 1071 850 1076 q 952 1059 904 1065 q 1039 1044 1006 1051 q 1101 1025 1072 1038 q 1195 941 1162 999 q 1230 805 1227 884 l 1358 805 l 1391 700 z "},"ओ":{"ha":1345,"x_min":14,"x_max":1391,"o":"m 1391 700 l 1248 700 l 1248 -66 l 1107 -28 l 1107 700 l 910 700 l 910 -66 l 769 -27 l 769 334 q 680 313 732 313 q 584 334 638 313 q 630 214 630 280 q 597 102 630 149 q 510 30 565 55 q 389 5 455 5 q 177 85 271 5 q 14 322 83 165 l 82 356 q 216 182 153 236 q 351 129 279 129 q 426 146 393 129 q 477 192 458 163 q 495 258 495 222 q 431 393 495 335 q 318 357 382 370 l 245 478 q 419 555 363 511 q 476 659 475 598 q 473 686 476 673 q 465 705 470 699 q 412 716 454 716 q 313 682 368 716 q 210 591 257 648 l 112 700 q 221 785 159 754 q 345 816 282 816 q 456 784 404 816 q 537 701 507 751 q 568 597 568 650 q 490 429 568 493 q 600 403 542 403 q 694 425 648 403 q 769 484 740 447 l 769 700 l 668 700 l 633 805 l 1140 805 q 1081 900 1115 855 q 1016 976 1047 945 q 966 1017 984 1007 q 895 1025 942 1025 q 782 1007 848 1025 l 739 1137 q 805 1156 771 1152 q 874 1161 838 1161 q 959 1146 920 1160 q 1026 1110 998 1132 q 1144 978 1088 1062 q 1231 805 1200 894 l 1358 805 l 1391 700 z "},"औ":{"ha":1345,"x_min":14,"x_max":1391,"o":"m 1391 700 l 1248 700 l 1248 -66 l 1107 -28 l 1107 700 l 910 700 l 910 -66 l 769 -27 l 769 334 q 680 313 732 313 q 584 334 638 313 q 630 214 630 280 q 597 102 630 149 q 510 30 565 55 q 389 5 455 5 q 177 85 271 5 q 14 322 83 165 l 82 356 q 216 182 153 236 q 351 129 279 129 q 426 146 393 129 q 477 192 458 163 q 495 258 495 222 q 431 393 495 335 q 318 357 382 370 l 245 478 q 419 555 363 511 q 476 659 475 598 q 473 686 476 673 q 465 705 470 699 q 412 716 454 716 q 313 682 368 716 q 210 591 257 648 l 112 700 q 221 785 159 754 q 345 816 282 816 q 456 784 404 816 q 537 701 507 751 q 568 597 568 650 q 490 429 568 493 q 600 403 542 403 q 694 425 648 403 q 769 484 740 447 l 769 700 l 668 700 l 633 805 l 1107 805 q 1009 872 1058 852 q 900 892 960 892 q 847 887 870 892 q 791 870 824 882 l 748 991 q 872 1019 810 1019 q 1014 978 945 1019 q 1154 841 1082 937 q 1071 995 1114 934 q 978 1089 1028 1055 q 903 1101 944 1101 q 792 1086 848 1101 l 749 1201 q 875 1225 808 1225 q 1097 1121 1013 1225 q 1231 805 1181 1017 l 1358 805 l 1391 700 z "},"ॳ":{"ha":1023,"x_min":14,"x_max":1059,"o":"m 1059 700 l 910 700 l 910 -66 l 769 -27 l 769 334 q 680 313 732 313 q 584 334 638 313 q 630 214 630 280 q 597 102 630 149 q 510 30 565 55 q 389 5 455 5 q 177 85 271 5 q 14 322 83 165 l 82 356 q 216 182 153 236 q 351 129 279 129 q 426 146 393 129 q 477 192 458 163 q 495 258 495 222 q 431 393 495 335 q 318 357 382 370 l 245 478 q 419 555 363 511 q 476 659 475 598 q 473 686 476 673 q 465 705 470 699 q 412 716 454 716 q 313 682 368 716 q 210 591 257 648 l 112 700 q 221 785 159 754 q 345 816 282 816 q 456 784 404 816 q 537 701 507 751 q 568 597 568 650 q 490 429 568 493 q 600 403 542 403 q 694 425 648 403 q 769 484 740 447 l 769 700 l 668 700 l 633 805 l 772 805 l 772 968 l 914 927 l 914 805 l 1025 805 l 1059 700 z "},"ॴ":{"ha":1345,"x_min":14,"x_max":1391,"o":"m 1391 700 l 1248 700 l 1248 -66 l 1107 -28 l 1107 700 l 910 700 l 910 -66 l 769 -27 l 769 334 q 680 313 732 313 q 584 334 638 313 q 630 214 630 280 q 597 102 630 149 q 510 30 565 55 q 389 5 455 5 q 177 85 271 5 q 14 322 83 165 l 82 356 q 216 182 153 236 q 351 129 279 129 q 426 146 393 129 q 477 192 458 163 q 495 258 495 222 q 431 393 495 335 q 318 357 382 370 l 245 478 q 419 555 363 511 q 476 659 475 598 q 473 686 476 673 q 465 705 470 699 q 412 716 454 716 q 313 682 368 716 q 210 591 257 648 l 112 700 q 221 785 159 754 q 345 816 282 816 q 456 784 404 816 q 537 701 507 751 q 568 597 568 650 q 490 429 568 493 q 600 403 542 403 q 694 425 648 403 q 769 484 740 447 l 769 700 l 668 700 l 633 805 l 1116 805 l 1116 968 l 1258 927 l 1258 805 l 1358 805 l 1391 700 z "},"ॵ":{"ha":1365,"x_min":14,"x_max":1391,"o":"m 1391 700 l 1248 700 l 1248 -66 l 1107 -28 l 1107 700 l 910 700 l 910 -66 l 769 -27 l 769 334 q 680 313 732 313 q 584 334 638 313 q 630 214 630 280 q 597 102 630 149 q 510 30 565 55 q 389 5 455 5 q 177 85 271 5 q 14 322 83 165 l 82 356 q 216 182 153 236 q 351 129 279 129 q 426 146 393 129 q 477 192 458 163 q 495 258 495 222 q 431 393 495 335 q 318 357 382 370 l 245 478 q 419 555 363 511 q 476 659 475 598 q 473 686 476 673 q 465 705 470 699 q 412 716 454 716 q 313 682 368 716 q 210 591 257 648 l 112 700 q 221 785 159 754 q 345 816 282 816 q 456 784 404 816 q 537 701 507 751 q 568 597 568 650 q 490 429 568 493 q 600 403 542 403 q 694 425 648 403 q 769 484 740 447 l 769 700 l 668 700 l 633 805 l 1147 805 q 1099 842 1126 831 q 1031 854 1072 853 l 1008 855 q 919 850 971 855 q 878 848 911 850 q 810 846 844 846 q 668 891 727 846 q 589 1011 609 937 l 629 1055 q 720 976 677 998 q 817 953 762 953 q 897 956 841 953 q 1003 960 962 960 q 1104 930 1059 960 q 1181 848 1149 901 q 1143 931 1168 901 q 1073 976 1119 962 q 1028 986 1053 982 q 966 994 1004 989 q 869 1008 908 1001 q 800 1031 831 1016 q 713 1111 738 1061 q 686 1227 688 1160 l 736 1264 q 771 1198 755 1222 q 804 1160 787 1174 q 846 1137 821 1147 q 893 1121 868 1127 q 964 1108 919 1116 q 1048 1091 1019 1098 q 1107 1072 1078 1084 q 1200 977 1168 1044 q 1232 805 1232 909 l 1358 805 l 1391 700 z "},"ॶ":{"ha":1023,"x_min":14,"x_max":1059,"o":"m 1059 700 l 910 700 l 910 -66 l 769 -27 l 769 334 q 680 313 732 313 q 584 334 638 313 q 630 214 630 280 q 597 102 630 149 q 510 30 565 55 q 389 5 455 5 q 177 85 271 5 q 14 322 83 165 l 82 356 q 216 182 153 236 q 351 129 279 129 q 426 146 393 129 q 477 192 458 163 q 495 258 495 222 q 431 393 495 335 q 318 357 382 370 l 245 478 q 419 555 363 511 q 476 659 475 598 q 473 686 476 673 q 465 705 470 699 q 412 716 454 716 q 313 682 368 716 q 210 591 257 648 l 112 700 q 221 785 159 754 q 345 816 282 816 q 456 784 404 816 q 537 701 507 751 q 568 597 568 650 q 490 429 568 493 q 600 403 542 403 q 694 425 648 403 q 769 484 740 447 l 769 700 l 668 700 l 633 805 l 1025 805 l 1059 700 m 489 -85 q 585 -167 539 -144 q 683 -191 631 -191 q 789 -160 738 -191 q 892 -66 841 -130 l 977 -145 q 860 -255 922 -220 q 723 -290 798 -290 q 572 -253 642 -290 q 441 -122 503 -215 l 489 -85 z "},"ॷ":{"ha":1023,"x_min":14,"x_max":1059,"o":"m 1059 700 l 910 700 l 910 -66 l 769 -27 l 769 334 q 680 313 732 313 q 584 334 638 313 q 630 214 630 280 q 597 102 630 149 q 510 30 565 55 q 389 5 455 5 q 177 85 271 5 q 14 322 83 165 l 82 356 q 216 182 153 236 q 351 129 279 129 q 426 146 393 129 q 477 192 458 163 q 495 258 495 222 q 431 393 495 335 q 318 357 382 370 l 245 478 q 419 555 363 511 q 476 659 475 598 q 473 686 476 673 q 465 705 470 699 q 412 716 454 716 q 313 682 368 716 q 210 591 257 648 l 112 700 q 221 785 159 754 q 345 816 282 816 q 456 784 404 816 q 537 701 507 751 q 568 597 568 650 q 490 429 568 493 q 600 403 542 403 q 694 425 648 403 q 769 484 740 447 l 769 700 l 668 700 l 633 805 l 1025 805 l 1059 700 m 489 -85 q 585 -167 539 -144 q 683 -191 631 -191 q 789 -160 738 -191 q 892 -66 841 -130 l 977 -145 q 860 -255 922 -220 q 723 -290 798 -290 q 572 -253 642 -290 q 441 -122 503 -215 l 489 -85 m 489 -85 q 585 -167 539 -144 q 683 -191 631 -191 q 789 -160 738 -191 q 892 -66 841 -130 l 977 -145 q 860 -255 922 -220 q 723 -290 798 -290 q 572 -253 642 -290 q 441 -122 503 -215 l 489 -85 z "},"ा":{"ha":357,"x_min":-39,"x_max":395,"o":"m -4 700 l -39 805 l 362 805 l 395 700 l 252 700 l 252 -66 l 111 -28 l 111 700 l -4 700 z "},"ि":{"ha":344,"x_min":-37,"x_max":839,"o":"m 338 1035 q 233 1001 273 1035 q 192 907 192 966 q 222 805 193 859 l 344 805 l 377 700 l 257 700 l 257 -68 l 115 -27 l 115 700 l -1 700 l -37 805 l 125 805 q 75 896 94 849 q 56 981 56 942 q 83 1074 56 1034 q 161 1138 110 1115 q 281 1160 212 1160 q 561 1081 412 1160 q 839 897 711 1001 l 793 838 q 542 983 660 932 q 338 1035 425 1035 z "},"ी":{"ha":363,"x_min":-334,"x_max":398,"o":"m -1 700 l -37 805 l 115 805 q 66 926 98 871 q 2 1017 34 982 q -47 1059 -31 1052 q -94 1068 -67 1068 q -162 1041 -135 1068 q -190 973 -190 1014 q -183 931 -190 950 q -162 880 -177 912 l -155 867 l -220 840 q -303 916 -273 873 q -334 1011 -334 959 q -311 1089 -334 1055 q -245 1141 -288 1122 q -150 1159 -203 1159 q -13 1124 -84 1159 q 129 1009 59 1088 q 252 805 199 930 l 365 805 l 398 700 l 262 700 l 262 -68 l 120 -27 l 120 700 l -1 700 z "},"ॉ":{"ha":357,"x_min":-206,"x_max":395,"o":"m -4 700 l -39 805 l 362 805 l 395 700 l 252 700 l 252 -66 l 111 -28 l 111 700 l -4 700 m -155 1097 q -99 1028 -126 1053 q -48 996 -73 1004 q 5 987 -24 987 q 88 1020 50 988 q 164 1109 127 1051 l 254 1022 q 159 916 212 949 q 41 883 106 883 q -97 931 -31 883 q -206 1067 -163 979 l -155 1097 z "},"ॊ":{"ha":357,"x_min":-334,"x_max":395,"o":"m 395 700 l 252 700 l 252 -66 l 111 -28 l 111 700 l -4 700 l -39 805 l 153 805 q 117 860 137 838 q 65 899 98 882 q 16 916 45 910 q -64 927 -13 921 q -156 940 -121 933 q -218 961 -191 947 q -306 1052 -279 994 q -334 1176 -333 1110 l -283 1208 q -232 1125 -254 1150 q -175 1086 -210 1099 q -125 1071 -153 1076 q -50 1059 -98 1065 q 37 1044 4 1051 q 99 1025 71 1038 q 192 941 159 999 q 228 805 225 884 l 362 805 l 395 700 z "},"ो":{"ha":357,"x_min":-263,"x_max":395,"o":"m 395 700 l 252 700 l 252 -66 l 111 -28 l 111 700 l -4 700 l -39 805 l 138 805 q 79 900 113 855 q 13 976 45 945 q -37 1017 -18 1007 q -108 1025 -60 1025 q -220 1007 -154 1025 l -263 1137 q -198 1156 -231 1152 q -128 1161 -164 1161 q -44 1146 -83 1160 q 24 1110 -5 1132 q 142 978 85 1062 q 229 805 198 894 l 362 805 l 395 700 z "},"ौ":{"ha":357,"x_min":-254,"x_max":395,"o":"m 395 700 l 252 700 l 252 -66 l 111 -28 l 111 700 l -4 700 l -39 805 l 104 805 q 6 872 56 852 q -102 892 -43 892 q -155 887 -132 892 q -211 870 -178 882 l -254 991 q -130 1019 -192 1019 q 12 978 -57 1019 q 151 841 80 937 q 69 995 112 934 q -24 1089 26 1055 q -99 1101 -58 1101 q -210 1086 -155 1101 l -253 1201 q -127 1225 -195 1225 q 95 1121 10 1225 q 229 805 179 1017 l 362 805 l 395 700 z "},"ॎ":{"ha":391,"x_min":136,"x_max":425,"o":"m 391 805 l 425 700 l 278 700 l 278 -66 l 136 -27 l 136 805 l 391 805 z "},"ऻ":{"ha":370,"x_min":-29,"x_max":405,"o":"m 405 700 l 262 700 l 262 -66 l 121 -28 l 121 700 l 6 700 l -29 805 l 124 805 l 124 974 l 265 932 l 265 805 l 372 805 l 405 700 z "},"ॏ":{"ha":390,"x_min":-398,"x_max":428,"o":"m 428 700 l 278 700 l 278 -68 l 136 -27 l 136 700 l -1 700 l -37 805 l 159 805 q 110 844 138 833 q 41 855 82 855 q -47 850 18 855 q -167 843 -123 843 q -315 883 -254 843 q -398 1008 -376 924 l -359 1053 q -300 993 -326 1013 q -252 965 -274 972 q -201 954 -231 957 q -174 954 -193 954 q -98 956 -152 954 q 3 959 -35 959 q 193 848 129 959 q 156 931 180 901 q 85 976 132 962 q 41 986 66 982 q -21 994 16 989 q -118 1008 -79 1001 q -187 1031 -157 1016 q -274 1111 -250 1061 q -302 1227 -299 1160 l -251 1264 q -216 1198 -232 1222 q -184 1160 -201 1174 q -142 1137 -167 1147 q -94 1121 -119 1127 q -24 1108 -68 1116 q 61 1091 31 1098 q 119 1072 90 1084 q 213 977 181 1044 q 245 805 244 909 l 395 805 l 428 700 z "},"क":{"ha":1084,"x_min":-35,"x_max":1120,"o":"m 800 566 q 915 528 861 566 q 1002 434 969 491 q 1035 322 1035 377 q 837 40 1035 158 l 708 143 q 839 235 790 193 q 909 319 887 277 q 931 409 931 361 q 925 442 931 434 q 903 456 920 450 q 864 463 886 463 q 733 418 801 463 q 616 301 665 374 l 616 -68 l 475 -26 l 475 149 q 397 113 439 125 q 311 100 355 100 q 184 138 247 100 q 81 236 121 176 q 41 363 41 297 q 67 475 41 428 q 144 548 94 523 q 262 573 194 573 q 475 481 372 573 l 475 700 l 1 700 l -35 805 l 1085 805 l 1120 700 l 616 700 l 616 492 q 800 566 699 566 m 255 197 q 334 214 292 197 q 414 260 376 231 q 475 324 451 290 l 475 416 q 402 450 438 439 q 328 461 366 461 q 225 427 263 461 q 186 328 186 392 q 221 207 186 254 q 255 197 230 197 z "},"ख":{"ha":1084,"x_min":-35,"x_max":1120,"o":"m 1120 700 l 979 700 l 979 -68 l 837 -27 l 837 181 q 778 160 811 168 q 709 153 744 153 q 569 185 632 153 q 470 274 506 218 q 434 399 434 330 q 459 494 434 453 q 530 557 484 535 q 636 580 576 580 q 743 560 691 580 q 837 504 795 541 l 837 700 l 354 700 q 379 613 370 661 q 389 524 389 565 q 338 368 389 429 q 186 277 287 307 q 507 66 289 66 q 582 73 549 66 q 656 96 616 80 l 713 -31 q 638 -56 675 -48 q 551 -63 602 -63 q 323 -6 423 -63 q 155 164 222 52 q 58 439 88 276 l 144 475 l 222 435 q 239 491 233 456 q 245 566 245 526 q 232 700 245 627 l 0 700 l -35 805 l 1086 805 l 1120 700 m 644 231 q 754 259 702 231 q 837 338 806 287 l 837 444 q 771 467 807 458 q 704 475 736 475 q 614 443 646 475 q 582 353 582 411 q 592 288 582 319 q 621 237 603 256 q 644 231 627 231 z "},"ग":{"ha":854,"x_min":-35,"x_max":889,"o":"m -35 805 l 856 805 l 889 700 l 739 700 l 739 -68 l 597 -27 l 597 700 l 354 700 q 371 556 365 633 q 376 425 376 479 q 366 299 376 357 q 336 206 355 241 q 297 172 318 172 q 214 215 265 172 q 121 312 162 258 q 81 390 81 366 q 112 417 81 408 q 201 427 143 427 q 229 426 213 427 q 233 466 231 440 q 235 519 235 492 q 223 700 235 631 l 1 700 l -35 805 z "},"घ":{"ha":867,"x_min":-35,"x_max":903,"o":"m 903 700 l 767 700 l 767 -68 l 625 -28 l 625 144 q 530 91 579 109 q 424 74 481 74 q 287 107 357 74 q 170 197 216 140 q 124 323 124 254 q 140 395 124 361 q 186 454 157 428 q 101 527 133 485 q 68 621 68 569 q 91 700 68 665 l 2 700 l -35 805 l 869 805 l 903 700 m 625 700 l 325 700 q 240 671 271 700 q 209 593 209 643 q 218 542 209 568 q 245 494 227 516 q 413 532 319 530 l 474 411 q 302 358 362 399 q 243 256 243 318 q 269 191 244 214 q 292 181 275 185 q 328 178 310 178 q 446 202 387 178 q 553 269 505 226 q 625 366 600 311 l 625 700 z "},"ङ":{"ha":965,"x_min":-35,"x_max":1000,"o":"m -35 805 l 966 805 l 1000 700 l 631 700 q 650 560 650 631 q 646 496 650 539 l 395 496 q 326 483 351 496 q 302 431 302 470 q 306 394 302 412 q 316 365 310 376 q 325 358 319 360 q 341 356 331 356 q 381 361 359 356 q 446 377 404 366 q 525 396 494 390 q 583 403 556 403 q 625 393 604 403 q 685 345 656 376 q 732 281 714 315 q 751 222 751 248 q 716 97 751 149 q 623 18 681 45 q 493 -12 564 -9 q 229 78 344 -14 q 35 317 115 170 l 96 355 q 230 196 166 250 q 345 127 294 142 q 451 113 396 112 q 539 131 499 113 q 603 180 579 149 q 626 252 626 212 q 622 281 626 273 q 612 284 620 284 q 585 280 602 284 q 549 271 568 276 q 476 252 507 258 q 409 245 445 245 q 287 286 343 245 q 197 383 231 326 q 164 482 164 439 q 216 578 164 553 q 345 604 268 604 l 508 604 q 511 644 511 618 q 507 700 511 675 l 1 700 l -35 805 m 846 499 q 886 479 863 499 q 928 433 909 458 q 946 397 946 408 q 926 357 946 381 q 881 315 906 333 q 843 296 856 296 q 805 317 828 296 q 763 362 781 337 q 744 399 744 387 q 763 440 744 416 q 808 481 783 464 q 846 499 833 499 z "},"च":{"ha":895,"x_min":-35,"x_max":930,"o":"m 781 700 l 781 -69 l 640 -26 l 640 135 q 485 77 574 77 q 340 110 412 77 q 222 199 268 143 q 176 321 176 256 q 227 434 176 391 l 81 434 l 44 545 l 509 545 l 543 434 l 530 434 q 369 389 425 433 q 313 266 313 346 q 318 222 313 241 q 330 195 323 203 q 354 186 338 189 q 391 182 371 182 q 493 204 444 182 q 579 268 541 227 q 640 368 618 310 l 640 700 l 2 700 l -35 805 l 897 805 l 930 700 l 781 700 z "},"छ":{"ha":911,"x_min":-35,"x_max":947,"o":"m 748 580 q 837 483 804 547 q 869 344 869 419 q 815 145 869 230 q 666 14 761 60 q 451 -32 570 -32 q 266 10 351 -32 q 131 120 181 52 q 81 267 81 189 q 106 364 81 319 q 179 444 132 410 q 86 512 120 467 q 52 614 52 557 q 78 700 52 663 l 1 700 l -35 805 l 913 805 l 947 700 l 731 700 q 750 612 749 655 q 748 580 750 596 m 367 67 q 563 115 474 67 q 699 243 651 163 q 534 338 585 282 q 482 461 482 395 q 502 537 482 505 q 555 588 522 570 q 630 608 589 606 q 639 675 639 641 q 638 700 639 692 l 308 700 q 227 667 256 700 q 198 581 198 634 q 238 478 198 517 q 369 514 297 505 l 422 380 q 269 317 318 359 q 220 210 220 275 q 233 132 220 168 q 268 83 247 95 q 310 72 279 76 q 367 67 340 67 m 690 535 q 636 511 657 535 q 616 452 616 488 q 644 361 616 403 q 723 292 673 320 q 744 404 744 346 q 736 481 744 448 q 719 527 728 515 q 707 533 715 531 q 690 535 699 535 z "},"ज":{"ha":974,"x_min":-35,"x_max":1009,"o":"m 415 52 q 182 158 275 52 q 33 473 90 264 l 104 496 q 225 268 156 349 q 376 188 294 188 q 455 217 427 188 q 484 292 484 246 q 447 382 484 347 q 335 450 411 418 l 317 530 l 739 530 l 739 700 l 1 700 l -35 805 l 976 805 l 1009 700 l 880 700 l 880 -68 l 739 -27 l 739 420 l 502 420 q 598 340 565 388 q 631 240 631 293 q 603 141 631 184 q 526 75 575 98 q 415 52 477 52 z "},"झ":{"ha":1019,"x_min":-35,"x_max":1057,"o":"m 1057 700 l 928 700 l 928 -69 l 790 -28 l 790 261 q 703 243 744 243 q 637 258 670 243 q 646 210 646 230 q 557 42 646 96 q 317 -11 469 -11 l 310 -11 q 368 -77 337 -58 q 444 -96 399 -96 q 478 -92 463 -96 q 515 -75 494 -87 l 568 -184 q 512 -210 537 -203 q 458 -218 486 -218 q 366 -193 406 -218 q 293 -121 326 -168 q 224 0 260 -75 q 105 44 155 15 q 56 104 56 74 q 75 155 56 128 q 122 201 94 182 q 176 220 151 220 q 212 194 192 220 q 261 115 231 168 q 329 109 290 109 q 426 124 377 109 q 508 169 475 140 q 541 240 541 199 q 539 268 542 255 q 532 281 536 281 q 460 266 509 281 q 400 251 425 256 q 349 245 376 245 q 216 285 272 245 q 130 377 159 324 q 101 469 101 430 q 148 572 101 545 q 275 599 194 599 l 422 599 q 425 643 425 614 q 421 700 425 678 l 1 700 l -35 805 l 1025 805 l 1057 700 m 647 338 q 723 355 685 338 q 790 399 760 372 l 790 700 l 551 700 q 567 554 567 628 q 563 490 567 526 l 326 490 q 259 471 275 490 q 243 421 243 452 q 248 392 243 408 q 258 367 252 376 q 268 359 261 361 q 289 358 275 358 q 320 362 302 358 q 368 373 338 366 q 439 389 412 384 q 494 394 466 394 q 532 385 513 394 q 585 347 562 373 q 647 338 615 338 z "},"ञ":{"ha":1058,"x_min":-37,"x_max":1093,"o":"m 1093 700 l 962 700 l 962 -68 l 822 -28 l 822 332 q 749 323 785 323 q 700 327 724 323 q 701 304 701 312 q 672 186 701 237 q 587 108 642 136 q 454 81 531 81 q 271 131 353 81 q 130 271 188 182 q 39 475 71 359 l 108 503 q 262 279 183 343 q 425 214 342 214 q 511 232 473 214 q 571 284 549 250 q 593 363 593 318 q 583 424 593 395 q 562 462 573 454 q 537 472 553 469 q 501 476 520 476 q 421 463 460 476 q 333 419 382 450 l 267 538 q 344 575 303 562 q 425 587 385 587 q 532 565 481 587 q 622 502 583 542 q 682 408 661 461 q 764 427 726 410 q 822 477 802 444 l 822 700 l -1 700 l -37 805 l 1059 805 l 1093 700 z "},"ट":{"ha":787,"x_min":-35,"x_max":823,"o":"m 259 127 q 304 107 269 117 q 380 98 339 98 q 517 130 454 98 q 643 230 580 161 l 740 117 q 611 21 684 53 q 444 -10 537 -10 q 259 34 345 -10 q 123 159 174 79 q 72 343 72 240 q 140 494 72 444 q 347 545 209 545 l 469 545 q 479 641 479 590 q 477 700 479 675 l 1 700 l -35 805 l 789 805 l 823 700 l 604 700 q 620 618 614 653 q 625 549 625 583 q 608 436 625 496 l 386 436 q 261 401 302 436 q 220 294 220 366 q 231 190 220 236 q 259 127 243 144 z "},"ठ":{"ha":815,"x_min":-35,"x_max":850,"o":"m 602 450 q 716 349 675 408 q 757 227 757 290 q 676 48 757 107 q 456 -10 595 -10 q 261 31 350 -10 q 119 152 172 73 q 66 339 66 231 q 126 484 66 427 q 345 540 185 540 l 464 540 q 476 631 476 567 q 473 700 476 662 l 0 700 l -35 805 l 817 805 l 850 700 l 595 700 q 614 628 607 668 q 621 547 621 588 q 602 450 621 478 m 376 90 q 549 132 485 90 q 614 265 614 175 q 597 355 614 313 q 551 431 580 397 l 381 431 q 259 394 300 431 q 218 277 218 357 q 230 175 218 217 q 259 114 243 134 q 301 97 269 104 q 376 90 334 90 z "},"ड":{"ha":802,"x_min":-35,"x_max":837,"o":"m -35 805 l 803 805 l 837 700 l 629 700 q 646 565 646 634 q 644 496 646 545 l 393 496 q 324 483 349 496 q 299 431 299 470 q 314 357 299 381 q 322 350 317 351 q 338 348 328 348 q 379 353 356 348 q 441 368 402 357 q 518 386 489 380 q 575 392 548 392 q 617 382 597 392 q 676 333 648 365 q 721 264 704 301 q 739 195 739 227 q 704 63 738 115 q 611 -15 669 10 q 480 -40 553 -40 q 235 39 347 -40 q 32 288 124 119 l 95 325 q 232 167 169 220 q 346 99 296 114 q 448 84 395 83 q 543 104 498 85 q 615 161 587 124 q 644 248 643 198 q 643 265 644 256 q 640 279 642 275 q 629 281 637 281 q 603 277 618 281 q 561 265 587 273 q 476 244 510 251 q 406 237 443 237 q 284 278 340 237 q 195 377 228 319 q 161 482 161 436 q 347 604 161 604 l 505 604 q 508 644 508 618 q 504 700 508 675 l 1 700 l -35 805 z "},"ढ":{"ha":798,"x_min":-35,"x_max":833,"o":"m 517 379 q 620 349 567 379 q 708 274 673 319 q 743 191 743 230 q 713 87 743 134 q 620 10 683 39 q 460 -19 556 -19 q 320 2 389 -19 q 203 59 252 23 q 90 183 131 113 q 49 351 49 254 q 84 476 49 424 q 181 554 119 528 q 324 580 243 580 l 499 580 q 503 640 503 606 q 499 700 503 675 l 1 700 l -35 805 l 799 805 l 833 700 l 621 700 q 637 601 632 655 q 642 473 642 547 l 408 473 q 292 458 338 473 q 220 404 245 442 q 195 298 195 366 q 210 185 195 242 q 244 111 224 129 q 298 87 263 94 q 374 81 333 81 l 399 81 q 355 160 369 123 q 341 235 341 197 q 364 311 341 279 q 427 361 387 344 q 517 379 467 379 m 450 87 q 585 140 535 100 q 634 234 634 180 q 630 262 634 249 q 622 279 626 275 q 609 283 618 281 q 590 285 600 285 q 450 87 453 285 z "},"ण":{"ha":999,"x_min":-35,"x_max":1034,"o":"m 584 425 q 535 242 584 302 q 388 181 487 181 q 236 213 304 181 q 129 301 168 245 q 90 425 90 357 l 90 700 l 0 700 l -35 805 l 1001 805 l 1034 700 l 892 700 l 892 -68 l 751 -28 l 751 700 l 584 700 l 584 425 m 231 425 q 236 337 231 374 q 251 290 241 300 q 276 277 258 282 q 312 272 294 272 q 412 308 382 272 q 442 425 442 343 l 442 700 l 231 700 l 231 425 z "},"त":{"ha":804,"x_min":-35,"x_max":840,"o":"m 840 700 l 702 700 l 702 -68 l 560 -26 l 560 436 l 361 436 q 264 403 297 436 q 231 316 231 370 q 386 -18 231 182 l 324 -65 q 131 165 193 66 q 70 358 70 265 q 129 502 70 448 q 314 555 189 555 l 560 555 l 560 700 l 0 700 l -35 805 l 805 805 l 840 700 z "},"थ":{"ha":878,"x_min":70,"x_max":913,"o":"m 913 700 l 785 700 l 785 -68 l 644 -27 l 644 193 q 448 130 563 130 q 277 168 355 130 q 149 264 199 205 q 81 383 98 322 q 270 496 210 438 q 119 564 168 515 q 70 684 70 614 q 112 789 70 750 q 228 828 155 828 q 354 790 300 828 q 435 694 408 751 q 463 582 463 637 q 406 428 463 500 q 243 300 348 355 q 306 262 269 275 q 385 250 342 250 q 490 269 439 250 q 581 328 541 289 q 644 425 622 368 l 644 700 l 518 700 l 481 805 l 879 805 l 913 700 m 206 663 q 230 593 206 623 q 307 540 254 562 q 339 656 339 590 q 335 703 339 684 q 326 727 330 723 q 281 739 309 739 q 226 719 246 739 q 206 663 206 699 z "},"द":{"ha":802,"x_min":-35,"x_max":838,"o":"m 600 83 q 669 0 633 31 q 766 -71 704 -31 l 661 -171 q 594 -76 629 -136 q 528 52 559 -16 q 411 33 473 33 q 251 70 330 33 q 121 178 172 106 q 69 347 69 249 q 138 502 69 451 q 349 553 208 553 l 488 553 q 495 635 495 591 q 491 700 495 658 l 0 700 l -35 805 l 804 805 l 838 700 l 620 700 q 638 553 638 610 q 623 442 638 499 l 382 442 q 257 410 295 442 q 219 303 219 378 q 233 206 219 250 q 267 146 247 161 q 338 134 285 134 q 417 144 378 134 q 481 171 455 154 q 462 271 462 235 q 478 317 462 302 q 528 332 495 332 q 633 304 576 332 q 725 237 690 277 q 731 222 731 231 q 729 212 731 217 q 681 143 720 181 q 602 83 642 106 l 600 83 z "},"ध":{"ha":858,"x_min":54,"x_max":888,"o":"m 888 700 l 761 700 l 761 -68 l 619 -27 l 619 151 q 529 97 581 115 q 425 79 477 79 q 286 113 353 79 q 176 205 218 147 q 134 334 134 264 q 150 401 134 368 q 196 458 165 433 q 93 540 132 488 q 54 660 54 592 q 82 755 54 716 q 154 814 109 795 q 249 834 198 834 q 346 812 302 834 q 412 754 389 790 q 436 680 436 719 q 412 607 436 634 q 337 566 387 579 q 205 551 286 553 q 254 490 224 514 q 425 513 313 514 l 482 392 q 312 362 368 393 q 256 272 256 331 q 262 227 256 248 q 279 196 269 206 q 309 185 286 190 q 353 181 332 181 q 468 206 414 181 q 561 274 522 231 q 619 368 600 317 l 619 700 l 522 700 l 487 805 l 855 805 l 888 700 m 306 757 q 251 741 279 757 q 205 695 224 725 q 187 628 187 666 q 189 607 187 622 q 299 651 262 619 q 337 732 337 682 q 331 751 337 745 q 321 756 327 755 q 306 757 316 757 z "},"न":{"ha":785,"x_min":-35,"x_max":821,"o":"m 292 359 q 271 256 287 298 q 227 214 255 214 q 153 253 195 214 q 82 346 112 292 q 53 438 53 400 q 62 460 53 453 q 94 471 71 468 q 162 474 117 474 l 524 474 l 524 700 l 0 700 l -35 805 l 787 805 l 821 700 l 665 700 l 665 -68 l 524 -27 l 524 359 l 292 359 z "},"ऩ":{"ha":785,"x_min":-35,"x_max":821,"o":"m 292 359 q 271 256 287 298 q 227 214 255 214 q 153 253 195 214 q 82 346 112 292 q 53 438 53 400 q 62 460 53 453 q 94 471 71 468 q 162 474 117 474 l 524 474 l 524 700 l 0 700 l -35 805 l 787 805 l 821 700 l 665 700 l 665 -68 l 524 -27 l 524 359 l 292 359 m 176 93 q 216 73 193 93 q 258 27 239 52 q 276 -9 276 1 q 256 -49 276 -25 q 211 -92 236 -73 q 173 -110 186 -110 q 135 -90 158 -110 q 93 -44 111 -70 q 74 -7 74 -19 q 93 34 74 10 q 138 75 113 58 q 176 93 163 93 z "},"प":{"ha":750,"x_min":-35,"x_max":785,"o":"m 511 226 q 445 200 481 208 q 364 191 410 191 q 250 217 315 191 q 138 298 186 243 q 91 435 91 353 l 91 700 l -1 700 l -35 805 l 751 805 l 785 700 l 653 700 l 653 -68 l 511 -28 l 511 226 m 233 420 q 239 341 233 374 q 257 294 245 308 q 276 283 262 288 q 309 279 291 279 q 396 299 355 279 q 467 349 437 318 q 511 414 496 380 l 511 700 l 233 700 l 233 420 z "},"फ":{"ha":1092,"x_min":-35,"x_max":1127,"o":"m 957 458 q 1018 375 998 419 q 1038 276 1038 330 q 1005 143 1038 210 q 911 26 972 75 l 774 128 q 890 252 852 193 q 928 368 928 311 q 922 406 928 397 q 896 421 915 414 q 854 429 877 429 q 743 392 802 429 q 638 300 685 355 l 638 -69 l 496 -26 l 496 224 q 360 184 435 184 q 247 207 310 184 q 137 282 184 230 q 90 416 90 334 l 90 700 l -1 700 l -35 805 l 1094 805 l 1127 700 l 638 700 l 638 487 q 718 526 676 513 q 797 538 760 538 q 878 516 836 538 q 957 458 919 494 m 496 700 l 236 700 l 236 406 q 241 336 236 363 q 257 291 245 309 q 278 280 261 284 q 316 277 296 277 q 391 297 354 277 q 455 347 427 316 q 496 409 482 377 l 496 700 z "},"ब":{"ha":802,"x_min":-35,"x_max":838,"o":"m 838 700 l 702 700 l 702 -68 l 560 -27 l 560 151 q 473 108 523 124 q 371 92 424 92 q 230 133 301 92 q 112 242 158 174 q 65 385 65 311 q 95 491 65 446 q 179 562 125 537 q 302 587 233 587 q 437 566 370 587 q 560 502 505 544 l 560 700 l 1 700 l -35 805 l 804 805 l 838 700 m 503 262 q 544 314 529 287 q 560 380 558 342 l 560 434 q 357 480 456 480 q 283 469 315 480 q 340 426 317 449 l 469 300 q 503 262 490 279 m 319 191 q 444 222 389 191 q 418 243 427 233 l 277 382 q 235 435 251 408 q 205 340 205 399 q 218 263 205 300 q 248 208 230 225 q 275 194 258 197 q 319 191 292 191 z "},"भ":{"ha":928,"x_min":57,"x_max":963,"o":"m 963 700 l 831 700 l 831 -68 l 690 -27 l 690 256 l 425 256 q 406 207 419 235 q 375 157 392 178 q 343 136 358 136 q 268 175 314 136 q 187 264 222 214 q 152 340 152 314 q 190 375 152 366 q 295 384 229 384 q 315 496 309 433 q 122 550 188 503 q 57 677 57 598 q 81 756 57 724 q 142 805 104 789 q 222 821 180 821 q 350 781 298 821 q 428 673 402 741 q 454 518 454 604 q 444 376 454 450 l 690 376 l 690 700 l 564 700 l 528 805 l 930 805 l 963 700 m 194 679 q 225 597 194 633 q 317 547 257 562 l 318 584 q 312 679 318 645 q 292 728 306 713 q 254 743 279 743 q 210 725 225 743 q 194 679 194 707 z "},"म":{"ha":822,"x_min":-35,"x_max":857,"o":"m 260 125 q 177 163 228 125 q 89 253 127 202 q 50 338 50 304 q 170 374 50 374 l 170 700 l 1 700 l -35 805 l 823 805 l 857 700 l 730 700 l 730 -67 l 589 -27 l 589 260 l 309 260 q 299 166 309 207 q 260 125 288 125 m 589 700 l 309 700 l 309 372 l 589 372 l 589 700 z "},"य":{"ha":812,"x_min":-35,"x_max":847,"o":"m 847 700 l 716 700 l 716 -68 l 574 -27 l 574 184 q 479 134 526 149 q 381 119 431 119 q 240 155 307 119 q 120 263 172 190 q 41 445 67 336 q 194 507 147 475 q 241 585 241 539 q 225 646 241 618 q 172 700 208 674 l 0 700 l -35 805 l 814 805 l 847 700 m 345 249 q 436 268 391 249 q 517 320 481 286 q 574 397 553 354 l 574 700 l 298 700 q 364 617 341 660 q 387 534 387 575 q 333 422 387 475 q 174 332 279 370 q 247 269 201 288 q 345 249 293 249 z "},"र":{"ha":528,"x_min":-35,"x_max":563,"o":"m 200 250 q 318 148 256 189 q 486 58 380 106 l 404 -66 q 173 158 258 43 q 42 422 88 273 l 132 473 l 202 435 q 308 610 308 503 q 299 700 308 647 l 1 700 l -35 805 l 531 805 l 563 700 l 407 700 q 429 615 421 659 q 437 536 437 572 q 380 377 437 446 q 200 250 323 308 z "},"ऱ":{"ha":528,"x_min":-35,"x_max":563,"o":"m 200 250 q 318 148 256 189 q 486 58 380 106 l 404 -66 q 173 158 258 43 q 42 422 88 273 l 132 473 l 202 435 q 308 610 308 503 q 299 700 308 647 l 1 700 l -35 805 l 531 805 l 563 700 l 407 700 q 429 615 421 659 q 437 536 437 572 q 380 377 437 446 q 200 250 323 308 m 100 90 q 141 70 117 90 q 182 24 164 50 q 201 -12 201 -1 q 181 -52 201 -28 q 136 -94 161 -76 q 98 -113 111 -113 q 59 -93 83 -113 q 17 -47 36 -73 q -1 -10 -1 -22 q 18 31 -1 7 q 62 73 37 55 q 100 90 87 90 z "},"ल":{"ha":961,"x_min":-35,"x_max":996,"o":"m 996 700 l 866 700 l 866 -68 l 725 -27 l 725 458 q 673 469 696 469 q 570 416 608 469 q 527 237 532 364 l 380 278 q 411 448 378 381 q 374 463 391 458 q 337 467 357 467 q 241 431 277 467 q 205 330 205 394 q 265 159 205 248 q 437 -9 324 71 l 401 -73 q 142 124 234 16 q 50 352 50 233 q 78 464 50 417 q 155 534 106 510 q 264 557 203 557 q 359 542 311 557 q 444 497 407 526 q 512 545 474 530 q 587 559 551 559 q 661 548 623 559 q 725 522 698 538 l 725 700 l -1 700 l -35 805 l 963 805 l 996 700 z "},"ळ":{"ha":1066,"x_min":-35,"x_max":1090,"o":"m 851 496 q 954 408 916 469 q 991 257 991 347 q 963 118 991 176 q 886 28 935 59 q 778 -3 838 -3 q 656 33 718 -3 q 547 130 594 68 q 455 32 511 66 q 323 -3 399 -3 q 189 32 250 -3 q 93 129 128 66 q 58 277 58 193 q 86 403 58 349 q 165 486 115 457 q 275 515 214 515 q 398 479 340 515 q 500 384 457 443 q 702 515 570 500 q 712 617 712 564 q 708 700 712 655 l -1 700 l -35 805 l 1057 805 l 1090 700 l 822 700 q 843 618 835 664 q 852 526 852 572 l 851 496 m 722 117 q 812 163 782 117 q 843 291 843 209 q 835 366 843 334 q 816 412 827 397 q 776 425 806 425 q 701 397 735 425 q 636 317 667 370 q 571 180 606 264 q 650 132 610 147 q 722 117 689 117 m 267 91 q 376 144 329 91 q 465 309 422 197 q 476 336 471 325 q 401 381 437 367 q 332 395 366 395 q 237 352 269 395 q 206 234 206 309 q 215 161 206 198 q 235 106 223 125 q 267 91 244 91 z "},"ऴ":{"ha":1056,"x_min":-35,"x_max":1090,"o":"m 851 496 q 954 408 916 469 q 991 257 991 347 q 963 118 991 176 q 886 28 935 59 q 778 -3 838 -3 q 656 33 718 -3 q 547 130 594 68 q 455 32 511 66 q 323 -3 399 -3 q 189 32 250 -3 q 93 129 128 66 q 58 277 58 193 q 86 403 58 349 q 165 486 115 457 q 275 515 214 515 q 398 479 340 515 q 500 384 457 443 q 702 515 570 500 q 712 617 712 564 q 708 700 712 655 l -1 700 l -35 805 l 1057 805 l 1090 700 l 822 700 q 843 618 835 664 q 852 526 852 572 l 851 496 m 722 117 q 812 163 782 117 q 843 291 843 209 q 835 366 843 334 q 816 412 827 397 q 776 425 806 425 q 701 397 735 425 q 636 317 667 370 q 571 180 606 264 q 650 132 610 147 q 722 117 689 117 m 267 91 q 376 144 329 91 q 465 309 422 197 q 476 336 471 325 q 401 381 437 367 q 332 395 366 395 q 237 352 269 395 q 206 234 206 309 q 215 161 206 198 q 235 106 223 125 q 267 91 244 91 m 557 -7 q 598 -27 574 -7 q 640 -73 621 -47 q 658 -109 658 -98 q 638 -149 658 -125 q 593 -191 618 -173 q 555 -210 568 -210 q 516 -190 540 -210 q 474 -144 493 -170 q 456 -107 456 -119 q 475 -66 456 -90 q 519 -24 494 -42 q 557 -7 545 -7 z "},"व":{"ha":764,"x_min":-35,"x_max":800,"o":"m 800 700 l 670 700 l 670 -68 l 528 -27 l 528 146 q 444 108 490 119 q 357 97 399 97 q 221 135 292 97 q 103 235 151 174 q 54 361 55 296 q 81 477 52 428 q 163 553 110 526 q 287 579 216 579 q 403 563 349 579 q 528 500 456 547 l 528 700 l 0 700 l -35 805 l 766 805 l 800 700 m 283 197 q 372 211 326 197 q 461 257 418 224 q 528 342 503 290 l 528 424 q 359 464 442 464 q 248 426 285 464 q 212 326 212 388 q 221 258 212 292 q 243 209 230 224 q 258 200 249 203 q 283 197 267 197 z "},"श":{"ha":973,"x_min":47,"x_max":1008,"o":"m 568 552 q 530 388 568 460 q 431 269 492 316 q 302 201 371 222 q 413 116 353 151 q 574 43 473 82 l 507 -84 q 362 29 444 -46 q 217 186 279 104 q 207 185 214 185 q 136 195 173 185 q 73 221 98 204 q 47 260 47 238 q 67 316 47 285 q 115 370 87 348 q 168 393 143 393 q 196 373 179 393 q 233 321 214 354 q 394 438 339 361 q 178 509 248 453 q 107 650 107 564 q 136 743 107 703 q 211 804 165 783 q 308 825 257 825 q 447 788 388 825 q 537 688 506 751 q 568 552 568 626 m 1008 700 l 859 700 l 859 -68 l 718 -27 l 718 700 l 623 700 l 587 805 l 975 805 l 1008 700 m 256 645 q 298 551 256 593 q 422 488 340 509 q 441 591 441 535 q 433 662 441 626 q 407 721 425 697 q 362 745 389 745 q 285 716 315 745 q 256 645 256 688 z "},"ष":{"ha":762,"x_min":-35,"x_max":798,"o":"m 798 700 l 662 700 l 662 -68 l 520 -27 l 520 217 q 368 180 460 180 q 248 205 317 180 q 129 287 180 231 q 78 425 78 342 l 78 700 l 1 700 l -35 805 l 764 805 l 798 700 m 520 700 l 273 700 q 304 668 291 684 l 499 425 q 517 397 511 411 l 520 404 l 520 700 m 310 277 q 394 293 353 277 q 467 336 435 309 q 431 372 446 354 l 250 600 q 224 640 238 616 l 224 414 q 229 341 224 374 q 241 293 233 309 q 267 283 243 288 q 310 277 290 277 z "},"स":{"ha":913,"x_min":-35,"x_max":948,"o":"m 948 700 l 805 700 l 805 -67 l 663 -26 l 663 285 q 520 260 597 260 q 413 277 463 260 q 309 324 363 293 q 205 261 268 291 q 303 143 244 195 q 462 35 361 92 l 389 -81 q 178 140 262 10 q 54 433 95 269 l 140 481 l 212 445 q 256 508 242 473 q 269 586 269 543 q 251 700 269 636 l 1 700 l -35 805 l 914 805 l 948 700 m 663 700 l 362 700 q 405 522 405 599 q 368 391 405 449 q 475 374 422 374 q 581 394 535 374 q 663 453 627 413 l 663 700 z "},"ह":{"ha":720,"x_min":-35,"x_max":764,"o":"m 387 374 q 538 343 475 374 q 632 261 600 313 q 663 148 663 210 q 640 61 663 98 q 561 -9 616 25 l 454 103 q 536 163 507 132 q 564 227 564 195 q 562 239 564 234 q 554 249 560 244 q 434 279 513 279 q 335 261 379 279 q 266 210 291 244 q 240 127 240 176 q 277 19 240 64 q 394 -60 314 -27 q 603 -118 473 -94 l 580 -193 q 211 -74 334 -162 q 87 153 87 14 q 112 248 87 206 q 180 318 136 290 q 111 403 132 365 q 90 477 90 441 q 135 562 90 532 q 262 591 180 591 l 453 591 q 454 629 454 612 q 450 700 454 665 l 1 700 l -35 805 l 730 805 l 764 700 l 575 700 q 594 555 594 626 q 589 480 594 514 l 323 480 q 224 401 224 480 q 234 346 224 375 q 387 374 304 374 z "},"क़":{"ha":1084,"x_min":-35,"x_max":1120,"o":"m 800 566 q 915 528 861 566 q 1002 434 969 491 q 1035 322 1035 377 q 837 40 1035 158 l 708 143 q 839 235 790 193 q 909 319 887 277 q 931 409 931 361 q 925 442 931 434 q 903 456 920 450 q 864 463 886 463 q 733 418 801 463 q 616 301 665 374 l 616 -68 l 475 -26 l 475 149 q 397 113 439 125 q 311 100 355 100 q 184 138 247 100 q 81 236 121 176 q 41 363 41 297 q 67 475 41 428 q 144 548 94 523 q 262 573 194 573 q 475 481 372 573 l 475 700 l 1 700 l -35 805 l 1085 805 l 1120 700 l 616 700 l 616 492 q 800 566 699 566 m 255 197 q 334 214 292 197 q 414 260 376 231 q 475 324 451 290 l 475 416 q 402 450 438 439 q 328 461 366 461 q 225 427 263 461 q 186 328 186 392 q 221 207 186 254 q 255 197 230 197 m 115 96 q 155 75 132 96 q 197 30 178 55 q 215 -6 215 4 q 195 -46 215 -22 q 150 -89 175 -71 q 112 -107 125 -107 q 74 -87 97 -107 q 32 -42 50 -67 q 13 -5 13 -16 q 32 37 13 13 q 77 78 52 60 q 115 96 102 96 z "},"ख़":{"ha":1084,"x_min":-35,"x_max":1120,"o":"m 1120 700 l 979 700 l 979 -68 l 837 -27 l 837 181 q 778 160 811 168 q 709 153 744 153 q 569 185 632 153 q 470 274 506 218 q 434 399 434 330 q 459 494 434 453 q 530 557 484 535 q 636 580 576 580 q 743 560 691 580 q 837 504 795 541 l 837 700 l 354 700 q 379 613 370 661 q 389 524 389 565 q 338 368 389 429 q 186 277 287 307 q 507 66 289 66 q 582 73 549 66 q 656 96 616 80 l 713 -31 q 638 -56 675 -48 q 551 -63 602 -63 q 323 -6 423 -63 q 155 164 222 52 q 58 439 88 276 l 144 475 l 222 435 q 239 491 233 456 q 245 566 245 526 q 232 700 245 627 l 0 700 l -35 805 l 1086 805 l 1120 700 m 644 231 q 754 259 702 231 q 837 338 806 287 l 837 444 q 771 467 807 458 q 704 475 736 475 q 614 443 646 475 q 582 353 582 411 q 592 288 582 319 q 621 237 603 256 q 644 231 627 231 m 121 70 q 161 50 138 70 q 203 4 184 29 q 221 -32 221 -22 q 201 -72 221 -48 q 156 -115 181 -96 q 118 -133 131 -133 q 80 -113 103 -133 q 38 -67 56 -93 q 19 -31 19 -42 q 38 11 19 -13 q 83 52 58 35 q 121 70 108 70 z "},"ग़":{"ha":854,"x_min":-35,"x_max":889,"o":"m -35 805 l 856 805 l 889 700 l 739 700 l 739 -68 l 597 -27 l 597 700 l 354 700 q 371 556 365 633 q 376 425 376 479 q 366 299 376 357 q 336 206 355 241 q 297 172 318 172 q 214 215 265 172 q 121 312 162 258 q 81 390 81 366 q 112 417 81 408 q 201 427 143 427 q 229 426 213 427 q 233 466 231 440 q 235 519 235 492 q 223 700 235 631 l 1 700 l -35 805 m 256 96 q 297 75 273 96 q 338 30 320 55 q 357 -6 357 4 q 337 -46 357 -22 q 292 -89 317 -71 q 254 -107 267 -107 q 215 -87 239 -107 q 173 -42 192 -67 q 155 -5 155 -16 q 174 37 155 13 q 218 78 193 60 q 256 96 243 96 z "},"ज़":{"ha":974,"x_min":-35,"x_max":1009,"o":"m 415 52 q 182 158 275 52 q 33 473 90 264 l 104 496 q 225 268 156 349 q 376 188 294 188 q 455 217 427 188 q 484 292 484 246 q 447 382 484 347 q 335 450 411 418 l 317 530 l 739 530 l 739 700 l 1 700 l -35 805 l 976 805 l 1009 700 l 880 700 l 880 -68 l 739 -27 l 739 420 l 502 420 q 598 340 565 388 q 631 240 631 293 q 603 141 631 184 q 526 75 575 98 q 415 52 477 52 m 139 87 q 179 67 156 87 q 221 21 203 47 q 239 -14 239 -4 q 219 -55 239 -31 q 174 -97 199 -79 q 136 -115 149 -115 q 98 -95 121 -115 q 56 -50 75 -75 q 37 -13 37 -24 q 57 28 37 5 q 101 70 76 52 q 139 87 126 87 z "},"ड़":{"ha":802,"x_min":-35,"x_max":837,"o":"m -35 805 l 803 805 l 837 700 l 629 700 q 646 565 646 634 q 644 496 646 545 l 393 496 q 324 483 349 496 q 299 431 299 470 q 314 357 299 381 q 322 350 317 351 q 338 348 328 348 q 379 353 356 348 q 441 368 402 357 q 518 386 489 380 q 575 392 548 392 q 617 382 597 392 q 676 333 648 365 q 721 264 704 301 q 739 195 739 227 q 704 63 738 115 q 611 -15 669 10 q 480 -40 553 -40 q 235 39 347 -40 q 32 288 124 119 l 95 325 q 232 167 169 220 q 346 99 296 114 q 448 84 395 83 q 543 104 498 85 q 615 161 587 124 q 644 248 643 198 q 643 265 644 256 q 640 279 642 275 q 629 281 637 281 q 603 277 618 281 q 561 265 587 273 q 476 244 510 251 q 406 237 443 237 q 284 278 340 237 q 195 377 228 319 q 161 482 161 436 q 347 604 161 604 l 505 604 q 508 644 508 618 q 504 700 508 675 l 1 700 l -35 805 m 425 -86 q 465 -106 441 -86 q 507 -152 488 -127 q 525 -188 525 -178 q 505 -228 525 -204 q 460 -271 485 -252 q 422 -289 435 -289 q 384 -269 407 -289 q 341 -223 360 -249 q 323 -186 323 -198 q 342 -145 323 -169 q 387 -104 361 -121 q 425 -86 412 -86 z "},"ढ़":{"ha":798,"x_min":-35,"x_max":833,"o":"m 517 379 q 620 349 567 379 q 708 274 673 319 q 743 191 743 230 q 713 87 743 134 q 620 10 683 39 q 460 -19 556 -19 q 320 2 389 -19 q 203 59 252 23 q 90 183 131 113 q 49 351 49 254 q 84 476 49 424 q 181 554 119 528 q 324 580 243 580 l 499 580 q 503 640 503 606 q 499 700 503 675 l 1 700 l -35 805 l 799 805 l 833 700 l 621 700 q 637 601 632 655 q 642 473 642 547 l 408 473 q 292 458 338 473 q 220 404 245 442 q 195 298 195 366 q 210 185 195 242 q 244 111 224 129 q 298 87 263 94 q 374 81 333 81 l 399 81 q 355 160 369 123 q 341 235 341 197 q 364 311 341 279 q 427 361 387 344 q 517 379 467 379 m 450 87 q 585 140 535 100 q 634 234 634 180 q 630 262 634 249 q 622 279 626 275 q 609 283 618 281 q 590 285 600 285 q 450 87 453 285 m 433 -80 q 473 -100 450 -80 q 515 -146 496 -121 q 533 -182 533 -172 q 513 -222 533 -198 q 468 -264 493 -246 q 430 -283 443 -283 q 392 -263 415 -283 q 350 -217 368 -243 q 331 -180 331 -192 q 350 -139 331 -163 q 395 -98 370 -115 q 433 -80 420 -80 z "},"फ़":{"ha":1092,"x_min":-35,"x_max":1127,"o":"m 957 458 q 1018 375 998 419 q 1038 276 1038 330 q 1005 143 1038 210 q 911 26 972 75 l 774 128 q 890 252 852 193 q 928 368 928 311 q 922 406 928 397 q 896 421 915 414 q 854 429 877 429 q 743 392 802 429 q 638 300 685 355 l 638 -69 l 496 -26 l 496 224 q 360 184 435 184 q 247 207 310 184 q 137 282 184 230 q 90 416 90 334 l 90 700 l -1 700 l -35 805 l 1094 805 l 1127 700 l 638 700 l 638 487 q 718 526 676 513 q 797 538 760 538 q 878 516 836 538 q 957 458 919 494 m 496 700 l 236 700 l 236 406 q 241 336 236 363 q 257 291 245 309 q 278 280 261 284 q 316 277 296 277 q 391 297 354 277 q 455 347 427 316 q 496 409 482 377 l 496 700 m 149 167 q 189 146 165 167 q 231 101 212 126 q 249 65 249 75 q 229 25 249 49 q 184 -18 209 1 q 146 -36 159 -36 q 107 -16 131 -36 q 65 30 84 4 q 47 66 47 55 q 66 108 47 84 q 111 149 85 132 q 149 167 136 167 z "},"य़":{"ha":812,"x_min":-35,"x_max":847,"o":"m 847 700 l 716 700 l 716 -68 l 574 -27 l 574 184 q 479 134 526 149 q 381 119 431 119 q 240 155 307 119 q 120 263 172 190 q 41 445 67 336 q 194 507 147 475 q 241 585 241 539 q 225 646 241 618 q 172 700 208 674 l 0 700 l -35 805 l 814 805 l 847 700 m 345 249 q 436 268 391 249 q 517 320 481 286 q 574 397 553 354 l 574 700 l 298 700 q 364 617 341 660 q 387 534 387 575 q 333 422 387 475 q 174 332 279 370 q 247 269 201 288 q 345 249 293 249 m 144 136 q 184 116 161 136 q 226 70 208 96 q 244 35 244 45 q 224 -6 244 18 q 179 -48 204 -30 q 141 -66 154 -66 q 103 -46 126 -66 q 61 -1 79 -26 q 42 36 42 24 q 61 77 42 54 q 106 119 81 101 q 144 136 131 136 z "},"ॹ":{"ha":974,"x_min":-35,"x_max":1009,"o":"m 415 52 q 182 158 275 52 q 33 473 90 264 l 104 496 q 225 268 156 349 q 376 188 294 188 q 455 217 427 188 q 484 292 484 246 q 447 382 484 347 q 335 450 411 418 l 317 530 l 739 530 l 739 700 l 1 700 l -35 805 l 976 805 l 1009 700 l 880 700 l 880 -68 l 739 -27 l 739 420 l 502 420 q 598 340 565 388 q 631 240 631 293 q 603 141 631 184 q 526 75 575 98 q 415 52 477 52 m 267 -146 q 233 -129 255 -146 q 194 -91 211 -113 q 176 -55 176 -69 q 193 -20 176 -41 q 232 18 210 1 q 267 35 254 35 q 301 18 279 35 q 339 -21 323 1 q 356 -55 356 -43 q 339 -91 356 -69 q 299 -129 321 -113 q 267 -146 277 -146 m 538 -146 q 505 -129 527 -146 q 466 -91 484 -113 q 449 -55 449 -69 q 466 -20 449 -41 q 505 18 483 1 q 538 35 526 35 q 574 18 552 35 q 612 -21 595 1 q 629 -55 629 -43 q 611 -91 629 -69 q 572 -129 594 -113 q 538 -146 550 -146 m 403 -283 q 369 -266 391 -283 q 330 -228 347 -250 q 313 -192 313 -206 q 330 -157 313 -178 q 369 -119 347 -136 q 403 -102 391 -102 q 438 -119 416 -102 q 476 -158 460 -136 q 493 -192 493 -180 q 476 -228 493 -206 q 436 -266 458 -250 q 403 -283 414 -283 z "},"ॺ":{"ha":812,"x_min":-35,"x_max":847,"o":"m 847 700 l 716 700 l 716 -68 l 574 -27 l 574 184 q 479 134 526 149 q 381 119 431 119 q 240 155 307 119 q 120 263 172 190 q 41 445 67 336 q 194 507 147 475 q 241 585 241 539 q 225 646 241 618 q 172 700 208 674 l 0 700 l -35 805 l 814 805 l 847 700 m 574 700 l 298 700 q 298 700 298 700 q 299 699 298 699 q 325 675 309 692 q 353 644 341 659 l 557 406 q 570 387 563 399 q 574 397 572 391 l 574 700 m 345 249 q 437 268 391 249 q 519 322 483 288 q 489 353 504 335 l 378 488 q 309 402 361 442 q 174 332 258 363 q 247 269 201 288 q 345 249 293 249 z "},"ॻ":{"ha":852,"x_min":-35,"x_max":887,"o":"m 887 700 l 739 700 l 739 -64 l 65 -64 l 34 27 l 597 27 l 597 700 l 355 700 q 371 555 366 633 q 376 425 376 478 q 366 295 376 353 q 337 204 355 237 q 296 172 319 172 q 214 215 265 172 q 121 312 162 258 q 81 390 81 366 q 112 417 81 408 q 202 427 143 427 q 230 426 214 427 q 234 466 232 440 q 236 519 236 492 q 223 700 236 632 l 1 700 l -35 805 l 854 805 l 887 700 z "},"ॼ":{"ha":968,"x_min":-35,"x_max":1003,"o":"m 1003 700 l 874 700 l 874 -97 l 61 -97 l 29 -7 l 733 -7 l 733 420 l 496 420 q 593 340 559 388 q 626 240 626 293 q 598 141 626 184 q 520 75 570 98 q 410 52 471 52 q 177 158 269 52 q 28 472 84 264 l 98 496 q 220 269 151 349 q 370 188 288 188 q 450 217 422 188 q 478 292 478 246 q 442 381 478 345 q 332 450 406 418 l 309 530 l 733 530 l 733 700 l 0 700 l -35 805 l 970 805 l 1003 700 z "},"ॾ":{"ha":792,"x_min":-35,"x_max":827,"o":"m -35 805 l 793 805 l 827 700 l 629 700 q 647 560 647 634 q 644 496 647 534 l 393 496 q 323 485 347 496 q 300 434 300 473 q 314 378 300 404 q 322 372 317 374 q 338 370 328 370 q 381 375 357 370 q 444 391 405 380 q 523 410 492 404 q 581 416 553 416 q 623 406 602 416 q 681 359 653 389 q 725 296 708 330 q 741 237 741 263 q 706 115 741 165 q 613 38 671 64 q 484 12 554 12 q 235 90 345 12 q 31 341 125 168 l 93 378 q 229 219 165 273 q 342 151 292 166 q 448 135 393 135 q 535 152 495 135 q 600 198 576 168 q 624 267 624 229 q 620 294 624 286 q 609 298 617 298 q 582 294 599 298 q 545 284 564 290 q 474 266 506 273 q 407 259 441 259 q 285 297 341 259 q 195 389 229 336 q 162 482 162 442 q 216 578 162 553 q 347 604 269 604 l 506 604 q 508 644 508 614 q 505 700 508 673 l 1 700 l -35 805 m 444 -112 l 355 -112 l 350 -109 l 440 -109 l 444 -112 z "},"ॿ":{"ha":807,"x_min":-35,"x_max":838,"o":"m 838 700 l 702 700 l 702 -100 l 106 -100 l 73 -9 l 560 -9 l 560 151 q 473 108 523 124 q 371 92 424 92 q 230 133 301 92 q 112 242 158 174 q 65 385 65 311 q 95 491 65 446 q 179 562 125 537 q 302 587 233 587 q 437 566 370 587 q 560 502 505 544 l 560 700 l 1 700 l -35 805 l 804 805 l 838 700 m 503 262 q 544 314 529 287 q 560 380 558 342 l 560 434 q 357 480 456 480 q 283 469 315 480 q 340 426 317 449 l 469 300 q 503 262 490 279 m 319 191 q 444 222 389 191 q 418 243 427 233 l 277 382 q 235 435 251 408 q 205 340 205 399 q 218 263 205 300 q 248 208 230 225 q 275 194 258 197 q 319 191 292 191 z "},"⁄":{"ha":237,"x_min":-179,"x_max":416,"o":"m -179 164 l 306 811 l 416 777 l -73 134 l -179 164 z "},"½":{"ha":1112,"x_min":33,"x_max":1087,"o":"m 144 486 l 144 857 l 33 857 l 42 906 l 284 949 l 284 488 l 381 471 l 368 414 l 37 414 l 50 468 l 144 486 m 241 164 l 726 811 l 836 777 l 347 134 l 241 164 m 825 77 q 1065 102 925 94 l 1087 0 l 686 0 l 667 47 q 757 148 684 64 q 848 254 830 231 q 896 323 880 294 q 911 375 911 351 q 891 422 911 404 q 829 440 871 440 q 713 421 780 440 l 685 488 q 865 534 768 534 q 1001 495 953 534 q 1050 391 1050 457 q 1022 298 1050 347 q 946 198 994 249 q 825 77 899 147 z "},"¼":{"ha":1120,"x_min":33,"x_max":1048,"o":"m 144 486 l 144 857 l 33 857 l 42 906 l 284 949 l 284 488 l 381 471 l 368 414 l 37 414 l 50 468 l 144 486 m 241 164 l 726 811 l 836 777 l 347 134 l 241 164 m 595 184 l 823 545 l 958 522 l 734 212 l 856 217 l 856 288 l 980 312 l 980 224 l 1048 227 l 1037 142 l 981 142 l 981 -20 l 852 -43 l 852 142 l 616 142 l 595 184 z "},"¾":{"ha":1164,"x_min":26,"x_max":1037,"o":"m 38 433 q 154 464 109 448 q 229 508 199 480 q 259 578 259 535 q 219 648 259 627 q 116 669 179 668 l 125 717 l 290 867 q 158 855 224 860 q 50 850 91 850 l 26 939 l 391 939 l 408 889 l 264 715 q 360 672 324 708 q 396 584 396 637 q 345 463 396 509 q 216 396 293 416 q 56 377 138 376 l 38 433 m 232 164 l 717 811 l 828 777 l 338 134 l 232 164 m 585 184 l 812 545 l 947 522 l 724 212 l 844 217 l 844 288 l 968 312 l 968 224 l 1037 227 l 1026 142 l 970 142 l 970 -20 l 842 -43 l 842 142 l 606 142 l 585 184 z "},"¹":{"ha":397,"x_min":33,"x_max":381,"o":"m 144 680 l 144 1050 l 33 1050 l 42 1099 l 284 1143 l 284 681 l 381 664 l 368 608 l 37 608 l 50 661 l 144 680 z "},"²":{"ha":475,"x_min":28,"x_max":448,"o":"m 185 685 q 425 709 286 702 l 448 608 l 46 608 l 28 655 q 116 754 43 671 q 209 861 189 837 q 256 929 241 901 q 271 983 271 958 q 252 1029 271 1011 q 190 1048 232 1048 q 74 1029 141 1048 l 45 1095 q 226 1141 128 1141 q 362 1103 313 1141 q 411 998 411 1065 q 382 905 411 954 q 307 806 354 857 q 185 685 260 755 z "},"³":{"ha":442,"x_min":26,"x_max":408,"o":"m 38 627 q 154 657 108 642 q 229 701 199 673 q 259 772 259 729 q 219 841 259 821 q 116 863 178 861 l 125 910 l 290 1061 q 158 1048 224 1053 q 50 1043 91 1043 l 26 1133 l 391 1133 l 408 1082 l 265 908 q 360 866 324 902 q 396 777 396 831 q 345 657 396 703 q 216 590 293 610 q 56 570 138 570 l 38 627 z "},"०":{"ha":729,"x_min":61,"x_max":663,"o":"m 336 673 q 430 660 386 673 q 517 618 473 646 q 625 514 587 574 q 663 368 663 454 q 625 219 663 284 q 522 118 587 154 q 376 83 456 83 q 227 123 300 83 q 107 232 153 163 q 61 384 61 301 q 93 516 61 449 q 187 628 125 583 q 336 673 250 673 m 488 587 q 444 596 473 596 q 316 555 374 596 q 224 448 258 514 q 191 308 191 381 q 198 248 191 277 q 216 198 205 218 q 237 170 227 177 q 279 161 249 161 q 424 208 366 161 q 508 320 481 254 q 534 450 534 387 q 522 536 534 498 q 488 587 509 574 z "},"१":{"ha":595,"x_min":79,"x_max":512,"o":"m 270 233 q 388 157 348 187 q 445 103 429 127 q 461 48 461 78 q 449 -5 461 20 q 401 -75 437 -31 l 261 -8 q 314 52 300 32 q 327 92 327 73 q 307 141 327 118 q 236 195 286 165 q 87 272 185 224 q 302 483 235 388 q 171 542 220 511 q 101 608 123 572 q 79 692 79 644 q 101 772 79 737 q 163 826 122 806 q 263 845 205 845 q 388 815 330 845 q 478 737 445 785 q 512 636 512 688 q 450 441 512 546 q 270 233 389 336 m 220 675 q 330 524 220 579 q 382 702 382 611 q 377 736 382 720 q 367 755 373 752 q 346 763 361 760 q 312 766 330 766 q 244 740 269 766 q 220 675 220 713 z "},"२":{"ha":699,"x_min":78,"x_max":627,"o":"m 627 -19 q 575 -34 597 -30 q 530 -39 554 -39 q 393 28 455 -39 q 282 258 331 95 q 193 277 233 262 q 130 316 153 293 q 106 366 106 339 q 128 418 106 391 q 179 463 149 445 q 231 480 208 480 q 274 456 255 480 q 315 375 292 431 q 410 418 364 382 q 484 507 456 454 q 513 615 513 559 q 495 716 513 694 q 465 730 490 724 q 411 737 441 737 q 282 710 350 737 q 149 635 215 684 l 78 763 q 209 823 145 807 q 343 840 273 840 q 475 802 410 840 q 581 700 540 765 q 622 555 622 635 q 590 420 622 486 q 495 310 557 355 q 347 258 433 265 q 419 130 380 168 q 503 93 457 93 q 544 97 526 93 q 584 109 562 100 l 627 -19 z "},"३":{"ha":696,"x_min":75,"x_max":623,"o":"m 623 316 q 588 217 623 260 q 490 151 553 174 q 342 127 426 127 q 309 128 332 127 q 366 63 335 83 q 440 43 397 43 q 476 46 460 43 q 516 58 492 49 l 560 -63 q 510 -82 530 -77 q 467 -87 490 -87 q 375 -65 414 -87 q 304 7 336 -42 q 239 140 271 57 q 157 172 194 152 q 97 216 119 192 q 75 262 75 239 q 95 316 75 290 q 141 357 114 341 q 191 372 169 372 q 271 256 237 372 q 342 247 308 247 q 426 263 391 247 q 481 306 462 279 q 500 363 500 332 q 441 465 500 416 q 277 443 374 441 l 216 568 q 414 605 352 576 q 476 678 476 634 q 464 728 476 715 q 443 737 459 734 q 406 741 427 741 q 288 719 345 741 q 162 649 231 696 l 90 771 q 207 827 151 812 q 325 843 263 843 q 445 812 389 843 q 534 730 501 782 q 568 618 568 679 q 495 489 568 534 q 590 411 557 452 q 623 316 623 370 z "},"४":{"ha":774,"x_min":69,"x_max":711,"o":"m 494 302 q 594 208 567 247 q 621 125 621 168 q 599 45 621 80 q 537 -8 576 11 q 446 -27 497 -27 q 342 -9 396 -27 q 250 39 289 8 q 193 146 193 86 q 204 195 193 170 q 245 253 216 220 q 330 333 275 286 q 175 442 231 395 q 94 534 119 490 q 69 629 69 578 q 102 738 69 690 q 206 830 136 787 l 329 752 q 257 689 283 715 q 221 638 232 663 q 211 584 211 614 q 227 521 211 550 q 279 458 242 492 q 382 378 315 425 q 505 489 462 446 q 568 566 549 532 q 588 632 588 600 q 550 729 588 682 q 439 815 511 776 l 492 836 q 594 780 543 819 q 678 690 645 741 q 711 586 711 638 q 692 512 711 549 q 627 426 673 475 q 494 302 580 376 m 371 32 q 464 66 428 33 q 500 159 500 100 q 488 210 500 188 q 444 259 476 233 q 368 186 395 216 q 330 132 341 155 q 319 83 319 108 q 334 39 319 52 q 371 32 342 32 z "},"५":{"ha":738,"x_min":66,"x_max":656,"o":"m 594 328 q 571 307 583 317 q 633 203 614 251 q 653 112 653 156 q 622 20 653 60 q 522 -67 591 -21 l 414 33 q 520 109 489 74 q 551 190 551 144 q 529 277 551 235 q 448 242 490 254 q 368 231 406 231 q 227 269 297 231 q 112 370 157 307 q 66 507 66 434 q 103 664 66 587 q 229 838 140 741 l 367 781 q 263 653 300 711 q 212 546 226 595 q 198 444 198 497 q 207 377 198 408 q 228 334 215 346 q 250 323 234 328 q 277 319 265 319 q 368 342 323 319 q 441 402 414 365 q 418 495 418 455 q 435 541 418 524 q 486 558 452 558 q 563 545 523 558 q 629 507 602 532 q 656 452 656 483 q 639 392 656 427 q 594 328 622 358 z "},"६":{"ha":706,"x_min":73,"x_max":656,"o":"m 545 -100 q 444 77 491 -27 q 372 69 406 69 q 234 100 303 69 q 119 192 164 132 q 73 334 73 252 q 106 453 73 403 q 201 530 140 504 q 100 686 100 591 q 160 800 100 759 q 323 841 220 841 q 512 805 420 841 l 535 698 q 452 723 495 715 q 371 732 408 732 q 270 706 304 732 q 235 637 235 680 q 245 593 235 615 q 271 552 254 571 q 353 559 307 559 q 451 551 399 559 l 483 432 q 380 441 427 441 q 248 405 291 441 q 205 296 205 370 q 213 228 205 258 q 231 188 220 198 q 260 174 240 178 q 304 169 281 169 q 399 195 363 169 q 383 276 383 245 q 400 321 383 305 q 450 336 416 336 q 534 320 492 336 q 603 278 576 304 q 630 225 630 252 q 605 169 630 200 q 541 115 580 138 l 519 104 q 575 49 543 76 q 656 -10 607 22 l 545 -100 z "},"७":{"ha":834,"x_min":79,"x_max":765,"o":"m 522 733 q 645 693 590 733 q 733 578 701 652 q 765 406 765 503 q 718 180 765 274 q 592 37 671 85 q 419 -11 513 -11 q 186 78 277 -11 q 109 207 139 125 q 79 392 79 289 q 107 609 79 497 q 189 836 135 722 l 335 810 q 242 559 271 678 q 212 323 212 439 q 221 219 212 267 q 245 137 231 170 q 275 94 260 104 q 364 72 307 72 q 520 133 454 72 q 614 305 586 193 q 426 413 498 343 q 354 575 354 484 q 377 661 354 625 q 438 715 400 696 q 522 733 476 733 m 484 553 q 501 485 484 521 q 551 419 518 450 q 627 370 583 388 q 634 471 634 422 q 624 588 634 534 q 600 650 613 642 q 576 654 590 654 q 531 642 552 654 q 497 606 510 629 q 484 553 484 583 z "},"८":{"ha":693,"x_min":64,"x_max":658,"o":"m 64 236 q 151 475 64 330 q 419 831 237 620 l 549 779 q 274 416 370 574 q 178 170 178 258 q 182 136 178 153 q 192 109 186 119 q 233 88 201 96 q 311 80 265 80 q 587 178 437 80 l 658 52 q 530 -13 592 8 q 395 -34 467 -34 q 227 4 302 -34 q 108 104 151 42 q 64 236 64 167 z "},"९":{"ha":642,"x_min":46,"x_max":566,"o":"m 372 372 q 481 269 441 310 q 544 188 521 228 q 566 105 566 147 q 544 30 566 64 q 460 -49 521 -4 l 343 47 q 404 92 384 73 q 432 127 425 111 q 439 164 439 143 q 420 217 439 190 q 374 272 402 245 q 295 343 347 299 q 234 397 257 376 q 123 504 163 461 q 65 586 84 547 q 46 667 46 625 q 72 758 46 716 q 143 823 97 799 q 248 848 189 848 q 392 814 328 848 q 493 726 456 781 q 530 612 530 671 q 488 475 530 538 q 372 372 447 412 m 179 644 q 202 555 179 600 q 264 469 224 511 q 369 551 331 498 q 406 673 406 605 q 390 745 406 731 q 356 761 381 755 q 305 768 332 768 q 237 751 266 768 q 194 706 209 734 q 179 644 179 678 z "},"*":{"ha":834,"x_min":116,"x_max":720,"o":"m 718 727 q 709 699 720 719 q 672 658 698 679 q 608 625 646 637 q 522 611 568 611 q 464 619 490 611 q 435 635 455 622 l 414 650 q 468 572 434 606 q 549 526 503 539 l 549 390 q 536 387 545 387 q 479 405 513 387 q 417 463 446 423 q 381 530 394 494 q 368 597 368 567 q 374 631 368 604 l 382 659 q 326 582 347 625 q 306 490 304 539 l 176 450 q 169 463 172 452 q 166 489 166 474 q 175 541 166 513 q 205 597 184 568 q 258 653 228 629 q 318 686 289 677 q 351 690 328 690 l 377 690 q 262 722 322 722 q 195 710 227 722 l 116 821 q 129 833 117 827 q 158 845 140 840 q 200 850 177 850 q 265 840 231 850 q 335 806 302 827 q 385 759 367 784 q 399 728 391 751 l 408 703 q 413 755 413 730 q 371 883 413 829 l 452 993 q 475 976 460 993 q 503 929 491 960 q 515 857 515 898 q 505 781 515 819 q 475 718 494 744 q 451 696 469 709 l 429 680 q 519 708 477 685 q 588 770 561 730 l 718 727 z "},"\\":{"ha":621,"x_min":46,"x_max":564,"o":"m 163 1014 l 564 17 l 446 -17 l 46 979 l 163 1014 z "},"·":{"ha":387,"x_min":104,"x_max":315,"o":"m 244 265 q 236 264 240 264 q 189 276 218 264 q 135 304 159 288 q 106 334 111 320 q 104 345 104 339 q 116 393 104 364 q 145 446 128 422 q 174 474 161 470 q 186 475 178 475 q 234 463 205 475 q 286 434 262 451 q 314 406 310 417 q 315 395 315 400 q 303 348 315 377 q 273 294 290 318 q 244 265 256 269 z "},"•":{"ha":503,"x_min":66,"x_max":437,"o":"m 252 165 q 181 200 226 165 q 101 280 136 235 q 66 351 66 326 q 101 421 66 376 q 181 501 136 466 q 252 536 226 536 q 321 501 277 536 q 401 421 366 466 q 437 351 437 376 q 401 280 437 326 q 321 200 366 235 q 252 165 277 165 z "},":":{"ha":395,"x_min":111,"x_max":321,"o":"m 251 -15 q 242 -16 245 -16 q 195 -4 224 -16 q 142 24 166 7 q 113 54 117 40 q 111 65 111 59 q 123 113 111 84 q 152 166 135 142 q 181 194 168 190 q 193 195 184 195 q 241 183 212 195 q 293 154 269 171 q 320 125 316 137 q 321 115 321 123 q 309 67 321 96 q 280 13 297 37 q 251 -15 263 -11 m 251 393 q 242 391 245 391 q 195 403 224 391 q 142 431 166 415 q 113 461 117 448 q 111 473 111 467 q 123 521 111 492 q 152 574 135 550 q 181 602 168 597 q 193 603 184 603 q 241 591 212 603 q 293 562 269 578 q 320 533 316 545 q 321 522 321 530 q 309 474 321 504 q 280 421 297 445 q 251 393 263 397 z "},",":{"ha":405,"x_min":89,"x_max":307,"o":"m 99 67 q 98 77 98 73 q 104 111 98 90 q 131 161 115 139 q 163 189 146 184 q 180 192 170 192 q 216 185 195 192 q 272 157 245 175 q 303 126 299 140 q 307 89 307 115 q 302 32 307 57 q 252 -94 293 -26 q 149 -210 210 -161 l 89 -199 l 181 -2 q 126 33 150 13 q 99 67 102 53 z "},"…":{"ha":1065,"x_min":98,"x_max":966,"o":"m 238 -15 q 229 -16 233 -16 q 182 -4 212 -16 q 129 24 153 7 q 100 54 104 40 q 98 65 98 59 q 110 113 98 84 q 139 166 122 142 q 168 194 155 190 q 180 195 172 195 q 228 183 199 195 q 280 154 256 171 q 307 125 303 137 q 309 115 309 123 q 296 67 309 96 q 267 13 284 37 q 238 -15 250 -11 m 567 -15 q 558 -16 562 -16 q 511 -4 541 -16 q 458 24 482 7 q 429 54 433 40 q 427 65 427 59 q 439 113 427 84 q 468 166 451 142 q 497 194 484 190 q 509 195 500 195 q 557 183 528 195 q 609 154 585 171 q 636 125 632 137 q 637 115 637 123 q 625 67 637 96 q 596 13 613 37 q 567 -15 579 -11 m 896 -15 q 887 -16 890 -16 q 840 -4 869 -16 q 787 24 811 7 q 758 54 762 40 q 755 65 755 59 q 768 113 755 84 q 797 166 780 142 q 826 194 813 190 q 838 195 829 195 q 886 183 857 195 q 938 154 914 171 q 965 125 961 137 q 966 115 966 123 q 954 67 966 96 q 925 13 942 37 q 896 -15 908 -11 z "},"!":{"ha":513,"x_min":157,"x_max":357,"o":"m 180 322 q 171 560 173 422 q 169 880 169 698 l 169 939 l 339 939 l 326 287 l 180 322 m 221 189 q 230 191 227 191 q 274 180 244 191 q 327 154 302 170 q 356 125 351 138 q 357 116 357 120 q 345 68 357 96 q 319 17 333 39 q 292 -10 304 -5 q 283 -12 287 -12 q 240 -1 267 -12 q 187 25 212 9 q 157 54 162 41 q 157 61 157 56 q 170 111 157 79 q 194 161 179 138 q 221 189 209 184 z "},"¡":{"ha":362,"x_min":24,"x_max":224,"o":"m 160 546 q 151 545 155 545 q 107 555 137 545 q 55 582 79 566 q 25 610 30 597 q 24 619 24 615 q 36 667 24 639 q 62 718 48 696 q 89 745 77 741 q 98 747 94 747 q 141 736 114 747 q 194 710 170 726 q 224 682 219 694 q 224 673 224 680 q 212 625 224 654 q 188 574 202 597 q 160 546 173 551 m 201 413 q 210 175 208 313 q 212 -144 212 37 l 212 -203 l 42 -203 l 55 448 l 201 413 z "},"#":{"ha":951,"x_min":46,"x_max":903,"o":"m 887 518 q 734 511 836 515 l 652 306 l 779 306 l 762 209 q 612 203 662 205 l 521 -24 l 413 2 l 493 199 q 303 196 365 197 l 215 -24 l 107 2 l 185 195 q 46 194 139 194 l 67 306 l 230 306 l 309 503 q 171 503 217 503 l 191 616 l 355 616 l 431 804 l 533 772 l 471 616 l 661 616 l 736 804 l 839 772 l 777 616 l 903 616 l 887 518 m 616 507 q 426 503 522 505 l 347 306 l 536 306 l 616 507 z "},".":{"ha":406,"x_min":98,"x_max":309,"o":"m 238 -15 q 229 -16 233 -16 q 182 -4 212 -16 q 129 24 153 7 q 100 54 104 40 q 98 65 98 59 q 110 113 98 84 q 139 166 122 142 q 168 194 155 190 q 180 195 172 195 q 228 183 199 195 q 280 154 256 171 q 307 125 303 137 q 309 115 309 123 q 296 67 309 96 q 267 13 284 37 q 238 -15 250 -11 z "},"?":{"ha":753,"x_min":112,"x_max":641,"o":"m 230 437 q 232 453 230 448 q 243 462 235 457 q 409 579 359 520 q 460 701 460 638 q 431 807 460 760 q 363 881 402 854 q 297 909 324 908 l 272 796 q 243 777 260 785 q 214 768 227 768 q 172 786 197 768 q 130 828 148 804 q 112 873 112 853 q 140 921 112 901 q 212 951 169 941 q 297 962 254 962 q 457 934 378 962 q 589 851 537 907 q 641 718 641 796 q 584 560 641 623 q 404 449 527 496 q 386 378 399 428 q 362 290 373 328 l 235 321 l 230 437 m 354 -15 q 346 -16 350 -16 q 299 -4 328 -16 q 245 24 270 7 q 216 54 221 40 q 214 64 214 56 q 226 113 214 83 q 255 166 238 142 q 284 194 271 190 q 296 195 288 195 q 344 183 315 195 q 396 154 372 171 q 424 125 420 137 q 425 115 425 123 q 413 67 425 96 q 384 13 401 37 q 354 -15 367 -11 z "},"¿":{"ha":709,"x_min":68,"x_max":597,"o":"m 355 756 q 363 758 359 758 q 410 746 380 758 q 463 718 439 734 q 493 688 488 701 q 494 677 494 685 q 483 628 494 658 q 454 575 471 599 q 425 547 437 551 q 413 546 421 546 q 365 558 393 546 q 313 587 336 570 q 285 616 289 604 q 283 627 283 618 q 296 674 283 645 q 325 728 308 704 q 355 756 342 752 m 479 304 q 477 289 479 293 q 465 279 474 284 q 300 162 351 221 q 249 40 249 103 q 278 -65 249 -18 q 346 -140 307 -113 q 412 -168 385 -167 l 437 -55 q 465 -36 449 -45 q 494 -27 481 -27 q 537 -45 512 -27 q 579 -87 562 -62 q 597 -132 597 -112 q 569 -179 597 -159 q 497 -210 541 -199 q 412 -220 454 -220 q 251 -193 331 -220 q 120 -110 172 -165 q 68 24 68 -55 q 125 181 68 118 q 304 292 182 245 q 347 451 313 333 l 475 420 l 479 304 z "},"\"":{"ha":507,"x_min":75,"x_max":429,"o":"m 75 950 l 210 950 q 204 775 209 866 q 191 612 199 684 l 75 648 l 75 950 m 294 950 l 429 950 q 423 775 428 866 q 410 612 418 684 l 294 648 l 294 950 z "},"'":{"ha":288,"x_min":75,"x_max":210,"o":"m 75 950 l 210 950 q 204 775 209 866 q 191 612 199 684 l 75 648 l 75 950 z "},";":{"ha":387,"x_min":107,"x_max":325,"o":"m 117 67 q 116 77 116 73 q 123 111 116 90 q 149 161 133 139 q 181 189 165 184 q 199 192 189 192 q 234 185 214 192 q 290 157 263 175 q 321 126 317 140 q 325 89 325 115 q 320 32 325 57 q 270 -94 311 -26 q 168 -210 229 -161 l 107 -199 l 199 -2 q 144 33 168 13 q 117 67 121 53 m 251 393 q 242 391 245 391 q 195 403 224 391 q 142 431 166 415 q 113 461 117 448 q 111 473 111 467 q 123 521 111 492 q 152 574 135 550 q 181 602 168 597 q 193 603 184 603 q 241 591 212 603 q 293 562 269 578 q 320 533 316 545 q 321 522 321 530 q 309 474 321 504 q 280 421 297 445 q 251 393 263 397 z "},"/":{"ha":602,"x_min":42,"x_max":559,"o":"m 559 981 l 161 -149 l 42 -117 l 443 1015 l 559 981 z "},"_":{"ha":695,"x_min":-41,"x_max":736,"o":"m 736 -124 l 715 -237 l -41 -237 l -16 -124 l 736 -124 z "},"{":{"ha":446,"x_min":36,"x_max":431,"o":"m 158 388 q 200 372 174 385 q 251 326 226 359 q 277 239 277 294 l 277 -109 l 430 -176 l 420 -224 q 234 -212 292 -224 q 159 -172 176 -199 q 143 -88 143 -144 l 143 267 q 114 322 143 296 q 50 366 85 348 q 40 375 45 370 q 36 388 36 380 q 41 401 36 395 q 50 410 45 408 q 114 458 84 431 q 143 515 143 486 l 143 869 q 160 952 143 926 q 237 992 176 979 q 431 1005 297 1005 l 422 957 l 277 888 l 277 536 q 251 450 277 482 q 200 404 226 417 q 158 388 174 391 z "},"}":{"ha":446,"x_min":16,"x_max":410,"o":"m 288 392 q 246 408 272 395 q 194 454 220 421 q 169 541 169 486 l 169 889 l 16 957 l 26 1005 q 212 992 154 1005 q 287 952 271 979 q 303 869 303 925 l 303 513 q 332 458 303 484 q 396 414 361 432 q 406 405 401 410 q 410 392 410 399 q 406 378 410 385 q 396 370 401 372 q 333 322 363 351 q 303 264 303 294 l 303 -88 q 287 -172 303 -145 q 210 -212 270 -199 q 16 -224 149 -224 l 24 -176 l 169 -108 l 169 244 q 194 330 169 298 q 246 376 220 363 q 288 392 272 389 z "},"[":{"ha":427,"x_min":114,"x_max":416,"o":"m 410 998 l 399 949 l 256 902 l 256 -117 l 416 -168 l 404 -214 l 114 -214 l 114 998 l 410 998 z "},"]":{"ha":425,"x_min":14,"x_max":311,"o":"m 311 -214 l 15 -214 l 25 -166 l 170 -117 l 170 902 l 14 949 l 28 998 l 311 998 l 311 -214 z "},"(":{"ha":421,"x_min":54,"x_max":404,"o":"m 54 392 q 127 743 54 587 q 349 1008 200 900 l 404 975 q 296 810 342 907 q 223 604 249 713 q 197 392 197 495 q 222 178 197 286 q 294 -25 248 71 q 404 -190 341 -120 l 348 -222 q 125 41 197 -113 q 54 392 54 195 z "}}}
